<mxfile host="app.diagrams.net" modified="2024-07-05T09:21:55.151Z" agent="Mozilla/5.0 (Macintosh; Intel Mac OS X 10_15_7) AppleWebKit/537.36 (KHTML, like Gecko) Chrome/125.0.0.0 Safari/537.36" etag="wiOfFlLGt5Dkncig1iNk" version="24.6.4" type="github">
  <diagram id="V2DTb5OL1VRiCWGHtdKA" name="Page-1">
    <mxGraphModel dx="1180" dy="497" grid="0" gridSize="10" guides="1" tooltips="1" connect="1" arrows="0" fold="1" page="1" pageScale="1" pageWidth="827" pageHeight="1169" math="0" shadow="0">
      <root>
        <mxCell id="0" />
        <mxCell id="1" parent="0" />
        <mxCell id="oxTGBEpy8pcz7sXoMvzD-49" value="" style="rounded=1;whiteSpace=wrap;html=1;labelBackgroundColor=none;fillColor=#d5e8d4;strokeColor=#82b366;arcSize=5;" parent="1" vertex="1">
          <mxGeometry x="225.9" y="3399.13" width="398.1" height="46.75" as="geometry" />
        </mxCell>
        <mxCell id="77BAv4R_QHjsAZorNYYZ-4" value="" style="rounded=1;whiteSpace=wrap;html=1;fontSize=4;dashed=1;fillColor=#CCCCFF;strokeColor=#b85450;fillOpacity=100;strokeOpacity=100;" parent="1" vertex="1">
          <mxGeometry x="306" y="1422" width="129" height="107" as="geometry" />
        </mxCell>
        <mxCell id="X5AMhHzkb54LyGPV_iVm-190" value="" style="rounded=1;whiteSpace=wrap;html=1;fontSize=4;dashed=1;fillColor=none;" parent="1" vertex="1">
          <mxGeometry x="113.8" y="1407" width="125.2" height="176" as="geometry" />
        </mxCell>
        <mxCell id="ptX2DU8aKGZaoR_pnGZ3-59" value="" style="rounded=1;whiteSpace=wrap;html=1;labelBackgroundColor=none;arcSize=5;" parent="1" vertex="1">
          <mxGeometry x="224" y="1961" width="441" height="250" as="geometry" />
        </mxCell>
        <mxCell id="ptX2DU8aKGZaoR_pnGZ3-47" value="" style="rounded=1;whiteSpace=wrap;html=1;labelBackgroundColor=none;fillColor=#dae8fc;strokeColor=#6c8ebf;arcSize=5;" parent="1" vertex="1">
          <mxGeometry x="237.10000000000002" y="1971.63" width="416.9" height="163.37" as="geometry" />
        </mxCell>
        <mxCell id="ptX2DU8aKGZaoR_pnGZ3-46" value="" style="rounded=1;whiteSpace=wrap;html=1;labelBackgroundColor=none;fillColor=#E6E6E6;strokeColor=#666666;gradientColor=none;arcSize=5;" parent="1" vertex="1">
          <mxGeometry x="235.39999999999998" y="2150.25" width="422.6" height="46.75" as="geometry" />
        </mxCell>
        <mxCell id="X5AMhHzkb54LyGPV_iVm-243" value="" style="rounded=1;whiteSpace=wrap;html=1;fontSize=4;dashed=1;fillColor=#99FF99;strokeColor=#b85450;fillOpacity=100;strokeOpacity=100;" parent="1" vertex="1">
          <mxGeometry x="305" y="1258" width="132" height="134" as="geometry" />
        </mxCell>
        <mxCell id="X5AMhHzkb54LyGPV_iVm-101" value="Multi-Head &lt;br&gt;Attention" style="rounded=1;whiteSpace=wrap;html=1;" parent="1" vertex="1">
          <mxGeometry x="183" y="912" width="110" height="50" as="geometry" />
        </mxCell>
        <mxCell id="X5AMhHzkb54LyGPV_iVm-103" style="edgeStyle=orthogonalEdgeStyle;rounded=0;orthogonalLoop=1;jettySize=auto;html=1;exitX=0.5;exitY=0;exitDx=0;exitDy=0;entryX=0.5;entryY=1;entryDx=0;entryDy=0;endSize=3;startSize=3;" parent="1" source="X5AMhHzkb54LyGPV_iVm-104" target="X5AMhHzkb54LyGPV_iVm-101" edge="1">
          <mxGeometry relative="1" as="geometry" />
        </mxCell>
        <mxCell id="X5AMhHzkb54LyGPV_iVm-104" value="Input Embed" style="rounded=1;whiteSpace=wrap;html=1;" parent="1" vertex="1">
          <mxGeometry x="183" y="985" width="110" height="20" as="geometry" />
        </mxCell>
        <mxCell id="X5AMhHzkb54LyGPV_iVm-105" value="Bilingual Phrase&lt;br&gt;Matching" style="rounded=1;whiteSpace=wrap;html=1;" parent="1" vertex="1">
          <mxGeometry x="375" y="932" width="110" height="30" as="geometry" />
        </mxCell>
        <mxCell id="X5AMhHzkb54LyGPV_iVm-106" value="" style="endArrow=classic;startArrow=classic;html=1;rounded=0;jumpSize=3;fontSize=5;endSize=3;startSize=3;" parent="1" edge="1">
          <mxGeometry width="50" height="50" relative="1" as="geometry">
            <mxPoint x="219" y="962" as="sourcePoint" />
            <mxPoint x="259" y="962" as="targetPoint" />
            <Array as="points">
              <mxPoint x="219" y="972" />
              <mxPoint x="239" y="972" />
              <mxPoint x="259" y="972" />
            </Array>
          </mxGeometry>
        </mxCell>
        <mxCell id="X5AMhHzkb54LyGPV_iVm-107" style="edgeStyle=orthogonalEdgeStyle;rounded=0;orthogonalLoop=1;jettySize=auto;html=1;exitX=0.5;exitY=0;exitDx=0;exitDy=0;entryX=0.5;entryY=1;entryDx=0;entryDy=0;endSize=3;startSize=3;" parent="1" edge="1">
          <mxGeometry relative="1" as="geometry">
            <mxPoint x="621.8600000000001" y="676.5" as="sourcePoint" />
            <mxPoint x="621.8600000000001" y="651.5" as="targetPoint" />
          </mxGeometry>
        </mxCell>
        <mxCell id="X5AMhHzkb54LyGPV_iVm-108" value="" style="endArrow=classic;html=1;rounded=0;fontSize=4;startSize=3;endSize=3;jumpSize=3;exitX=0.5;exitY=0;exitDx=0;exitDy=0;entryX=0.5;entryY=1;entryDx=0;entryDy=0;" parent="1" target="X5AMhHzkb54LyGPV_iVm-135" edge="1">
          <mxGeometry width="50" height="50" relative="1" as="geometry">
            <mxPoint x="238" y="912" as="sourcePoint" />
            <mxPoint x="238" y="897" as="targetPoint" />
          </mxGeometry>
        </mxCell>
        <mxCell id="X5AMhHzkb54LyGPV_iVm-109" style="edgeStyle=orthogonalEdgeStyle;rounded=0;orthogonalLoop=1;jettySize=auto;html=1;entryX=0.5;entryY=1;entryDx=0;entryDy=0;endSize=3;startSize=3;exitX=0.5;exitY=0;exitDx=0;exitDy=0;" parent="1" source="X5AMhHzkb54LyGPV_iVm-127" edge="1">
          <mxGeometry relative="1" as="geometry">
            <mxPoint x="430" y="972.5" as="sourcePoint" />
            <mxPoint x="430.0000000000002" y="962.5" as="targetPoint" />
            <Array as="points" />
          </mxGeometry>
        </mxCell>
        <mxCell id="X5AMhHzkb54LyGPV_iVm-110" value="" style="rounded=1;whiteSpace=wrap;html=1;fontSize=4;dashed=1;fillColor=none;" parent="1" vertex="1">
          <mxGeometry x="31" y="865" width="136" height="114" as="geometry" />
        </mxCell>
        <mxCell id="X5AMhHzkb54LyGPV_iVm-111" style="edgeStyle=orthogonalEdgeStyle;rounded=0;orthogonalLoop=1;jettySize=auto;html=1;exitX=0.5;exitY=0;exitDx=0;exitDy=0;entryX=0.5;entryY=1;entryDx=0;entryDy=0;endSize=3;startSize=3;" parent="1" target="X5AMhHzkb54LyGPV_iVm-117" edge="1">
          <mxGeometry relative="1" as="geometry">
            <mxPoint x="622" y="744" as="sourcePoint" />
            <mxPoint x="621.58" y="719" as="targetPoint" />
          </mxGeometry>
        </mxCell>
        <mxCell id="X5AMhHzkb54LyGPV_iVm-112" value="" style="rounded=1;whiteSpace=wrap;html=1;fontSize=4;dashed=1;fillColor=none;" parent="1" vertex="1">
          <mxGeometry x="552" y="739" width="139" height="240" as="geometry" />
        </mxCell>
        <mxCell id="X5AMhHzkb54LyGPV_iVm-113" value="Intra-Phrase Encoder" style="rounded=1;whiteSpace=wrap;html=1;" parent="1" vertex="1">
          <mxGeometry x="375" y="874" width="110" height="42" as="geometry" />
        </mxCell>
        <mxCell id="X5AMhHzkb54LyGPV_iVm-170" value="" style="edgeStyle=orthogonalEdgeStyle;rounded=0;jumpSize=3;orthogonalLoop=1;jettySize=auto;html=1;fontSize=4;startArrow=none;startFill=0;endArrow=none;endFill=0;startSize=3;endSize=3;entryX=0.337;entryY=1.015;entryDx=0;entryDy=0;entryPerimeter=0;" parent="1" target="X5AMhHzkb54LyGPV_iVm-140" edge="1">
          <mxGeometry relative="1" as="geometry">
            <mxPoint x="485.5" y="841.5333333333333" as="sourcePoint" />
            <mxPoint x="610" y="905" as="targetPoint" />
            <Array as="points">
              <mxPoint x="530" y="842" />
              <mxPoint x="530" y="905" />
              <mxPoint x="604" y="905" />
            </Array>
          </mxGeometry>
        </mxCell>
        <mxCell id="X5AMhHzkb54LyGPV_iVm-115" value="Inter-Phrase&lt;br&gt;Encoder" style="rounded=1;whiteSpace=wrap;html=1;" parent="1" vertex="1">
          <mxGeometry x="375.5" y="814" width="110" height="45" as="geometry" />
        </mxCell>
        <mxCell id="X5AMhHzkb54LyGPV_iVm-116" value="" style="endArrow=classic;startArrow=none;html=1;rounded=0;fontSize=4;startSize=3;endSize=3;jumpSize=3;endFill=1;startFill=0;exitX=1.003;exitY=0.412;exitDx=0;exitDy=0;exitPerimeter=0;entryX=1;entryY=0.5;entryDx=0;entryDy=0;" parent="1" source="X5AMhHzkb54LyGPV_iVm-105" target="X5AMhHzkb54LyGPV_iVm-122" edge="1">
          <mxGeometry width="50" height="50" relative="1" as="geometry">
            <mxPoint x="485" y="963" as="sourcePoint" />
            <mxPoint x="485" y="704" as="targetPoint" />
            <Array as="points">
              <mxPoint x="500" y="945" />
              <mxPoint x="500" y="770" />
            </Array>
          </mxGeometry>
        </mxCell>
        <mxCell id="X5AMhHzkb54LyGPV_iVm-117" value="Linear" style="rounded=1;whiteSpace=wrap;html=1;" parent="1" vertex="1">
          <mxGeometry x="567" y="702" width="110" height="18.5" as="geometry" />
        </mxCell>
        <mxCell id="X5AMhHzkb54LyGPV_iVm-118" value="Softmax" style="rounded=1;whiteSpace=wrap;html=1;" parent="1" vertex="1">
          <mxGeometry x="567" y="668" width="110" height="18.5" as="geometry" />
        </mxCell>
        <mxCell id="X5AMhHzkb54LyGPV_iVm-119" value="CopyNet" style="rounded=1;whiteSpace=wrap;html=1;" parent="1" vertex="1">
          <mxGeometry x="376" y="701" width="110" height="41" as="geometry" />
        </mxCell>
        <mxCell id="X5AMhHzkb54LyGPV_iVm-120" value="Softmax" style="rounded=1;whiteSpace=wrap;html=1;" parent="1" vertex="1">
          <mxGeometry x="376" y="665" width="110" height="18.5" as="geometry" />
        </mxCell>
        <mxCell id="X5AMhHzkb54LyGPV_iVm-121" value="Output Prob" style="rounded=1;whiteSpace=wrap;html=1;" parent="1" vertex="1">
          <mxGeometry x="567" y="633" width="110" height="18.5" as="geometry" />
        </mxCell>
        <mxCell id="X5AMhHzkb54LyGPV_iVm-122" value="Word Sequence" style="rounded=1;whiteSpace=wrap;html=1;" parent="1" vertex="1">
          <mxGeometry x="376" y="759" width="110" height="22" as="geometry" />
        </mxCell>
        <mxCell id="X5AMhHzkb54LyGPV_iVm-123" value="" style="endArrow=classic;html=1;rounded=0;fontSize=4;startSize=3;endSize=3;jumpSize=3;entryX=0.5;entryY=1;entryDx=0;entryDy=0;" parent="1" edge="1">
          <mxGeometry width="50" height="50" relative="1" as="geometry">
            <mxPoint x="429.8599999999999" y="759" as="sourcePoint" />
            <mxPoint x="429.8599999999999" y="742" as="targetPoint" />
          </mxGeometry>
        </mxCell>
        <mxCell id="X5AMhHzkb54LyGPV_iVm-125" value="" style="endArrow=classic;html=1;rounded=0;fontSize=4;startSize=3;endSize=3;jumpSize=3;entryX=0.5;entryY=1;entryDx=0;entryDy=0;" parent="1" edge="1">
          <mxGeometry width="50" height="50" relative="1" as="geometry">
            <mxPoint x="429.72" y="700.5000000000001" as="sourcePoint" />
            <mxPoint x="429.72" y="683.5" as="targetPoint" />
          </mxGeometry>
        </mxCell>
        <mxCell id="X5AMhHzkb54LyGPV_iVm-127" value="Phrase Partition" style="rounded=1;whiteSpace=wrap;html=1;" parent="1" vertex="1">
          <mxGeometry x="375" y="984" width="110" height="20" as="geometry" />
        </mxCell>
        <mxCell id="X5AMhHzkb54LyGPV_iVm-130" style="edgeStyle=orthogonalEdgeStyle;rounded=0;orthogonalLoop=1;jettySize=auto;html=1;endSize=3;startSize=3;exitX=0.5;exitY=0;exitDx=0;exitDy=0;" parent="1" edge="1">
          <mxGeometry relative="1" as="geometry">
            <mxPoint x="430.0000000000002" y="874" as="sourcePoint" />
            <mxPoint x="429.8800000000001" y="859" as="targetPoint" />
          </mxGeometry>
        </mxCell>
        <mxCell id="X5AMhHzkb54LyGPV_iVm-131" value="" style="endArrow=classic;startArrow=classic;html=1;rounded=0;jumpSize=3;fontSize=5;endSize=3;startSize=3;" parent="1" edge="1">
          <mxGeometry width="50" height="50" relative="1" as="geometry">
            <mxPoint x="409" y="859.0000000000001" as="sourcePoint" />
            <mxPoint x="449" y="859.0000000000001" as="targetPoint" />
            <Array as="points">
              <mxPoint x="409" y="869" />
              <mxPoint x="429" y="869" />
              <mxPoint x="449" y="869" />
            </Array>
          </mxGeometry>
        </mxCell>
        <mxCell id="X5AMhHzkb54LyGPV_iVm-132" style="edgeStyle=orthogonalEdgeStyle;rounded=0;orthogonalLoop=1;jettySize=auto;html=1;entryX=0.5;entryY=1;entryDx=0;entryDy=0;endSize=3;startSize=3;" parent="1" edge="1">
          <mxGeometry relative="1" as="geometry">
            <mxPoint x="429.0000000000002" y="932" as="sourcePoint" />
            <mxPoint x="429.0000000000002" y="915.9999999999999" as="targetPoint" />
          </mxGeometry>
        </mxCell>
        <mxCell id="X5AMhHzkb54LyGPV_iVm-133" value="" style="endArrow=classic;startArrow=classic;html=1;rounded=0;jumpSize=3;fontSize=5;endSize=3;startSize=3;" parent="1" edge="1">
          <mxGeometry width="50" height="50" relative="1" as="geometry">
            <mxPoint x="409.0000000000002" y="916.0000000000001" as="sourcePoint" />
            <mxPoint x="449.0000000000002" y="916.0000000000001" as="targetPoint" />
            <Array as="points">
              <mxPoint x="409" y="926" />
              <mxPoint x="429" y="926" />
              <mxPoint x="449" y="926" />
            </Array>
          </mxGeometry>
        </mxCell>
        <mxCell id="X5AMhHzkb54LyGPV_iVm-135" value="&lt;span&gt;Feed Forward&lt;/span&gt;" style="rounded=1;whiteSpace=wrap;html=1;" parent="1" vertex="1">
          <mxGeometry x="183" y="874.5" width="110" height="20" as="geometry" />
        </mxCell>
        <mxCell id="X5AMhHzkb54LyGPV_iVm-175" value="" style="edgeStyle=orthogonalEdgeStyle;rounded=0;jumpSize=3;orthogonalLoop=1;jettySize=auto;html=1;fontSize=4;startArrow=none;startFill=0;endArrow=none;endFill=0;startSize=3;endSize=3;" parent="1" source="X5AMhHzkb54LyGPV_iVm-140" target="X5AMhHzkb54LyGPV_iVm-167" edge="1">
          <mxGeometry relative="1" as="geometry" />
        </mxCell>
        <mxCell id="X5AMhHzkb54LyGPV_iVm-140" value="Cross Multi-Head &lt;br&gt;Attention" style="rounded=1;whiteSpace=wrap;html=1;" parent="1" vertex="1">
          <mxGeometry x="567" y="845" width="110" height="50" as="geometry" />
        </mxCell>
        <mxCell id="X5AMhHzkb54LyGPV_iVm-142" style="edgeStyle=orthogonalEdgeStyle;rounded=0;orthogonalLoop=1;jettySize=auto;html=1;exitX=0.5;exitY=0;exitDx=0;exitDy=0;entryX=0.5;entryY=1;entryDx=0;entryDy=0;endSize=3;startSize=3;" parent="1" target="X5AMhHzkb54LyGPV_iVm-140" edge="1">
          <mxGeometry relative="1" as="geometry">
            <mxPoint x="622" y="912" as="sourcePoint" />
          </mxGeometry>
        </mxCell>
        <mxCell id="X5AMhHzkb54LyGPV_iVm-143" value="" style="endArrow=classic;startArrow=classic;html=1;rounded=0;jumpSize=3;fontSize=5;endSize=3;startSize=3;" parent="1" edge="1">
          <mxGeometry width="50" height="50" relative="1" as="geometry">
            <mxPoint x="583.9999999999998" y="895" as="sourcePoint" />
            <mxPoint x="603.9999999999998" y="895" as="targetPoint" />
            <Array as="points">
              <mxPoint x="584" y="905" />
              <mxPoint x="604" y="905" />
            </Array>
          </mxGeometry>
        </mxCell>
        <mxCell id="X5AMhHzkb54LyGPV_iVm-144" value="" style="endArrow=classic;html=1;rounded=0;fontSize=4;startSize=3;endSize=3;jumpSize=3;exitX=0.5;exitY=0;exitDx=0;exitDy=0;entryX=0.5;entryY=1;entryDx=0;entryDy=0;" parent="1" edge="1">
          <mxGeometry width="50" height="50" relative="1" as="geometry">
            <mxPoint x="622" y="806" as="sourcePoint" />
            <mxPoint x="622" y="791" as="targetPoint" />
          </mxGeometry>
        </mxCell>
        <mxCell id="X5AMhHzkb54LyGPV_iVm-147" value="&lt;span&gt;Feed Forward&lt;/span&gt;" style="rounded=1;whiteSpace=wrap;html=1;" parent="1" vertex="1">
          <mxGeometry x="567" y="744.5" width="110" height="20" as="geometry" />
        </mxCell>
        <mxCell id="X5AMhHzkb54LyGPV_iVm-151" value="Masked Multi-Head &lt;br&gt;Attention" style="rounded=1;whiteSpace=wrap;html=1;" parent="1" vertex="1">
          <mxGeometry x="567" y="912" width="110" height="50" as="geometry" />
        </mxCell>
        <mxCell id="X5AMhHzkb54LyGPV_iVm-152" style="edgeStyle=orthogonalEdgeStyle;rounded=0;orthogonalLoop=1;jettySize=auto;html=1;exitX=0.5;exitY=0;exitDx=0;exitDy=0;entryX=0.5;entryY=1;entryDx=0;entryDy=0;endSize=3;startSize=3;" parent="1" source="X5AMhHzkb54LyGPV_iVm-153" target="X5AMhHzkb54LyGPV_iVm-151" edge="1">
          <mxGeometry relative="1" as="geometry" />
        </mxCell>
        <mxCell id="X5AMhHzkb54LyGPV_iVm-153" value="Output Embed" style="rounded=1;whiteSpace=wrap;html=1;" parent="1" vertex="1">
          <mxGeometry x="567" y="985" width="110" height="20" as="geometry" />
        </mxCell>
        <mxCell id="X5AMhHzkb54LyGPV_iVm-154" value="" style="endArrow=classic;startArrow=classic;html=1;rounded=0;jumpSize=3;fontSize=5;endSize=3;startSize=3;" parent="1" edge="1">
          <mxGeometry width="50" height="50" relative="1" as="geometry">
            <mxPoint x="603" y="962" as="sourcePoint" />
            <mxPoint x="643" y="962" as="targetPoint" />
            <Array as="points">
              <mxPoint x="603" y="972" />
              <mxPoint x="623" y="972" />
              <mxPoint x="643" y="972" />
            </Array>
          </mxGeometry>
        </mxCell>
        <mxCell id="X5AMhHzkb54LyGPV_iVm-159" style="edgeStyle=orthogonalEdgeStyle;rounded=0;orthogonalLoop=1;jettySize=auto;html=1;entryX=0.5;entryY=1;entryDx=0;entryDy=0;endSize=3;startSize=3;" parent="1" edge="1">
          <mxGeometry relative="1" as="geometry">
            <mxPoint x="621.6" y="777.9999999999999" as="sourcePoint" />
            <mxPoint x="621.6" y="764" as="targetPoint" />
            <Array as="points">
              <mxPoint x="621.6" y="778" />
            </Array>
          </mxGeometry>
        </mxCell>
        <mxCell id="X5AMhHzkb54LyGPV_iVm-161" style="edgeStyle=orthogonalEdgeStyle;rounded=1;orthogonalLoop=1;jettySize=auto;html=1;endSize=3;startSize=3;" parent="1" edge="1">
          <mxGeometry relative="1" as="geometry">
            <mxPoint x="429" y="665" as="sourcePoint" />
            <mxPoint x="567" y="640" as="targetPoint" />
            <Array as="points">
              <mxPoint x="429" y="640" />
            </Array>
          </mxGeometry>
        </mxCell>
        <mxCell id="X5AMhHzkb54LyGPV_iVm-162" style="edgeStyle=orthogonalEdgeStyle;rounded=0;orthogonalLoop=1;jettySize=auto;html=1;endSize=3;startSize=3;entryX=0.5;entryY=1;entryDx=0;entryDy=0;" parent="1" target="X5AMhHzkb54LyGPV_iVm-118" edge="1">
          <mxGeometry relative="1" as="geometry">
            <mxPoint x="621" y="702" as="sourcePoint" />
            <mxPoint x="621" y="687.5" as="targetPoint" />
          </mxGeometry>
        </mxCell>
        <mxCell id="X5AMhHzkb54LyGPV_iVm-163" style="edgeStyle=orthogonalEdgeStyle;rounded=0;orthogonalLoop=1;jettySize=auto;html=1;exitX=0.5;exitY=0;exitDx=0;exitDy=0;entryX=0.5;entryY=1;entryDx=0;entryDy=0;endSize=3;startSize=3;" parent="1" edge="1">
          <mxGeometry relative="1" as="geometry">
            <mxPoint x="621.6000000000001" y="633" as="sourcePoint" />
            <mxPoint x="621.6000000000001" y="608" as="targetPoint" />
          </mxGeometry>
        </mxCell>
        <mxCell id="X5AMhHzkb54LyGPV_iVm-164" value="" style="endArrow=classic;html=1;rounded=1;fontSize=4;startSize=3;endSize=3;jumpSize=3;entryX=-0.006;entryY=0.331;entryDx=0;entryDy=0;entryPerimeter=0;" parent="1" target="X5AMhHzkb54LyGPV_iVm-119" edge="1">
          <mxGeometry width="50" height="50" relative="1" as="geometry">
            <mxPoint x="240" y="800" as="sourcePoint" />
            <mxPoint x="380" y="715" as="targetPoint" />
            <Array as="points">
              <mxPoint x="240" y="715" />
            </Array>
          </mxGeometry>
        </mxCell>
        <mxCell id="X5AMhHzkb54LyGPV_iVm-165" value="" style="endArrow=classic;html=1;rounded=0;fontSize=4;startSize=3;endSize=3;jumpSize=3;entryX=1;entryY=0.75;entryDx=0;entryDy=0;" parent="1" target="X5AMhHzkb54LyGPV_iVm-119" edge="1">
          <mxGeometry width="50" height="50" relative="1" as="geometry">
            <mxPoint x="622" y="732" as="sourcePoint" />
            <mxPoint x="510" y="741" as="targetPoint" />
          </mxGeometry>
        </mxCell>
        <mxCell id="X5AMhHzkb54LyGPV_iVm-166" value="" style="endArrow=classic;html=1;rounded=0;fontSize=4;startSize=3;endSize=3;jumpSize=3;exitX=1;exitY=0.5;exitDx=0;exitDy=0;" parent="1" source="YxxwiQiscKw8ClJpSAqb-5" target="X5AMhHzkb54LyGPV_iVm-127" edge="1">
          <mxGeometry width="50" height="50" relative="1" as="geometry">
            <mxPoint x="292" y="994" as="sourcePoint" />
            <mxPoint x="375" y="993" as="targetPoint" />
            <Array as="points">
              <mxPoint x="431" y="1038" />
            </Array>
          </mxGeometry>
        </mxCell>
        <mxCell id="X5AMhHzkb54LyGPV_iVm-167" value="Cross Multi-Head &lt;br&gt;Attention" style="rounded=1;whiteSpace=wrap;html=1;" parent="1" vertex="1">
          <mxGeometry x="567" y="777" width="110" height="50" as="geometry" />
        </mxCell>
        <mxCell id="X5AMhHzkb54LyGPV_iVm-171" value="" style="edgeStyle=orthogonalEdgeStyle;rounded=0;jumpSize=3;orthogonalLoop=1;jettySize=auto;html=1;fontSize=4;startArrow=none;startFill=0;endArrow=none;endFill=0;startSize=3;endSize=3;" parent="1" edge="1">
          <mxGeometry relative="1" as="geometry">
            <mxPoint x="240" y="874" as="sourcePoint" />
            <mxPoint x="603" y="837" as="targetPoint" />
            <Array as="points">
              <mxPoint x="240" y="797" />
              <mxPoint x="558" y="797" />
              <mxPoint x="558" y="837" />
            </Array>
          </mxGeometry>
        </mxCell>
        <mxCell id="X5AMhHzkb54LyGPV_iVm-173" style="edgeStyle=orthogonalEdgeStyle;rounded=0;orthogonalLoop=1;jettySize=auto;html=1;endSize=3;startSize=3;entryX=0.5;entryY=1;entryDx=0;entryDy=0;" parent="1" target="X5AMhHzkb54LyGPV_iVm-167" edge="1">
          <mxGeometry relative="1" as="geometry">
            <mxPoint x="621.62" y="845" as="sourcePoint" />
            <mxPoint x="622" y="830" as="targetPoint" />
          </mxGeometry>
        </mxCell>
        <mxCell id="X5AMhHzkb54LyGPV_iVm-176" value="" style="endArrow=classic;startArrow=classic;html=1;rounded=0;jumpSize=3;fontSize=5;endSize=3;startSize=3;" parent="1" edge="1">
          <mxGeometry width="50" height="50" relative="1" as="geometry">
            <mxPoint x="583.9999999999998" y="827" as="sourcePoint" />
            <mxPoint x="603.9999999999998" y="827" as="targetPoint" />
            <Array as="points">
              <mxPoint x="584" y="837" />
              <mxPoint x="604" y="837" />
            </Array>
          </mxGeometry>
        </mxCell>
        <mxCell id="X5AMhHzkb54LyGPV_iVm-177" value="Fig. 1. The overall architecture of our proposed model (best viewed in color)." style="text;whiteSpace=wrap;html=1;fontSize=4;" parent="1" vertex="1">
          <mxGeometry x="248" y="1103" width="425" height="19" as="geometry" />
        </mxCell>
        <mxCell id="X5AMhHzkb54LyGPV_iVm-240" value="" style="edgeStyle=orthogonalEdgeStyle;rounded=0;jumpSize=3;orthogonalLoop=1;jettySize=auto;html=1;fontSize=4;startArrow=none;startFill=0;endArrow=none;endFill=0;startSize=3;endSize=3;" parent="1" source="X5AMhHzkb54LyGPV_iVm-182" target="X5AMhHzkb54LyGPV_iVm-235" edge="1">
          <mxGeometry relative="1" as="geometry" />
        </mxCell>
        <mxCell id="X5AMhHzkb54LyGPV_iVm-182" value="Multi-Head &lt;br&gt;Attention" style="rounded=1;whiteSpace=wrap;html=1;fillColor=#FFFF99;" parent="1" vertex="1">
          <mxGeometry x="123" y="1516" width="110" height="50" as="geometry" />
        </mxCell>
        <mxCell id="X5AMhHzkb54LyGPV_iVm-183" style="edgeStyle=orthogonalEdgeStyle;rounded=0;orthogonalLoop=1;jettySize=auto;html=1;exitX=0.5;exitY=0;exitDx=0;exitDy=0;entryX=0.5;entryY=1;entryDx=0;entryDy=0;endSize=3;startSize=3;" parent="1" target="X5AMhHzkb54LyGPV_iVm-182" edge="1">
          <mxGeometry relative="1" as="geometry">
            <mxPoint x="178" y="1589" as="sourcePoint" />
          </mxGeometry>
        </mxCell>
        <mxCell id="X5AMhHzkb54LyGPV_iVm-185" value="Phrase&lt;br&gt;Matching" style="rounded=1;whiteSpace=wrap;html=1;fillColor=#EBF3FF;strokeColor=#36393d;" parent="1" vertex="1">
          <mxGeometry x="315" y="1536" width="107.38" height="41" as="geometry" />
        </mxCell>
        <mxCell id="X5AMhHzkb54LyGPV_iVm-186" value="" style="endArrow=classic;startArrow=classic;html=1;rounded=1;jumpSize=3;fontSize=5;endSize=3;startSize=3;" parent="1" edge="1">
          <mxGeometry width="50" height="50" relative="1" as="geometry">
            <mxPoint x="159" y="1566" as="sourcePoint" />
            <mxPoint x="199" y="1566" as="targetPoint" />
            <Array as="points">
              <mxPoint x="159" y="1576" />
              <mxPoint x="179" y="1576" />
              <mxPoint x="199" y="1576" />
            </Array>
          </mxGeometry>
        </mxCell>
        <mxCell id="X5AMhHzkb54LyGPV_iVm-187" style="edgeStyle=orthogonalEdgeStyle;rounded=0;orthogonalLoop=1;jettySize=auto;html=1;exitX=0.5;exitY=0;exitDx=0;exitDy=0;entryX=0.5;entryY=1;entryDx=0;entryDy=0;endSize=3;startSize=3;" parent="1" edge="1">
          <mxGeometry relative="1" as="geometry">
            <mxPoint x="561.8600000000001" y="1280.5" as="sourcePoint" />
            <mxPoint x="561.8600000000001" y="1255.5" as="targetPoint" />
          </mxGeometry>
        </mxCell>
        <mxCell id="X5AMhHzkb54LyGPV_iVm-188" value="" style="endArrow=classic;html=1;rounded=0;fontSize=4;startSize=3;endSize=3;jumpSize=3;entryX=0.5;entryY=1;entryDx=0;entryDy=0;" parent="1" target="X5AMhHzkb54LyGPV_iVm-210" edge="1">
          <mxGeometry width="50" height="50" relative="1" as="geometry">
            <mxPoint x="178" y="1452" as="sourcePoint" />
            <mxPoint x="178" y="1501" as="targetPoint" />
          </mxGeometry>
        </mxCell>
        <mxCell id="X5AMhHzkb54LyGPV_iVm-189" style="edgeStyle=orthogonalEdgeStyle;rounded=0;orthogonalLoop=1;jettySize=auto;html=1;endSize=3;startSize=3;exitX=0.5;exitY=0;exitDx=0;exitDy=0;" parent="1" source="YxxwiQiscKw8ClJpSAqb-9" edge="1">
          <mxGeometry relative="1" as="geometry">
            <mxPoint x="370" y="1586" as="sourcePoint" />
            <mxPoint x="370" y="1577" as="targetPoint" />
            <Array as="points" />
          </mxGeometry>
        </mxCell>
        <mxCell id="X5AMhHzkb54LyGPV_iVm-191" style="edgeStyle=orthogonalEdgeStyle;rounded=0;orthogonalLoop=1;jettySize=auto;html=1;exitX=0.5;exitY=0;exitDx=0;exitDy=0;entryX=0.5;entryY=1;entryDx=0;entryDy=0;endSize=3;startSize=3;" parent="1" target="X5AMhHzkb54LyGPV_iVm-197" edge="1">
          <mxGeometry relative="1" as="geometry">
            <mxPoint x="562" y="1348" as="sourcePoint" />
            <mxPoint x="561.58" y="1323" as="targetPoint" />
          </mxGeometry>
        </mxCell>
        <mxCell id="X5AMhHzkb54LyGPV_iVm-192" value="" style="rounded=1;whiteSpace=wrap;html=1;fontSize=4;dashed=1;fillColor=none;" parent="1" vertex="1">
          <mxGeometry x="499.5" y="1342" width="124.5" height="240" as="geometry" />
        </mxCell>
        <mxCell id="X5AMhHzkb54LyGPV_iVm-193" value="Src Phrase&lt;br&gt;Encoder" style="rounded=1;whiteSpace=wrap;html=1;" parent="1" vertex="1">
          <mxGeometry x="315" y="1482" width="110" height="38" as="geometry" />
        </mxCell>
        <mxCell id="X5AMhHzkb54LyGPV_iVm-194" value="" style="edgeStyle=orthogonalEdgeStyle;rounded=1;jumpSize=3;orthogonalLoop=1;jettySize=auto;html=1;fontSize=4;startArrow=none;startFill=0;endArrow=none;endFill=0;startSize=3;endSize=3;entryX=0.337;entryY=1.015;entryDx=0;entryDy=0;entryPerimeter=0;" parent="1" target="X5AMhHzkb54LyGPV_iVm-212" edge="1">
          <mxGeometry relative="1" as="geometry">
            <mxPoint x="425.5" y="1445.5333333333333" as="sourcePoint" />
            <mxPoint x="550" y="1509" as="targetPoint" />
            <Array as="points">
              <mxPoint x="470" y="1446" />
              <mxPoint x="470" y="1509" />
              <mxPoint x="544" y="1509" />
            </Array>
          </mxGeometry>
        </mxCell>
        <mxCell id="X5AMhHzkb54LyGPV_iVm-195" value="Tgt Phrase&lt;br&gt;Encoder" style="rounded=1;whiteSpace=wrap;html=1;" parent="1" vertex="1">
          <mxGeometry x="315.5" y="1428" width="110" height="39" as="geometry" />
        </mxCell>
        <mxCell id="X5AMhHzkb54LyGPV_iVm-196" value="" style="endArrow=classic;startArrow=none;html=1;rounded=1;fontSize=4;startSize=3;endSize=3;jumpSize=3;endFill=1;startFill=0;exitX=1.003;exitY=0.412;exitDx=0;exitDy=0;exitPerimeter=0;entryX=1;entryY=0.5;entryDx=0;entryDy=0;" parent="1" source="X5AMhHzkb54LyGPV_iVm-185" target="X5AMhHzkb54LyGPV_iVm-202" edge="1">
          <mxGeometry width="50" height="50" relative="1" as="geometry">
            <mxPoint x="425" y="1567" as="sourcePoint" />
            <mxPoint x="425" y="1308" as="targetPoint" />
            <Array as="points">
              <mxPoint x="440" y="1549" />
              <mxPoint x="440" y="1374" />
            </Array>
          </mxGeometry>
        </mxCell>
        <mxCell id="X5AMhHzkb54LyGPV_iVm-197" value="Linear" style="rounded=1;whiteSpace=wrap;html=1;fillColor=#CCFFFF;" parent="1" vertex="1">
          <mxGeometry x="507" y="1306" width="110" height="18.5" as="geometry" />
        </mxCell>
        <mxCell id="X5AMhHzkb54LyGPV_iVm-198" value="Softmax" style="rounded=1;whiteSpace=wrap;html=1;fillColor=#CCE5FF;" parent="1" vertex="1">
          <mxGeometry x="507" y="1272" width="110" height="18.5" as="geometry" />
        </mxCell>
        <mxCell id="X5AMhHzkb54LyGPV_iVm-199" value="Copy Score" style="rounded=1;whiteSpace=wrap;html=1;" parent="1" vertex="1">
          <mxGeometry x="316" y="1305" width="110" height="41" as="geometry" />
        </mxCell>
        <mxCell id="X5AMhHzkb54LyGPV_iVm-200" value="Softmax" style="rounded=1;whiteSpace=wrap;html=1;" parent="1" vertex="1">
          <mxGeometry x="316" y="1269" width="110" height="18.5" as="geometry" />
        </mxCell>
        <mxCell id="X5AMhHzkb54LyGPV_iVm-201" value="Gated Sum" style="rounded=1;whiteSpace=wrap;html=1;fillColor=#FFCCE6;" parent="1" vertex="1">
          <mxGeometry x="507" y="1237" width="110" height="18.5" as="geometry" />
        </mxCell>
        <mxCell id="X5AMhHzkb54LyGPV_iVm-202" value="Word Memory" style="rounded=1;whiteSpace=wrap;html=1;" parent="1" vertex="1">
          <mxGeometry x="316" y="1363" width="110" height="22" as="geometry" />
        </mxCell>
        <mxCell id="X5AMhHzkb54LyGPV_iVm-203" value="" style="endArrow=classic;html=1;rounded=0;fontSize=4;startSize=3;endSize=3;jumpSize=3;entryX=0.5;entryY=1;entryDx=0;entryDy=0;" parent="1" edge="1">
          <mxGeometry width="50" height="50" relative="1" as="geometry">
            <mxPoint x="369.8599999999999" y="1363" as="sourcePoint" />
            <mxPoint x="369.8599999999999" y="1346" as="targetPoint" />
          </mxGeometry>
        </mxCell>
        <mxCell id="X5AMhHzkb54LyGPV_iVm-204" value="" style="endArrow=classic;html=1;rounded=0;fontSize=4;startSize=3;endSize=3;jumpSize=3;entryX=0.5;entryY=1;entryDx=0;entryDy=0;" parent="1" edge="1">
          <mxGeometry width="50" height="50" relative="1" as="geometry">
            <mxPoint x="369.72" y="1304.5" as="sourcePoint" />
            <mxPoint x="369.72" y="1287.5" as="targetPoint" />
          </mxGeometry>
        </mxCell>
        <mxCell id="X5AMhHzkb54LyGPV_iVm-206" style="edgeStyle=orthogonalEdgeStyle;rounded=0;orthogonalLoop=1;jettySize=auto;html=1;endSize=3;startSize=3;exitX=0.5;exitY=0;exitDx=0;exitDy=0;" parent="1" edge="1">
          <mxGeometry relative="1" as="geometry">
            <mxPoint x="370.0000000000002" y="1482" as="sourcePoint" />
            <mxPoint x="369.8800000000001" y="1467" as="targetPoint" />
          </mxGeometry>
        </mxCell>
        <mxCell id="X5AMhHzkb54LyGPV_iVm-208" style="edgeStyle=orthogonalEdgeStyle;rounded=0;orthogonalLoop=1;jettySize=auto;html=1;entryX=0.5;entryY=1;entryDx=0;entryDy=0;endSize=3;startSize=3;" parent="1" edge="1">
          <mxGeometry relative="1" as="geometry">
            <mxPoint x="369.0000000000002" y="1536" as="sourcePoint" />
            <mxPoint x="369.0000000000002" y="1520" as="targetPoint" />
          </mxGeometry>
        </mxCell>
        <mxCell id="X5AMhHzkb54LyGPV_iVm-210" value="&lt;span&gt;Feed Forward&lt;/span&gt;" style="rounded=1;whiteSpace=wrap;html=1;fillColor=#D5E8D4;strokeColor=#82b366;" parent="1" vertex="1">
          <mxGeometry x="123" y="1412.5" width="110" height="20" as="geometry" />
        </mxCell>
        <mxCell id="X5AMhHzkb54LyGPV_iVm-211" value="" style="edgeStyle=orthogonalEdgeStyle;rounded=0;jumpSize=3;orthogonalLoop=1;jettySize=auto;html=1;fontSize=4;startArrow=none;startFill=0;endArrow=none;endFill=0;startSize=3;endSize=3;" parent="1" source="X5AMhHzkb54LyGPV_iVm-212" target="X5AMhHzkb54LyGPV_iVm-228" edge="1">
          <mxGeometry relative="1" as="geometry" />
        </mxCell>
        <mxCell id="X5AMhHzkb54LyGPV_iVm-212" value="Multi-Head &lt;br&gt;Attention" style="rounded=1;whiteSpace=wrap;html=1;fillColor=#ffff88;strokeColor=#FF0000;dashed=1;strokeWidth=2;" parent="1" vertex="1">
          <mxGeometry x="507" y="1449" width="110" height="50" as="geometry" />
        </mxCell>
        <mxCell id="X5AMhHzkb54LyGPV_iVm-213" style="edgeStyle=orthogonalEdgeStyle;rounded=0;orthogonalLoop=1;jettySize=auto;html=1;exitX=0.5;exitY=0;exitDx=0;exitDy=0;entryX=0.5;entryY=1;entryDx=0;entryDy=0;endSize=3;startSize=3;" parent="1" target="X5AMhHzkb54LyGPV_iVm-212" edge="1">
          <mxGeometry relative="1" as="geometry">
            <mxPoint x="562" y="1516" as="sourcePoint" />
          </mxGeometry>
        </mxCell>
        <mxCell id="X5AMhHzkb54LyGPV_iVm-214" value="" style="endArrow=classic;startArrow=classic;html=1;rounded=1;jumpSize=3;fontSize=5;endSize=3;startSize=3;" parent="1" edge="1">
          <mxGeometry width="50" height="50" relative="1" as="geometry">
            <mxPoint x="523.9999999999998" y="1499" as="sourcePoint" />
            <mxPoint x="543.9999999999998" y="1499" as="targetPoint" />
            <Array as="points">
              <mxPoint x="524" y="1509" />
              <mxPoint x="544" y="1509" />
            </Array>
          </mxGeometry>
        </mxCell>
        <mxCell id="X5AMhHzkb54LyGPV_iVm-215" value="" style="endArrow=classic;html=1;rounded=0;fontSize=4;startSize=3;endSize=3;jumpSize=3;exitX=0.5;exitY=0;exitDx=0;exitDy=0;entryX=0.5;entryY=1;entryDx=0;entryDy=0;" parent="1" edge="1">
          <mxGeometry width="50" height="50" relative="1" as="geometry">
            <mxPoint x="562" y="1410" as="sourcePoint" />
            <mxPoint x="562" y="1395" as="targetPoint" />
          </mxGeometry>
        </mxCell>
        <mxCell id="X5AMhHzkb54LyGPV_iVm-216" value="&lt;span&gt;Feed Forward&lt;/span&gt;" style="rounded=1;whiteSpace=wrap;html=1;fillColor=#D5E8D4;" parent="1" vertex="1">
          <mxGeometry x="507" y="1348.5" width="110" height="20" as="geometry" />
        </mxCell>
        <mxCell id="X5AMhHzkb54LyGPV_iVm-217" value="Masked Multi-Head &lt;br&gt;Attention" style="rounded=1;whiteSpace=wrap;html=1;fillColor=#FFFF99;" parent="1" vertex="1">
          <mxGeometry x="507" y="1516" width="110" height="50" as="geometry" />
        </mxCell>
        <mxCell id="X5AMhHzkb54LyGPV_iVm-218" style="edgeStyle=orthogonalEdgeStyle;rounded=0;orthogonalLoop=1;jettySize=auto;html=1;exitX=0.5;exitY=0;exitDx=0;exitDy=0;entryX=0.5;entryY=1;entryDx=0;entryDy=0;endSize=3;startSize=3;" parent="1" target="X5AMhHzkb54LyGPV_iVm-217" edge="1">
          <mxGeometry relative="1" as="geometry">
            <mxPoint x="562" y="1589" as="sourcePoint" />
          </mxGeometry>
        </mxCell>
        <mxCell id="X5AMhHzkb54LyGPV_iVm-220" value="" style="endArrow=classic;startArrow=classic;html=1;rounded=1;jumpSize=3;fontSize=5;endSize=3;startSize=3;" parent="1" edge="1">
          <mxGeometry width="50" height="50" relative="1" as="geometry">
            <mxPoint x="543" y="1566" as="sourcePoint" />
            <mxPoint x="583" y="1566" as="targetPoint" />
            <Array as="points">
              <mxPoint x="543" y="1576" />
              <mxPoint x="563" y="1576" />
              <mxPoint x="583" y="1576" />
            </Array>
          </mxGeometry>
        </mxCell>
        <mxCell id="X5AMhHzkb54LyGPV_iVm-221" style="edgeStyle=orthogonalEdgeStyle;rounded=0;orthogonalLoop=1;jettySize=auto;html=1;entryX=0.5;entryY=1;entryDx=0;entryDy=0;endSize=3;startSize=3;" parent="1" edge="1">
          <mxGeometry relative="1" as="geometry">
            <mxPoint x="561.5999999999999" y="1382" as="sourcePoint" />
            <mxPoint x="561.5999999999999" y="1368" as="targetPoint" />
            <Array as="points">
              <mxPoint x="561.6" y="1382" />
            </Array>
          </mxGeometry>
        </mxCell>
        <mxCell id="X5AMhHzkb54LyGPV_iVm-222" style="edgeStyle=orthogonalEdgeStyle;rounded=1;orthogonalLoop=1;jettySize=auto;html=1;endSize=3;startSize=3;" parent="1" edge="1">
          <mxGeometry relative="1" as="geometry">
            <mxPoint x="369" y="1269" as="sourcePoint" />
            <mxPoint x="507" y="1244" as="targetPoint" />
            <Array as="points">
              <mxPoint x="369" y="1244" />
            </Array>
          </mxGeometry>
        </mxCell>
        <mxCell id="X5AMhHzkb54LyGPV_iVm-223" style="edgeStyle=orthogonalEdgeStyle;rounded=0;orthogonalLoop=1;jettySize=auto;html=1;endSize=3;startSize=3;entryX=0.5;entryY=1;entryDx=0;entryDy=0;" parent="1" target="X5AMhHzkb54LyGPV_iVm-198" edge="1">
          <mxGeometry relative="1" as="geometry">
            <mxPoint x="561" y="1306" as="sourcePoint" />
            <mxPoint x="561" y="1291.5" as="targetPoint" />
          </mxGeometry>
        </mxCell>
        <mxCell id="X5AMhHzkb54LyGPV_iVm-224" style="edgeStyle=orthogonalEdgeStyle;rounded=0;orthogonalLoop=1;jettySize=auto;html=1;exitX=0.5;exitY=0;exitDx=0;exitDy=0;endSize=3;startSize=3;" parent="1" edge="1">
          <mxGeometry relative="1" as="geometry">
            <mxPoint x="561.6000000000001" y="1237" as="sourcePoint" />
            <mxPoint x="561" y="1218" as="targetPoint" />
          </mxGeometry>
        </mxCell>
        <mxCell id="X5AMhHzkb54LyGPV_iVm-225" value="" style="endArrow=classic;html=1;rounded=1;fontSize=4;startSize=3;endSize=3;jumpSize=3;entryX=-0.006;entryY=0.331;entryDx=0;entryDy=0;entryPerimeter=0;" parent="1" target="X5AMhHzkb54LyGPV_iVm-199" edge="1">
          <mxGeometry width="50" height="50" relative="1" as="geometry">
            <mxPoint x="180" y="1404" as="sourcePoint" />
            <mxPoint x="320" y="1319" as="targetPoint" />
            <Array as="points">
              <mxPoint x="180" y="1319" />
            </Array>
          </mxGeometry>
        </mxCell>
        <mxCell id="X5AMhHzkb54LyGPV_iVm-226" value="" style="endArrow=classic;html=1;rounded=0;fontSize=4;startSize=3;endSize=3;jumpSize=3;entryX=1;entryY=0.75;entryDx=0;entryDy=0;" parent="1" target="X5AMhHzkb54LyGPV_iVm-199" edge="1">
          <mxGeometry width="50" height="50" relative="1" as="geometry">
            <mxPoint x="562" y="1336" as="sourcePoint" />
            <mxPoint x="450" y="1345" as="targetPoint" />
          </mxGeometry>
        </mxCell>
        <mxCell id="X5AMhHzkb54LyGPV_iVm-228" value="Multi-Head &lt;br&gt;Attention" style="rounded=1;whiteSpace=wrap;html=1;fillColor=#FFFF99;" parent="1" vertex="1">
          <mxGeometry x="507" y="1381" width="110" height="50" as="geometry" />
        </mxCell>
        <mxCell id="X5AMhHzkb54LyGPV_iVm-229" value="" style="edgeStyle=orthogonalEdgeStyle;rounded=0;jumpSize=3;orthogonalLoop=1;jettySize=auto;html=1;fontSize=4;startArrow=none;startFill=0;endArrow=none;endFill=0;startSize=3;endSize=3;" parent="1" edge="1">
          <mxGeometry relative="1" as="geometry">
            <mxPoint x="371" y="1401" as="sourcePoint" />
            <mxPoint x="543" y="1441" as="targetPoint" />
            <Array as="points">
              <mxPoint x="498" y="1401" />
              <mxPoint x="498" y="1441" />
            </Array>
          </mxGeometry>
        </mxCell>
        <mxCell id="X5AMhHzkb54LyGPV_iVm-230" style="edgeStyle=orthogonalEdgeStyle;rounded=0;orthogonalLoop=1;jettySize=auto;html=1;endSize=3;startSize=3;entryX=0.5;entryY=1;entryDx=0;entryDy=0;" parent="1" target="X5AMhHzkb54LyGPV_iVm-228" edge="1">
          <mxGeometry relative="1" as="geometry">
            <mxPoint x="561.6199999999999" y="1449" as="sourcePoint" />
            <mxPoint x="562" y="1434" as="targetPoint" />
          </mxGeometry>
        </mxCell>
        <mxCell id="X5AMhHzkb54LyGPV_iVm-231" value="" style="endArrow=classic;startArrow=classic;html=1;rounded=1;jumpSize=3;fontSize=5;endSize=3;startSize=3;" parent="1" edge="1">
          <mxGeometry width="50" height="50" relative="1" as="geometry">
            <mxPoint x="523.9999999999998" y="1431" as="sourcePoint" />
            <mxPoint x="543.9999999999998" y="1431" as="targetPoint" />
            <Array as="points">
              <mxPoint x="524" y="1441" />
              <mxPoint x="544" y="1441" />
            </Array>
          </mxGeometry>
        </mxCell>
        <mxCell id="X5AMhHzkb54LyGPV_iVm-232" value="Fig. 1. The overall architecture of our proposed model (best viewed in color). For simplicity, we omit the positional encoding, add &amp;amp; norm modules." style="text;whiteSpace=wrap;html=1;fontSize=4;" parent="1" vertex="1">
          <mxGeometry x="181" y="1682" width="425" height="19" as="geometry" />
        </mxCell>
        <mxCell id="X5AMhHzkb54LyGPV_iVm-234" value="" style="endArrow=classic;html=1;rounded=0;fontSize=4;startSize=3;endSize=3;jumpSize=3;entryX=1;entryY=0.75;entryDx=0;entryDy=0;" parent="1" edge="1">
          <mxGeometry width="50" height="50" relative="1" as="geometry">
            <mxPoint x="440" y="1459" as="sourcePoint" />
            <mxPoint x="425" y="1459" as="targetPoint" />
          </mxGeometry>
        </mxCell>
        <mxCell id="X5AMhHzkb54LyGPV_iVm-235" value="Multi-Head &lt;br&gt;Attention" style="rounded=1;whiteSpace=wrap;html=1;fillColor=#ffff88;strokeColor=#FF3333;strokeWidth=2;dashed=1;" parent="1" vertex="1">
          <mxGeometry x="123" y="1446" width="110" height="50" as="geometry" />
        </mxCell>
        <mxCell id="X5AMhHzkb54LyGPV_iVm-237" value="" style="endArrow=classic;startArrow=classic;html=1;rounded=1;jumpSize=3;fontSize=5;endSize=3;startSize=3;" parent="1" edge="1">
          <mxGeometry width="50" height="50" relative="1" as="geometry">
            <mxPoint x="190" y="1496.0000000000002" as="sourcePoint" />
            <mxPoint x="210" y="1496" as="targetPoint" />
            <Array as="points">
              <mxPoint x="190" y="1506" />
              <mxPoint x="210" y="1506" />
            </Array>
          </mxGeometry>
        </mxCell>
        <mxCell id="X5AMhHzkb54LyGPV_iVm-239" value="" style="endArrow=classic;html=1;rounded=0;fontSize=4;startSize=3;endSize=3;jumpSize=3;" parent="1" edge="1">
          <mxGeometry width="50" height="50" relative="1" as="geometry">
            <mxPoint x="178" y="1516" as="sourcePoint" />
            <mxPoint x="178" y="1496" as="targetPoint" />
          </mxGeometry>
        </mxCell>
        <mxCell id="X5AMhHzkb54LyGPV_iVm-242" value="" style="endArrow=none;html=1;rounded=0;fontSize=4;startSize=3;endSize=3;jumpSize=3;entryX=-0.006;entryY=0.569;entryDx=0;entryDy=0;entryPerimeter=0;" parent="1" edge="1">
          <mxGeometry width="50" height="50" relative="1" as="geometry">
            <mxPoint x="205" y="1506" as="sourcePoint" />
            <mxPoint x="314.34" y="1505.8979999999997" as="targetPoint" />
          </mxGeometry>
        </mxCell>
        <mxCell id="X5AMhHzkb54LyGPV_iVm-244" value="" style="edgeStyle=orthogonalEdgeStyle;rounded=0;jumpSize=3;orthogonalLoop=1;jettySize=auto;html=1;fontSize=4;startArrow=none;startFill=0;endArrow=none;endFill=0;startSize=3;endSize=3;" parent="1" edge="1">
          <mxGeometry relative="1" as="geometry">
            <mxPoint x="180" y="1412.0000000000002" as="sourcePoint" />
            <mxPoint x="371" y="1401" as="targetPoint" />
            <Array as="points">
              <mxPoint x="180" y="1401" />
            </Array>
          </mxGeometry>
        </mxCell>
        <mxCell id="X5AMhHzkb54LyGPV_iVm-245" value="&lt;span style=&quot;color: rgb(0, 0, 0); font-family: helvetica; font-size: 12px; font-style: normal; letter-spacing: normal; text-align: center; text-indent: 0px; text-transform: none; word-spacing: 0px; background-color: rgb(248, 249, 250); display: inline; float: none;&quot;&gt;&lt;b&gt;Encoder&lt;/b&gt;&lt;/span&gt;" style="text;whiteSpace=wrap;html=1;fontSize=4;" parent="1" vertex="1">
          <mxGeometry x="104.0047619047618" y="1381.000476190476" width="65" height="19" as="geometry" />
        </mxCell>
        <mxCell id="X5AMhHzkb54LyGPV_iVm-246" value="&lt;span style=&quot;color: rgb(0, 0, 0); font-family: helvetica; font-size: 12px; font-style: normal; letter-spacing: normal; text-align: center; text-indent: 0px; text-transform: none; word-spacing: 0px; background-color: rgb(248, 249, 250); display: inline; float: none;&quot;&gt;&lt;b&gt;Decoder&lt;/b&gt;&lt;/span&gt;" style="text;whiteSpace=wrap;html=1;fontSize=4;" parent="1" vertex="1">
          <mxGeometry x="608.0047619047618" y="1321.000476190476" width="65" height="19" as="geometry" />
        </mxCell>
        <mxCell id="MiqbiLdm5wuMEh4iLNZL-1" value="" style="rounded=1;whiteSpace=wrap;html=1;fontSize=4;dashed=1;fillColor=#99FF99;strokeColor=#b85450;fillOpacity=100;strokeOpacity=100;" parent="1" vertex="1">
          <mxGeometry x="330" y="164" width="132" height="134" as="geometry" />
        </mxCell>
        <mxCell id="MiqbiLdm5wuMEh4iLNZL-2" value="" style="edgeStyle=orthogonalEdgeStyle;rounded=0;jumpSize=3;orthogonalLoop=1;jettySize=auto;html=1;fontSize=4;startArrow=none;startFill=0;endArrow=none;endFill=0;startSize=3;endSize=3;" parent="1" source="MiqbiLdm5wuMEh4iLNZL-3" target="MiqbiLdm5wuMEh4iLNZL-52" edge="1">
          <mxGeometry relative="1" as="geometry" />
        </mxCell>
        <mxCell id="MiqbiLdm5wuMEh4iLNZL-3" value="多头注意力" style="rounded=1;whiteSpace=wrap;html=1;" parent="1" vertex="1">
          <mxGeometry x="148" y="422" width="110" height="50" as="geometry" />
        </mxCell>
        <mxCell id="MiqbiLdm5wuMEh4iLNZL-4" style="edgeStyle=orthogonalEdgeStyle;rounded=0;orthogonalLoop=1;jettySize=auto;html=1;exitX=0.5;exitY=0;exitDx=0;exitDy=0;entryX=0.5;entryY=1;entryDx=0;entryDy=0;endSize=3;startSize=3;" parent="1" source="MiqbiLdm5wuMEh4iLNZL-5" target="MiqbiLdm5wuMEh4iLNZL-3" edge="1">
          <mxGeometry relative="1" as="geometry" />
        </mxCell>
        <mxCell id="MiqbiLdm5wuMEh4iLNZL-5" value="日文词嵌入" style="rounded=1;whiteSpace=wrap;html=1;" parent="1" vertex="1">
          <mxGeometry x="148" y="495" width="110" height="20" as="geometry" />
        </mxCell>
        <mxCell id="MiqbiLdm5wuMEh4iLNZL-6" value="短语对匹配" style="rounded=1;whiteSpace=wrap;html=1;fillColor=#eeeeee;strokeColor=#36393d;" parent="1" vertex="1">
          <mxGeometry x="340" y="442" width="110" height="30" as="geometry" />
        </mxCell>
        <mxCell id="MiqbiLdm5wuMEh4iLNZL-7" value="" style="endArrow=classic;startArrow=classic;html=1;rounded=0;jumpSize=3;fontSize=5;endSize=3;startSize=3;" parent="1" edge="1">
          <mxGeometry width="50" height="50" relative="1" as="geometry">
            <mxPoint x="184" y="472" as="sourcePoint" />
            <mxPoint x="224" y="472" as="targetPoint" />
            <Array as="points">
              <mxPoint x="184" y="482" />
              <mxPoint x="204" y="482" />
              <mxPoint x="224" y="482" />
            </Array>
          </mxGeometry>
        </mxCell>
        <mxCell id="MiqbiLdm5wuMEh4iLNZL-8" style="edgeStyle=orthogonalEdgeStyle;rounded=0;orthogonalLoop=1;jettySize=auto;html=1;exitX=0.5;exitY=0;exitDx=0;exitDy=0;entryX=0.5;entryY=1;entryDx=0;entryDy=0;endSize=3;startSize=3;" parent="1" edge="1">
          <mxGeometry relative="1" as="geometry">
            <mxPoint x="586.8600000000001" y="186.5" as="sourcePoint" />
            <mxPoint x="586.8600000000001" y="161.5" as="targetPoint" />
          </mxGeometry>
        </mxCell>
        <mxCell id="MiqbiLdm5wuMEh4iLNZL-9" value="" style="endArrow=classic;html=1;rounded=0;fontSize=4;startSize=3;endSize=3;jumpSize=3;entryX=0.5;entryY=1;entryDx=0;entryDy=0;" parent="1" target="MiqbiLdm5wuMEh4iLNZL-29" edge="1">
          <mxGeometry width="50" height="50" relative="1" as="geometry">
            <mxPoint x="203" y="358" as="sourcePoint" />
            <mxPoint x="203" y="407" as="targetPoint" />
          </mxGeometry>
        </mxCell>
        <mxCell id="MiqbiLdm5wuMEh4iLNZL-10" style="edgeStyle=orthogonalEdgeStyle;rounded=0;orthogonalLoop=1;jettySize=auto;html=1;entryX=0.5;entryY=1;entryDx=0;entryDy=0;endSize=3;startSize=3;exitX=0.5;exitY=0;exitDx=0;exitDy=0;" parent="1" source="MiqbiLdm5wuMEh4iLNZL-26" edge="1">
          <mxGeometry relative="1" as="geometry">
            <mxPoint x="395" y="482.5" as="sourcePoint" />
            <mxPoint x="395.0000000000002" y="472.5" as="targetPoint" />
            <Array as="points" />
          </mxGeometry>
        </mxCell>
        <mxCell id="MiqbiLdm5wuMEh4iLNZL-11" value="" style="rounded=1;whiteSpace=wrap;html=1;fontSize=4;dashed=1;fillColor=none;" parent="1" vertex="1">
          <mxGeometry x="135.4" y="312" width="136" height="176" as="geometry" />
        </mxCell>
        <mxCell id="MiqbiLdm5wuMEh4iLNZL-12" style="edgeStyle=orthogonalEdgeStyle;rounded=0;orthogonalLoop=1;jettySize=auto;html=1;exitX=0.5;exitY=0;exitDx=0;exitDy=0;entryX=0.5;entryY=1;entryDx=0;entryDy=0;endSize=3;startSize=3;" parent="1" target="MiqbiLdm5wuMEh4iLNZL-18" edge="1">
          <mxGeometry relative="1" as="geometry">
            <mxPoint x="587" y="254" as="sourcePoint" />
            <mxPoint x="586.58" y="229" as="targetPoint" />
          </mxGeometry>
        </mxCell>
        <mxCell id="MiqbiLdm5wuMEh4iLNZL-13" value="" style="rounded=1;whiteSpace=wrap;html=1;fontSize=4;dashed=1;fillColor=none;" parent="1" vertex="1">
          <mxGeometry x="517.5" y="248" width="139" height="240" as="geometry" />
        </mxCell>
        <mxCell id="MiqbiLdm5wuMEh4iLNZL-14" value="日文短语编码" style="rounded=1;whiteSpace=wrap;html=1;fillColor=#dae8fc;strokeColor=#6c8ebf;" parent="1" vertex="1">
          <mxGeometry x="340" y="384" width="110" height="42" as="geometry" />
        </mxCell>
        <mxCell id="MiqbiLdm5wuMEh4iLNZL-15" value="" style="edgeStyle=orthogonalEdgeStyle;rounded=0;jumpSize=3;orthogonalLoop=1;jettySize=auto;html=1;fontSize=4;startArrow=none;startFill=0;endArrow=none;endFill=0;startSize=3;endSize=3;entryX=0.337;entryY=1.015;entryDx=0;entryDy=0;entryPerimeter=0;" parent="1" target="MiqbiLdm5wuMEh4iLNZL-31" edge="1">
          <mxGeometry relative="1" as="geometry">
            <mxPoint x="450.5" y="351.5333333333333" as="sourcePoint" />
            <mxPoint x="575" y="415" as="targetPoint" />
            <Array as="points">
              <mxPoint x="495" y="352" />
              <mxPoint x="495" y="415" />
              <mxPoint x="569" y="415" />
            </Array>
          </mxGeometry>
        </mxCell>
        <mxCell id="MiqbiLdm5wuMEh4iLNZL-16" value="中文短语编码" style="rounded=1;whiteSpace=wrap;html=1;fillColor=#dae8fc;strokeColor=#6c8ebf;" parent="1" vertex="1">
          <mxGeometry x="340.5" y="324" width="110" height="45" as="geometry" />
        </mxCell>
        <mxCell id="MiqbiLdm5wuMEh4iLNZL-17" value="" style="endArrow=classic;startArrow=none;html=1;rounded=0;fontSize=4;startSize=3;endSize=3;jumpSize=3;endFill=1;startFill=0;exitX=1.003;exitY=0.412;exitDx=0;exitDy=0;exitPerimeter=0;entryX=1;entryY=0.5;entryDx=0;entryDy=0;" parent="1" source="MiqbiLdm5wuMEh4iLNZL-6" target="MiqbiLdm5wuMEh4iLNZL-23" edge="1">
          <mxGeometry width="50" height="50" relative="1" as="geometry">
            <mxPoint x="450" y="473" as="sourcePoint" />
            <mxPoint x="450" y="214" as="targetPoint" />
            <Array as="points">
              <mxPoint x="465" y="455" />
              <mxPoint x="465" y="280" />
            </Array>
          </mxGeometry>
        </mxCell>
        <mxCell id="MiqbiLdm5wuMEh4iLNZL-18" value="线性映射" style="rounded=1;whiteSpace=wrap;html=1;" parent="1" vertex="1">
          <mxGeometry x="532" y="212" width="110" height="18.5" as="geometry" />
        </mxCell>
        <mxCell id="MiqbiLdm5wuMEh4iLNZL-19" value="Softmax" style="rounded=1;whiteSpace=wrap;html=1;" parent="1" vertex="1">
          <mxGeometry x="532" y="178" width="110" height="18.5" as="geometry" />
        </mxCell>
        <mxCell id="MiqbiLdm5wuMEh4iLNZL-20" value="拷贝网络" style="rounded=1;whiteSpace=wrap;html=1;" parent="1" vertex="1">
          <mxGeometry x="341" y="211" width="110" height="41" as="geometry" />
        </mxCell>
        <mxCell id="MiqbiLdm5wuMEh4iLNZL-21" value="Softmax" style="rounded=1;whiteSpace=wrap;html=1;" parent="1" vertex="1">
          <mxGeometry x="341" y="175" width="110" height="18.5" as="geometry" />
        </mxCell>
        <mxCell id="MiqbiLdm5wuMEh4iLNZL-22" value="输出概率" style="rounded=1;whiteSpace=wrap;html=1;" parent="1" vertex="1">
          <mxGeometry x="532" y="143" width="110" height="18.5" as="geometry" />
        </mxCell>
        <mxCell id="MiqbiLdm5wuMEh4iLNZL-23" value="词语记忆" style="rounded=1;whiteSpace=wrap;html=1;" parent="1" vertex="1">
          <mxGeometry x="341" y="269" width="110" height="22" as="geometry" />
        </mxCell>
        <mxCell id="MiqbiLdm5wuMEh4iLNZL-24" value="" style="endArrow=classic;html=1;rounded=0;fontSize=4;startSize=3;endSize=3;jumpSize=3;entryX=0.5;entryY=1;entryDx=0;entryDy=0;" parent="1" edge="1">
          <mxGeometry width="50" height="50" relative="1" as="geometry">
            <mxPoint x="394.8599999999999" y="269" as="sourcePoint" />
            <mxPoint x="394.8599999999999" y="252" as="targetPoint" />
          </mxGeometry>
        </mxCell>
        <mxCell id="MiqbiLdm5wuMEh4iLNZL-25" value="" style="endArrow=classic;html=1;rounded=0;fontSize=4;startSize=3;endSize=3;jumpSize=3;entryX=0.5;entryY=1;entryDx=0;entryDy=0;" parent="1" edge="1">
          <mxGeometry width="50" height="50" relative="1" as="geometry">
            <mxPoint x="394.72" y="210.5" as="sourcePoint" />
            <mxPoint x="394.72" y="193.5" as="targetPoint" />
          </mxGeometry>
        </mxCell>
        <mxCell id="MiqbiLdm5wuMEh4iLNZL-26" value="文节识别" style="rounded=1;whiteSpace=wrap;html=1;fillColor=#eeeeee;strokeColor=#36393d;" parent="1" vertex="1">
          <mxGeometry x="340" y="494" width="110" height="20" as="geometry" />
        </mxCell>
        <mxCell id="MiqbiLdm5wuMEh4iLNZL-27" style="edgeStyle=orthogonalEdgeStyle;rounded=0;orthogonalLoop=1;jettySize=auto;html=1;endSize=3;startSize=3;exitX=0.5;exitY=0;exitDx=0;exitDy=0;" parent="1" edge="1">
          <mxGeometry relative="1" as="geometry">
            <mxPoint x="395.0000000000002" y="384" as="sourcePoint" />
            <mxPoint x="394.8800000000001" y="369" as="targetPoint" />
          </mxGeometry>
        </mxCell>
        <mxCell id="MiqbiLdm5wuMEh4iLNZL-28" style="edgeStyle=orthogonalEdgeStyle;rounded=0;orthogonalLoop=1;jettySize=auto;html=1;entryX=0.5;entryY=1;entryDx=0;entryDy=0;endSize=3;startSize=3;" parent="1" edge="1">
          <mxGeometry relative="1" as="geometry">
            <mxPoint x="394.0000000000002" y="442" as="sourcePoint" />
            <mxPoint x="394.0000000000002" y="426" as="targetPoint" />
          </mxGeometry>
        </mxCell>
        <mxCell id="MiqbiLdm5wuMEh4iLNZL-29" value="前馈网络" style="rounded=1;whiteSpace=wrap;html=1;" parent="1" vertex="1">
          <mxGeometry x="148" y="318.5" width="110" height="20" as="geometry" />
        </mxCell>
        <mxCell id="MiqbiLdm5wuMEh4iLNZL-30" value="" style="edgeStyle=orthogonalEdgeStyle;rounded=0;jumpSize=3;orthogonalLoop=1;jettySize=auto;html=1;fontSize=4;startArrow=none;startFill=0;endArrow=none;endFill=0;startSize=3;endSize=3;" parent="1" source="MiqbiLdm5wuMEh4iLNZL-31" target="MiqbiLdm5wuMEh4iLNZL-47" edge="1">
          <mxGeometry relative="1" as="geometry" />
        </mxCell>
        <mxCell id="MiqbiLdm5wuMEh4iLNZL-31" value="多头注意力" style="rounded=1;whiteSpace=wrap;html=1;fillColor=#ffff88;strokeColor=#36393d;" parent="1" vertex="1">
          <mxGeometry x="532" y="355" width="110" height="50" as="geometry" />
        </mxCell>
        <mxCell id="MiqbiLdm5wuMEh4iLNZL-32" style="edgeStyle=orthogonalEdgeStyle;rounded=0;orthogonalLoop=1;jettySize=auto;html=1;exitX=0.5;exitY=0;exitDx=0;exitDy=0;entryX=0.5;entryY=1;entryDx=0;entryDy=0;endSize=3;startSize=3;" parent="1" target="MiqbiLdm5wuMEh4iLNZL-31" edge="1">
          <mxGeometry relative="1" as="geometry">
            <mxPoint x="587" y="422" as="sourcePoint" />
          </mxGeometry>
        </mxCell>
        <mxCell id="MiqbiLdm5wuMEh4iLNZL-33" value="" style="endArrow=classic;startArrow=classic;html=1;rounded=0;jumpSize=3;fontSize=5;endSize=3;startSize=3;" parent="1" edge="1">
          <mxGeometry width="50" height="50" relative="1" as="geometry">
            <mxPoint x="548.9999999999998" y="405" as="sourcePoint" />
            <mxPoint x="568.9999999999998" y="405" as="targetPoint" />
            <Array as="points">
              <mxPoint x="549" y="415" />
              <mxPoint x="569" y="415" />
            </Array>
          </mxGeometry>
        </mxCell>
        <mxCell id="MiqbiLdm5wuMEh4iLNZL-34" value="" style="endArrow=classic;html=1;rounded=0;fontSize=4;startSize=3;endSize=3;jumpSize=3;exitX=0.5;exitY=0;exitDx=0;exitDy=0;entryX=0.5;entryY=1;entryDx=0;entryDy=0;" parent="1" edge="1">
          <mxGeometry width="50" height="50" relative="1" as="geometry">
            <mxPoint x="587" y="316" as="sourcePoint" />
            <mxPoint x="587" y="301" as="targetPoint" />
          </mxGeometry>
        </mxCell>
        <mxCell id="MiqbiLdm5wuMEh4iLNZL-35" value="&lt;span&gt;前馈网络&lt;/span&gt;" style="rounded=1;whiteSpace=wrap;html=1;" parent="1" vertex="1">
          <mxGeometry x="532" y="254.5" width="110" height="20" as="geometry" />
        </mxCell>
        <mxCell id="MiqbiLdm5wuMEh4iLNZL-36" value="掩码多头注意力" style="rounded=1;whiteSpace=wrap;html=1;" parent="1" vertex="1">
          <mxGeometry x="532" y="422" width="110" height="50" as="geometry" />
        </mxCell>
        <mxCell id="MiqbiLdm5wuMEh4iLNZL-37" style="edgeStyle=orthogonalEdgeStyle;rounded=0;orthogonalLoop=1;jettySize=auto;html=1;exitX=0.5;exitY=0;exitDx=0;exitDy=0;entryX=0.5;entryY=1;entryDx=0;entryDy=0;endSize=3;startSize=3;" parent="1" source="MiqbiLdm5wuMEh4iLNZL-38" target="MiqbiLdm5wuMEh4iLNZL-36" edge="1">
          <mxGeometry relative="1" as="geometry" />
        </mxCell>
        <mxCell id="MiqbiLdm5wuMEh4iLNZL-38" value="中文词嵌入" style="rounded=1;whiteSpace=wrap;html=1;" parent="1" vertex="1">
          <mxGeometry x="532" y="495" width="110" height="20" as="geometry" />
        </mxCell>
        <mxCell id="MiqbiLdm5wuMEh4iLNZL-39" value="" style="endArrow=classic;startArrow=classic;html=1;rounded=0;jumpSize=3;fontSize=5;endSize=3;startSize=3;" parent="1" edge="1">
          <mxGeometry width="50" height="50" relative="1" as="geometry">
            <mxPoint x="568" y="472" as="sourcePoint" />
            <mxPoint x="608" y="472" as="targetPoint" />
            <Array as="points">
              <mxPoint x="568" y="482" />
              <mxPoint x="588" y="482" />
              <mxPoint x="608" y="482" />
            </Array>
          </mxGeometry>
        </mxCell>
        <mxCell id="MiqbiLdm5wuMEh4iLNZL-40" style="edgeStyle=orthogonalEdgeStyle;rounded=0;orthogonalLoop=1;jettySize=auto;html=1;entryX=0.5;entryY=1;entryDx=0;entryDy=0;endSize=3;startSize=3;" parent="1" edge="1">
          <mxGeometry relative="1" as="geometry">
            <mxPoint x="586.5999999999999" y="288" as="sourcePoint" />
            <mxPoint x="586.5999999999999" y="274" as="targetPoint" />
            <Array as="points">
              <mxPoint x="586.6" y="288" />
            </Array>
          </mxGeometry>
        </mxCell>
        <mxCell id="MiqbiLdm5wuMEh4iLNZL-41" style="edgeStyle=orthogonalEdgeStyle;rounded=0;orthogonalLoop=1;jettySize=auto;html=1;endSize=3;startSize=3;" parent="1" edge="1">
          <mxGeometry relative="1" as="geometry">
            <mxPoint x="394" y="175" as="sourcePoint" />
            <mxPoint x="532" y="150" as="targetPoint" />
            <Array as="points">
              <mxPoint x="394" y="150" />
            </Array>
          </mxGeometry>
        </mxCell>
        <mxCell id="MiqbiLdm5wuMEh4iLNZL-42" style="edgeStyle=orthogonalEdgeStyle;rounded=0;orthogonalLoop=1;jettySize=auto;html=1;endSize=3;startSize=3;entryX=0.5;entryY=1;entryDx=0;entryDy=0;" parent="1" target="MiqbiLdm5wuMEh4iLNZL-19" edge="1">
          <mxGeometry relative="1" as="geometry">
            <mxPoint x="586" y="212" as="sourcePoint" />
            <mxPoint x="586" y="197.5" as="targetPoint" />
          </mxGeometry>
        </mxCell>
        <mxCell id="MiqbiLdm5wuMEh4iLNZL-43" style="edgeStyle=orthogonalEdgeStyle;rounded=0;orthogonalLoop=1;jettySize=auto;html=1;exitX=0.5;exitY=0;exitDx=0;exitDy=0;entryX=0.5;entryY=1;entryDx=0;entryDy=0;endSize=3;startSize=3;" parent="1" edge="1">
          <mxGeometry relative="1" as="geometry">
            <mxPoint x="586.6000000000001" y="143" as="sourcePoint" />
            <mxPoint x="586.6000000000001" y="118" as="targetPoint" />
          </mxGeometry>
        </mxCell>
        <mxCell id="MiqbiLdm5wuMEh4iLNZL-45" value="" style="endArrow=classic;html=1;rounded=0;fontSize=4;startSize=3;endSize=3;jumpSize=3;entryX=1;entryY=0.75;entryDx=0;entryDy=0;" parent="1" target="MiqbiLdm5wuMEh4iLNZL-20" edge="1">
          <mxGeometry width="50" height="50" relative="1" as="geometry">
            <mxPoint x="587" y="242" as="sourcePoint" />
            <mxPoint x="475" y="251" as="targetPoint" />
          </mxGeometry>
        </mxCell>
        <mxCell id="MiqbiLdm5wuMEh4iLNZL-47" value="多头注意力" style="rounded=1;whiteSpace=wrap;html=1;" parent="1" vertex="1">
          <mxGeometry x="532" y="287" width="110" height="50" as="geometry" />
        </mxCell>
        <mxCell id="MiqbiLdm5wuMEh4iLNZL-48" value="" style="edgeStyle=orthogonalEdgeStyle;rounded=0;jumpSize=3;orthogonalLoop=1;jettySize=auto;html=1;fontSize=4;startArrow=none;startFill=0;endArrow=none;endFill=0;startSize=3;endSize=3;" parent="1" edge="1">
          <mxGeometry relative="1" as="geometry">
            <mxPoint x="396" y="307" as="sourcePoint" />
            <mxPoint x="568" y="347" as="targetPoint" />
            <Array as="points">
              <mxPoint x="523" y="307" />
              <mxPoint x="523" y="347" />
            </Array>
          </mxGeometry>
        </mxCell>
        <mxCell id="MiqbiLdm5wuMEh4iLNZL-49" style="edgeStyle=orthogonalEdgeStyle;rounded=0;orthogonalLoop=1;jettySize=auto;html=1;endSize=3;startSize=3;entryX=0.5;entryY=1;entryDx=0;entryDy=0;" parent="1" target="MiqbiLdm5wuMEh4iLNZL-47" edge="1">
          <mxGeometry relative="1" as="geometry">
            <mxPoint x="586.6199999999999" y="355" as="sourcePoint" />
            <mxPoint x="587" y="340" as="targetPoint" />
          </mxGeometry>
        </mxCell>
        <mxCell id="MiqbiLdm5wuMEh4iLNZL-50" value="" style="endArrow=classic;startArrow=classic;html=1;rounded=0;jumpSize=3;fontSize=5;endSize=3;startSize=3;" parent="1" edge="1">
          <mxGeometry width="50" height="50" relative="1" as="geometry">
            <mxPoint x="548.9999999999998" y="337" as="sourcePoint" />
            <mxPoint x="568.9999999999998" y="337" as="targetPoint" />
            <Array as="points">
              <mxPoint x="549" y="347" />
              <mxPoint x="569" y="347" />
            </Array>
          </mxGeometry>
        </mxCell>
        <mxCell id="MiqbiLdm5wuMEh4iLNZL-51" value="" style="endArrow=classic;html=1;rounded=0;fontSize=4;startSize=3;endSize=3;jumpSize=3;entryX=1;entryY=0.75;entryDx=0;entryDy=0;" parent="1" edge="1">
          <mxGeometry width="50" height="50" relative="1" as="geometry">
            <mxPoint x="465" y="361" as="sourcePoint" />
            <mxPoint x="450" y="361" as="targetPoint" />
          </mxGeometry>
        </mxCell>
        <mxCell id="MiqbiLdm5wuMEh4iLNZL-52" value="多头注意力" style="rounded=1;whiteSpace=wrap;html=1;fillColor=#ffff88;strokeColor=#36393d;" parent="1" vertex="1">
          <mxGeometry x="148" y="352" width="110" height="50" as="geometry" />
        </mxCell>
        <mxCell id="MiqbiLdm5wuMEh4iLNZL-53" value="" style="endArrow=classic;startArrow=classic;html=1;rounded=0;jumpSize=3;fontSize=5;endSize=3;startSize=3;" parent="1" edge="1">
          <mxGeometry width="50" height="50" relative="1" as="geometry">
            <mxPoint x="215" y="402.0000000000002" as="sourcePoint" />
            <mxPoint x="235" y="402" as="targetPoint" />
            <Array as="points">
              <mxPoint x="215" y="412" />
              <mxPoint x="235" y="412" />
            </Array>
          </mxGeometry>
        </mxCell>
        <mxCell id="MiqbiLdm5wuMEh4iLNZL-54" value="" style="endArrow=classic;html=1;rounded=0;fontSize=4;startSize=3;endSize=3;jumpSize=3;" parent="1" edge="1">
          <mxGeometry width="50" height="50" relative="1" as="geometry">
            <mxPoint x="203" y="422" as="sourcePoint" />
            <mxPoint x="203" y="402" as="targetPoint" />
          </mxGeometry>
        </mxCell>
        <mxCell id="MiqbiLdm5wuMEh4iLNZL-55" value="" style="endArrow=none;html=1;rounded=0;fontSize=4;startSize=3;endSize=3;jumpSize=3;entryX=-0.006;entryY=0.569;entryDx=0;entryDy=0;entryPerimeter=0;" parent="1" edge="1">
          <mxGeometry width="50" height="50" relative="1" as="geometry">
            <mxPoint x="235" y="412" as="sourcePoint" />
            <mxPoint x="339.3399999999999" y="411.8979999999997" as="targetPoint" />
          </mxGeometry>
        </mxCell>
        <mxCell id="MiqbiLdm5wuMEh4iLNZL-56" value="" style="edgeStyle=orthogonalEdgeStyle;rounded=0;jumpSize=3;orthogonalLoop=1;jettySize=auto;html=1;fontSize=4;startArrow=none;startFill=0;endArrow=none;endFill=0;startSize=3;endSize=3;" parent="1" edge="1">
          <mxGeometry relative="1" as="geometry">
            <mxPoint x="205" y="318.0000000000002" as="sourcePoint" />
            <mxPoint x="396" y="307" as="targetPoint" />
            <Array as="points">
              <mxPoint x="205" y="307" />
            </Array>
          </mxGeometry>
        </mxCell>
        <mxCell id="MiqbiLdm5wuMEh4iLNZL-57" value="&lt;div style=&quot;text-align: center;&quot;&gt;&lt;span style=&quot;background-color: initial;&quot;&gt;&lt;font face=&quot;helvetica&quot;&gt;编码器&lt;/font&gt;&lt;/span&gt;&lt;/div&gt;" style="text;whiteSpace=wrap;html=1;fontSize=4;" parent="1" vertex="1">
          <mxGeometry x="129.0047619047618" y="287.0004761904761" width="65" height="19" as="geometry" />
        </mxCell>
        <mxCell id="MiqbiLdm5wuMEh4iLNZL-58" value="&lt;span style=&quot;color: rgb(0 , 0 , 0) ; font-family: &amp;quot;helvetica&amp;quot; ; font-size: 12px ; font-style: normal ; font-weight: 400 ; letter-spacing: normal ; text-align: center ; text-indent: 0px ; text-transform: none ; word-spacing: 0px ; background-color: rgb(248 , 249 , 250) ; display: inline ; float: none&quot;&gt;解码器&lt;/span&gt;" style="text;whiteSpace=wrap;html=1;fontSize=4;" parent="1" vertex="1">
          <mxGeometry x="633.0047619047618" y="227.0004761904761" width="65" height="19" as="geometry" />
        </mxCell>
        <mxCell id="MiqbiLdm5wuMEh4iLNZL-60" style="edgeStyle=orthogonalEdgeStyle;rounded=0;orthogonalLoop=1;jettySize=auto;html=1;entryX=0.5;entryY=1;entryDx=0;entryDy=0;endSize=3;startSize=3;" parent="1" edge="1">
          <mxGeometry relative="1" as="geometry">
            <mxPoint x="586.77" y="532" as="sourcePoint" />
            <mxPoint x="586.7700000000001" y="515" as="targetPoint" />
          </mxGeometry>
        </mxCell>
        <mxCell id="MiqbiLdm5wuMEh4iLNZL-61" style="edgeStyle=orthogonalEdgeStyle;rounded=0;orthogonalLoop=1;jettySize=auto;html=1;entryX=0.5;entryY=1;entryDx=0;entryDy=0;endSize=3;startSize=3;" parent="1" edge="1">
          <mxGeometry relative="1" as="geometry">
            <mxPoint x="201.76999999999998" y="532" as="sourcePoint" />
            <mxPoint x="201.76999999999998" y="515" as="targetPoint" />
          </mxGeometry>
        </mxCell>
        <mxCell id="MiqbiLdm5wuMEh4iLNZL-62" value="&lt;span style=&quot;color: rgb(0, 0, 0); font-family: Helvetica; font-size: 12px; font-style: normal; font-variant-ligatures: normal; font-variant-caps: normal; font-weight: 400; letter-spacing: normal; orphans: 2; text-align: center; text-indent: 0px; text-transform: none; widows: 2; word-spacing: 0px; -webkit-text-stroke-width: 0px; background-color: rgb(248, 249, 250); text-decoration-thickness: initial; text-decoration-style: initial; text-decoration-color: initial; float: none; display: inline !important;&quot;&gt;输入日文词语序列&lt;/span&gt;" style="text;whiteSpace=wrap;html=1;" parent="1" vertex="1">
          <mxGeometry x="148" y="534" width="110.8" height="36" as="geometry" />
        </mxCell>
        <mxCell id="MiqbiLdm5wuMEh4iLNZL-63" value="&lt;span style=&quot;color: rgb(0, 0, 0); font-family: Helvetica; font-size: 12px; font-style: normal; font-variant-ligatures: normal; font-variant-caps: normal; font-weight: 400; letter-spacing: normal; orphans: 2; text-align: center; text-indent: 0px; text-transform: none; widows: 2; word-spacing: 0px; -webkit-text-stroke-width: 0px; background-color: rgb(248, 249, 250); text-decoration-thickness: initial; text-decoration-style: initial; text-decoration-color: initial; float: none; display: inline !important;&quot;&gt;输出中文词语序列&lt;/span&gt;" style="text;whiteSpace=wrap;html=1;" parent="1" vertex="1">
          <mxGeometry x="541" y="534" width="110.8" height="36" as="geometry" />
        </mxCell>
        <mxCell id="MiqbiLdm5wuMEh4iLNZL-64" value="" style="endArrow=classic;startArrow=none;html=1;rounded=0;jumpSize=3;fontSize=5;endSize=3;startSize=3;startFill=0;" parent="1" edge="1">
          <mxGeometry width="50" height="50" relative="1" as="geometry">
            <mxPoint x="202" y="525" as="sourcePoint" />
            <mxPoint x="395" y="515" as="targetPoint" />
            <Array as="points">
              <mxPoint x="355" y="525" />
              <mxPoint x="375" y="525" />
              <mxPoint x="395" y="525" />
            </Array>
          </mxGeometry>
        </mxCell>
        <mxCell id="YxxwiQiscKw8ClJpSAqb-1" value="" style="ellipse;whiteSpace=wrap;html=1;aspect=fixed;" parent="1" vertex="1">
          <mxGeometry x="46" y="1051" width="25" height="25" as="geometry" />
        </mxCell>
        <mxCell id="YxxwiQiscKw8ClJpSAqb-2" value="" style="shape=orEllipse;perimeter=ellipsePerimeter;whiteSpace=wrap;html=1;backgroundOutline=1;" parent="1" vertex="1">
          <mxGeometry x="123" y="1053" width="31" height="31" as="geometry" />
        </mxCell>
        <mxCell id="YxxwiQiscKw8ClJpSAqb-3" style="edgeStyle=orthogonalEdgeStyle;rounded=0;orthogonalLoop=1;jettySize=auto;html=1;entryX=0.5;entryY=1;entryDx=0;entryDy=0;endSize=3;startSize=3;exitX=0.5;exitY=0;exitDx=0;exitDy=0;" parent="1" edge="1">
          <mxGeometry relative="1" as="geometry">
            <mxPoint x="237.5" y="1026.5" as="sourcePoint" />
            <mxPoint x="237.50000000000023" y="1005" as="targetPoint" />
            <Array as="points" />
          </mxGeometry>
        </mxCell>
        <mxCell id="YxxwiQiscKw8ClJpSAqb-4" style="edgeStyle=orthogonalEdgeStyle;rounded=0;orthogonalLoop=1;jettySize=auto;html=1;entryX=0.5;entryY=1;entryDx=0;entryDy=0;endSize=3;startSize=3;exitX=0.5;exitY=0;exitDx=0;exitDy=0;" parent="1" edge="1">
          <mxGeometry relative="1" as="geometry">
            <mxPoint x="621.5" y="1026.5" as="sourcePoint" />
            <mxPoint x="621.5000000000002" y="1005" as="targetPoint" />
            <Array as="points" />
          </mxGeometry>
        </mxCell>
        <mxCell id="YxxwiQiscKw8ClJpSAqb-5" value="&lt;span style=&quot;color: rgb(0, 0, 0); font-family: Helvetica; font-size: 12px; font-style: normal; font-variant-ligatures: normal; font-variant-caps: normal; font-weight: 400; letter-spacing: normal; orphans: 2; text-align: center; text-indent: 0px; text-transform: none; widows: 2; word-spacing: 0px; -webkit-text-stroke-width: 0px; background-color: rgb(248, 249, 250); text-decoration-thickness: initial; text-decoration-style: initial; text-decoration-color: initial; float: none; display: inline !important;&quot;&gt;Source Tokens&lt;/span&gt;" style="text;whiteSpace=wrap;html=1;" parent="1" vertex="1">
          <mxGeometry x="194" y="1024" width="89.6" height="27" as="geometry" />
        </mxCell>
        <mxCell id="YxxwiQiscKw8ClJpSAqb-7" value="&lt;span style=&quot;color: rgb(0, 0, 0); font-family: Helvetica; font-size: 12px; font-style: normal; font-variant-ligatures: normal; font-variant-caps: normal; font-weight: 400; letter-spacing: normal; orphans: 2; text-align: center; text-indent: 0px; text-transform: none; widows: 2; word-spacing: 0px; -webkit-text-stroke-width: 0px; background-color: rgb(248, 249, 250); text-decoration-thickness: initial; text-decoration-style: initial; text-decoration-color: initial; float: none; display: inline !important;&quot;&gt;Target Tokens&lt;br&gt;(Shifted Right)&lt;br&gt;&lt;/span&gt;" style="text;whiteSpace=wrap;html=1;" parent="1" vertex="1">
          <mxGeometry x="583.4" y="1026" width="89.6" height="27" as="geometry" />
        </mxCell>
        <mxCell id="YxxwiQiscKw8ClJpSAqb-8" value="Input Embed" style="rounded=1;whiteSpace=wrap;html=1;fillColor=#FFB366;" parent="1" vertex="1">
          <mxGeometry x="123" y="1589" width="110" height="20" as="geometry" />
        </mxCell>
        <mxCell id="YxxwiQiscKw8ClJpSAqb-9" value="Phrase Partition" style="rounded=1;whiteSpace=wrap;html=1;fillColor=#EBF3FF;" parent="1" vertex="1">
          <mxGeometry x="315" y="1588" width="110" height="20" as="geometry" />
        </mxCell>
        <mxCell id="YxxwiQiscKw8ClJpSAqb-10" value="Output Embed" style="rounded=1;whiteSpace=wrap;html=1;fillColor=#FFB366;" parent="1" vertex="1">
          <mxGeometry x="507" y="1589" width="110" height="20" as="geometry" />
        </mxCell>
        <mxCell id="YxxwiQiscKw8ClJpSAqb-11" value="" style="endArrow=classic;html=1;rounded=1;fontSize=4;startSize=3;endSize=3;jumpSize=3;" parent="1" target="YxxwiQiscKw8ClJpSAqb-9" edge="1">
          <mxGeometry width="50" height="50" relative="1" as="geometry">
            <mxPoint x="177" y="1622" as="sourcePoint" />
            <mxPoint x="315" y="1597" as="targetPoint" />
            <Array as="points">
              <mxPoint x="370" y="1622" />
            </Array>
          </mxGeometry>
        </mxCell>
        <mxCell id="YxxwiQiscKw8ClJpSAqb-12" value="" style="shape=orEllipse;perimeter=ellipsePerimeter;whiteSpace=wrap;html=1;backgroundOutline=1;" parent="1" vertex="1">
          <mxGeometry x="84" y="1757" width="31" height="31" as="geometry" />
        </mxCell>
        <mxCell id="YxxwiQiscKw8ClJpSAqb-13" style="edgeStyle=orthogonalEdgeStyle;rounded=0;orthogonalLoop=1;jettySize=auto;html=1;entryX=0.5;entryY=1;entryDx=0;entryDy=0;endSize=3;startSize=3;exitX=0.5;exitY=0;exitDx=0;exitDy=0;" parent="1" edge="1">
          <mxGeometry relative="1" as="geometry">
            <mxPoint x="177.5" y="1630.5" as="sourcePoint" />
            <mxPoint x="177.50000000000023" y="1609" as="targetPoint" />
            <Array as="points" />
          </mxGeometry>
        </mxCell>
        <mxCell id="YxxwiQiscKw8ClJpSAqb-14" style="edgeStyle=orthogonalEdgeStyle;rounded=0;orthogonalLoop=1;jettySize=auto;html=1;entryX=0.5;entryY=1;entryDx=0;entryDy=0;endSize=3;startSize=3;exitX=0.5;exitY=0;exitDx=0;exitDy=0;" parent="1" edge="1">
          <mxGeometry relative="1" as="geometry">
            <mxPoint x="561.5" y="1630.5" as="sourcePoint" />
            <mxPoint x="561.5000000000002" y="1609" as="targetPoint" />
            <Array as="points" />
          </mxGeometry>
        </mxCell>
        <mxCell id="YxxwiQiscKw8ClJpSAqb-15" value="&lt;span style=&quot;color: rgb(0, 0, 0); font-family: Helvetica; font-size: 12px; font-style: normal; font-variant-ligatures: normal; font-variant-caps: normal; font-weight: 400; letter-spacing: normal; orphans: 2; text-align: center; text-indent: 0px; text-transform: none; widows: 2; word-spacing: 0px; -webkit-text-stroke-width: 0px; background-color: rgb(248, 249, 250); text-decoration-thickness: initial; text-decoration-style: initial; text-decoration-color: initial; float: none; display: inline !important;&quot;&gt;Source Tokens&lt;/span&gt;" style="text;whiteSpace=wrap;html=1;" parent="1" vertex="1">
          <mxGeometry x="134" y="1628" width="89.6" height="27" as="geometry" />
        </mxCell>
        <mxCell id="YxxwiQiscKw8ClJpSAqb-16" value="&lt;span style=&quot;color: rgb(0, 0, 0); font-family: Helvetica; font-size: 12px; font-style: normal; font-variant-ligatures: normal; font-variant-caps: normal; font-weight: 400; letter-spacing: normal; orphans: 2; text-align: center; text-indent: 0px; text-transform: none; widows: 2; word-spacing: 0px; -webkit-text-stroke-width: 0px; background-color: rgb(248, 249, 250); text-decoration-thickness: initial; text-decoration-style: initial; text-decoration-color: initial; float: none; display: inline !important;&quot;&gt;Target Tokens&lt;br&gt;(Shifted Right)&lt;br&gt;&lt;/span&gt;" style="text;whiteSpace=wrap;html=1;" parent="1" vertex="1">
          <mxGeometry x="523.4" y="1626" width="89.6" height="27" as="geometry" />
        </mxCell>
        <mxCell id="ptX2DU8aKGZaoR_pnGZ3-2" value="&lt;pre style=&quot;text-align: left; box-sizing: border-box; overflow: auto; font-size: 14px; padding: 1px 0px; margin-top: 0px; margin-bottom: 0px; line-height: inherit; word-break: break-all; overflow-wrap: break-word; background-color: rgb(255, 255, 255); border: 0px; border-radius: 0px; vertical-align: baseline;&quot;&gt;植物&lt;/pre&gt;" style="rounded=1;whiteSpace=wrap;html=1;" parent="1" vertex="1">
          <mxGeometry x="365.6" y="1730" width="47" height="27" as="geometry" />
        </mxCell>
        <mxCell id="ptX2DU8aKGZaoR_pnGZ3-4" value="&lt;pre style=&quot;text-align: left; box-sizing: border-box; overflow: auto; font-size: 14px; padding: 1px 0px; margin-top: 0px; margin-bottom: 0px; line-height: inherit; word-break: break-all; overflow-wrap: break-word; background-color: rgb(255, 255, 255); border: 0px; border-radius: 0px; vertical-align: baseline;&quot;&gt;&lt;pre style=&quot;box-sizing: border-box; overflow: auto; padding: 1px 0px; margin-top: 0px; margin-bottom: 0px; line-height: inherit; word-break: break-all; overflow-wrap: break-word; border: 0px; border-radius: 0px; vertical-align: baseline;&quot;&gt;育成&lt;/pre&gt;&lt;/pre&gt;" style="rounded=1;whiteSpace=wrap;html=1;" parent="1" vertex="1">
          <mxGeometry x="382.20000000000005" y="1730" width="47" height="27" as="geometry" />
        </mxCell>
        <mxCell id="ptX2DU8aKGZaoR_pnGZ3-5" value="&lt;pre style=&quot;text-align: left; box-sizing: border-box; overflow: auto; font-size: 14px; padding: 1px 0px; margin-top: 0px; margin-bottom: 0px; line-height: inherit; word-break: break-all; overflow-wrap: break-word; background-color: rgb(255, 255, 255); border: 0px; border-radius: 0px; vertical-align: baseline;&quot;&gt;&lt;pre style=&quot;box-sizing: border-box; overflow: auto; padding: 1px 0px; margin-top: 0px; margin-bottom: 0px; line-height: inherit; word-break: break-all; overflow-wrap: break-word; border: 0px; border-radius: 0px; vertical-align: baseline;&quot;&gt;の&lt;/pre&gt;&lt;/pre&gt;" style="rounded=1;whiteSpace=wrap;html=1;" parent="1" vertex="1">
          <mxGeometry x="433.20000000000005" y="1730" width="33.4" height="27" as="geometry" />
        </mxCell>
        <mxCell id="ptX2DU8aKGZaoR_pnGZ3-6" value="&lt;pre style=&quot;text-align: left; box-sizing: border-box; overflow: auto; font-size: 14px; padding: 1px 0px; margin-top: 0px; margin-bottom: 0px; line-height: inherit; word-break: break-all; overflow-wrap: break-word; background-color: rgb(255, 255, 255); border: 0px; border-radius: 0px; vertical-align: baseline;&quot;&gt;&lt;pre style=&quot;box-sizing: border-box; overflow: auto; padding: 1px 0px; margin-top: 0px; margin-bottom: 0px; line-height: inherit; word-break: break-all; overflow-wrap: break-word; border: 0px; border-radius: 0px; vertical-align: baseline;&quot;&gt;から&lt;/pre&gt;&lt;/pre&gt;" style="rounded=1;whiteSpace=wrap;html=1;" parent="1" vertex="1">
          <mxGeometry x="564" y="1730" width="47" height="27" as="geometry" />
        </mxCell>
        <mxCell id="ptX2DU8aKGZaoR_pnGZ3-7" value="&lt;pre style=&quot;text-align: left; box-sizing: border-box; overflow: auto; font-size: 14px; padding: 1px 0px; margin-top: 0px; margin-bottom: 0px; line-height: inherit; word-break: break-all; overflow-wrap: break-word; background-color: rgb(255, 255, 255); border: 0px; border-radius: 0px; vertical-align: baseline;&quot;&gt;&lt;pre style=&quot;box-sizing: border-box; overflow: auto; padding: 1px 0px; margin-top: 0px; margin-bottom: 0px; line-height: inherit; word-break: break-all; overflow-wrap: break-word; border: 0px; border-radius: 0px; vertical-align: baseline;&quot;&gt;多様&lt;/pre&gt;&lt;/pre&gt;" style="rounded=1;whiteSpace=wrap;html=1;" parent="1" vertex="1">
          <mxGeometry x="476.6" y="1730" width="47" height="27" as="geometry" />
        </mxCell>
        <mxCell id="ptX2DU8aKGZaoR_pnGZ3-8" value="&lt;pre style=&quot;text-align: left; box-sizing: border-box; overflow: auto; font-size: 14px; padding: 1px 0px; margin-top: 0px; margin-bottom: 0px; line-height: inherit; word-break: break-all; overflow-wrap: break-word; background-color: rgb(255, 255, 255); border: 0px; border-radius: 0px; vertical-align: baseline;&quot;&gt;&lt;pre style=&quot;box-sizing: border-box; overflow: auto; padding: 1px 0px; margin-top: 0px; margin-bottom: 0px; line-height: inherit; word-break: break-all; overflow-wrap: break-word; border: 0px; border-radius: 0px; vertical-align: baseline;&quot;&gt;性&lt;/pre&gt;&lt;/pre&gt;" style="rounded=1;whiteSpace=wrap;html=1;" parent="1" vertex="1">
          <mxGeometry x="526.6" y="1730" width="33.4" height="27" as="geometry" />
        </mxCell>
        <mxCell id="ptX2DU8aKGZaoR_pnGZ3-9" value="&lt;pre style=&quot;text-align: left; box-sizing: border-box; overflow: auto; font-size: 14px; padding: 1px 0px; margin-top: 0px; margin-bottom: 0px; line-height: inherit; word-break: break-all; overflow-wrap: break-word; background-color: rgb(255, 255, 255); border: 0px; border-radius: 0px; vertical-align: baseline;&quot;&gt;&lt;pre style=&quot;box-sizing: border-box; overflow: auto; padding: 1px 0px; margin-top: 0px; margin-bottom: 0px; line-height: inherit; word-break: break-all; overflow-wrap: break-word; border: 0px; border-radius: 0px; vertical-align: baseline;&quot;&gt;経験 と&lt;/pre&gt;&lt;/pre&gt;" style="rounded=1;whiteSpace=wrap;html=1;" parent="1" vertex="1">
          <mxGeometry x="244" y="2159" width="81" height="27" as="geometry" />
        </mxCell>
        <mxCell id="ptX2DU8aKGZaoR_pnGZ3-11" value="&lt;pre style=&quot;text-align: left; box-sizing: border-box; overflow: auto; font-size: 14px; padding: 1px 0px; margin-top: 0px; margin-bottom: 0px; line-height: inherit; word-break: break-all; overflow-wrap: break-word; background-color: rgb(255, 255, 255); border: 0px; border-radius: 0px; vertical-align: baseline;&quot;&gt;&lt;pre style=&quot;box-sizing: border-box; overflow: auto; padding: 1px 0px; margin-top: 0px; margin-bottom: 0px; line-height: inherit; word-break: break-all; overflow-wrap: break-word; border: 0px; border-radius: 0px; vertical-align: baseline;&quot;&gt;勘 に&lt;/pre&gt;&lt;/pre&gt;" style="rounded=1;whiteSpace=wrap;html=1;" parent="1" vertex="1">
          <mxGeometry x="339.6" y="2159" width="61.4" height="27" as="geometry" />
        </mxCell>
        <mxCell id="ptX2DU8aKGZaoR_pnGZ3-15" value="&lt;pre style=&quot;text-align: left; box-sizing: border-box; overflow: auto; font-size: 14px; padding: 1px 0px; margin-top: 0px; margin-bottom: 0px; line-height: inherit; word-break: break-all; overflow-wrap: break-word; background-color: rgb(255, 255, 255); border: 0px; border-radius: 0px; vertical-align: baseline;&quot;&gt;&lt;pre style=&quot;box-sizing: border-box; overflow: auto; padding: 1px 0px; margin-top: 0px; margin-bottom: 0px; line-height: inherit; word-break: break-all; overflow-wrap: break-word; border: 0px; border-radius: 0px; vertical-align: baseline;&quot;&gt;頼る&lt;/pre&gt;&lt;/pre&gt;" style="rounded=1;whiteSpace=wrap;html=1;" parent="1" vertex="1">
          <mxGeometry x="414.79999999999995" y="2159" width="47" height="27" as="geometry" />
        </mxCell>
        <mxCell id="ptX2DU8aKGZaoR_pnGZ3-16" value="&lt;pre style=&quot;text-align: left; box-sizing: border-box; overflow: auto; font-size: 14px; padding: 1px 0px; margin-top: 0px; margin-bottom: 0px; line-height: inherit; word-break: break-all; overflow-wrap: break-word; background-color: rgb(255, 255, 255); border: 0px; border-radius: 0px; vertical-align: baseline;&quot;&gt;&lt;pre style=&quot;box-sizing: border-box; overflow: auto; padding: 1px 0px; margin-top: 0px; margin-bottom: 0px; line-height: inherit; word-break: break-all; overflow-wrap: break-word; border: 0px; border-radius: 0px; vertical-align: baseline;&quot;&gt;部分 が&lt;/pre&gt;&lt;/pre&gt;" style="rounded=1;whiteSpace=wrap;html=1;" parent="1" vertex="1">
          <mxGeometry x="476.4" y="2159" width="73.6" height="27" as="geometry" />
        </mxCell>
        <mxCell id="ptX2DU8aKGZaoR_pnGZ3-18" value="&lt;pre style=&quot;text-align: left; box-sizing: border-box; overflow: auto; font-size: 14px; padding: 1px 0px; margin-top: 0px; margin-bottom: 0px; line-height: inherit; word-break: break-all; overflow-wrap: break-word; background-color: rgb(255, 255, 255); border: 0px; border-radius: 0px; vertical-align: baseline;&quot;&gt;&lt;pre style=&quot;box-sizing: border-box; overflow: auto; padding: 1px 0px; margin-top: 0px; margin-bottom: 0px; line-height: inherit; word-break: break-all; overflow-wrap: break-word; border: 0px; border-radius: 0px; vertical-align: baseline;&quot;&gt;残さ れ&lt;/pre&gt;&lt;/pre&gt;" style="rounded=1;whiteSpace=wrap;html=1;" parent="1" vertex="1">
          <mxGeometry x="568" y="2159" width="76" height="27" as="geometry" />
        </mxCell>
        <mxCell id="ptX2DU8aKGZaoR_pnGZ3-20" value="&lt;p class=&quot;p1&quot;&gt;&lt;span class=&quot;s1&quot;&gt;植物 培育 的 多样性 导致 依赖于 经验 与 直觉 的 部分 仍然 存在&lt;/span&gt;&lt;/p&gt;" style="text;whiteSpace=wrap;html=1;" parent="1" vertex="1">
          <mxGeometry x="47" y="1697" width="370" height="60" as="geometry" />
        </mxCell>
        <mxCell id="ptX2DU8aKGZaoR_pnGZ3-23" value="&lt;pre style=&quot;text-align: left; box-sizing: border-box; overflow: auto; font-size: 14px; padding: 1px 0px; margin-top: 0px; margin-bottom: 0px; line-height: inherit; word-break: break-all; overflow-wrap: break-word; border: 0px; border-radius: 0px; vertical-align: baseline;&quot;&gt;&lt;pre style=&quot;box-sizing: border-box; overflow: auto; padding: 1px 0px; margin-top: 0px; margin-bottom: 0px; line-height: inherit; word-break: break-all; overflow-wrap: break-word; border: 0px; border-radius: 0px; vertical-align: baseline;&quot;&gt;经验 和&lt;/pre&gt;&lt;/pre&gt;" style="rounded=1;whiteSpace=wrap;html=1;labelBackgroundColor=none;" parent="1" vertex="1">
          <mxGeometry x="246" y="1981" width="79" height="27" as="geometry" />
        </mxCell>
        <mxCell id="ptX2DU8aKGZaoR_pnGZ3-24" value="&lt;pre style=&quot;text-align: left; box-sizing: border-box; overflow: auto; font-size: 14px; padding: 1px 0px; margin-top: 0px; margin-bottom: 0px; line-height: inherit; word-break: break-all; overflow-wrap: break-word; background-color: rgb(255, 255, 255); border: 0px; border-radius: 0px; vertical-align: baseline;&quot;&gt;&lt;pre style=&quot;box-sizing: border-box; overflow: auto; padding: 1px 0px; margin-top: 0px; margin-bottom: 0px; line-height: inherit; word-break: break-all; overflow-wrap: break-word; border: 0px; border-radius: 0px; vertical-align: baseline;&quot;&gt;经验 与&lt;/pre&gt;&lt;/pre&gt;" style="rounded=1;whiteSpace=wrap;html=1;" parent="1" vertex="1">
          <mxGeometry x="246" y="2018" width="79" height="27" as="geometry" />
        </mxCell>
        <mxCell id="ptX2DU8aKGZaoR_pnGZ3-25" value="&lt;pre style=&quot;text-align: left; box-sizing: border-box; overflow: auto; font-size: 14px; padding: 1px 0px; margin-top: 0px; margin-bottom: 0px; line-height: inherit; word-break: break-all; overflow-wrap: break-word; background-color: rgb(255, 255, 255); border: 0px; border-radius: 0px; vertical-align: baseline;&quot;&gt;&lt;pre style=&quot;box-sizing: border-box; overflow: auto; padding: 1px 0px; margin-top: 0px; margin-bottom: 0px; line-height: inherit; word-break: break-all; overflow-wrap: break-word; border: 0px; border-radius: 0px; vertical-align: baseline;&quot;&gt;经验 以及&lt;/pre&gt;&lt;/pre&gt;" style="rounded=1;whiteSpace=wrap;html=1;" parent="1" vertex="1">
          <mxGeometry x="246" y="2054" width="79" height="27" as="geometry" />
        </mxCell>
        <mxCell id="ptX2DU8aKGZaoR_pnGZ3-26" value="&lt;pre style=&quot;text-align: left; box-sizing: border-box; overflow: auto; font-size: 14px; padding: 1px 0px; margin-top: 0px; margin-bottom: 0px; line-height: inherit; word-break: break-all; overflow-wrap: break-word; background-color: rgb(255, 255, 255); border: 0px; border-radius: 0px; vertical-align: baseline;&quot;&gt;&lt;pre style=&quot;box-sizing: border-box; overflow: auto; padding: 1px 0px; margin-top: 0px; margin-bottom: 0px; line-height: inherit; word-break: break-all; overflow-wrap: break-word; border: 0px; border-radius: 0px; vertical-align: baseline;&quot;&gt;直觉&lt;/pre&gt;&lt;/pre&gt;" style="rounded=1;whiteSpace=wrap;html=1;" parent="1" vertex="1">
          <mxGeometry x="342" y="1981" width="60" height="27" as="geometry" />
        </mxCell>
        <mxCell id="ptX2DU8aKGZaoR_pnGZ3-27" value="&lt;pre style=&quot;text-align: left; box-sizing: border-box; overflow: auto; font-size: 14px; padding: 1px 0px; margin-top: 0px; margin-bottom: 0px; line-height: inherit; word-break: break-all; overflow-wrap: break-word; background-color: rgb(255, 255, 255); border: 0px; border-radius: 0px; vertical-align: baseline;&quot;&gt;&lt;pre style=&quot;box-sizing: border-box; overflow: auto; padding: 1px 0px; margin-top: 0px; margin-bottom: 0px; line-height: inherit; word-break: break-all; overflow-wrap: break-word; border: 0px; border-radius: 0px; vertical-align: baseline;&quot;&gt;感觉&lt;/pre&gt;&lt;/pre&gt;" style="rounded=1;whiteSpace=wrap;html=1;" parent="1" vertex="1">
          <mxGeometry x="342" y="2018" width="60" height="27" as="geometry" />
        </mxCell>
        <mxCell id="ptX2DU8aKGZaoR_pnGZ3-28" value="&lt;pre style=&quot;text-align: left; box-sizing: border-box; overflow: auto; font-size: 14px; padding: 1px 0px; margin-top: 0px; margin-bottom: 0px; line-height: inherit; word-break: break-all; overflow-wrap: break-word; background-color: rgb(255, 255, 255); border: 0px; border-radius: 0px; vertical-align: baseline;&quot;&gt;&lt;pre style=&quot;box-sizing: border-box; overflow: auto; padding: 1px 0px; margin-top: 0px; margin-bottom: 0px; line-height: inherit; word-break: break-all; overflow-wrap: break-word; border: 0px; border-radius: 0px; vertical-align: baseline;&quot;&gt;依赖于&lt;/pre&gt;&lt;/pre&gt;" style="rounded=1;whiteSpace=wrap;html=1;" parent="1" vertex="1">
          <mxGeometry x="415.79999999999995" y="1981" width="47.2" height="27" as="geometry" />
        </mxCell>
        <mxCell id="ptX2DU8aKGZaoR_pnGZ3-29" value="&lt;pre style=&quot;text-align: left; box-sizing: border-box; overflow: auto; font-size: 14px; padding: 1px 0px; margin-top: 0px; margin-bottom: 0px; line-height: inherit; word-break: break-all; overflow-wrap: break-word; background-color: rgb(255, 255, 255); border: 0px; border-radius: 0px; vertical-align: baseline;&quot;&gt;&lt;pre style=&quot;box-sizing: border-box; overflow: auto; padding: 1px 0px; margin-top: 0px; margin-bottom: 0px; line-height: inherit; word-break: break-all; overflow-wrap: break-word; border: 0px; border-radius: 0px; vertical-align: baseline;&quot;&gt;依赖&lt;/pre&gt;&lt;/pre&gt;" style="rounded=1;whiteSpace=wrap;html=1;" parent="1" vertex="1">
          <mxGeometry x="415.79999999999995" y="2018" width="47.2" height="27" as="geometry" />
        </mxCell>
        <mxCell id="ptX2DU8aKGZaoR_pnGZ3-30" value="&lt;pre style=&quot;text-align: left; box-sizing: border-box; overflow: auto; font-size: 14px; padding: 1px 0px; margin-top: 0px; margin-bottom: 0px; line-height: inherit; word-break: break-all; overflow-wrap: break-word; background-color: rgb(255, 255, 255); border: 0px; border-radius: 0px; vertical-align: baseline;&quot;&gt;&lt;pre style=&quot;box-sizing: border-box; overflow: auto; padding: 1px 0px; margin-top: 0px; margin-bottom: 0px; line-height: inherit; word-break: break-all; overflow-wrap: break-word; border: 0px; border-radius: 0px; vertical-align: baseline;&quot;&gt;依靠&lt;/pre&gt;&lt;/pre&gt;" style="rounded=1;whiteSpace=wrap;html=1;" parent="1" vertex="1">
          <mxGeometry x="415.79999999999995" y="2054" width="47.2" height="27" as="geometry" />
        </mxCell>
        <mxCell id="ptX2DU8aKGZaoR_pnGZ3-31" value="&lt;pre style=&quot;text-align: left; box-sizing: border-box; overflow: auto; font-size: 14px; padding: 1px 0px; margin-top: 0px; margin-bottom: 0px; line-height: inherit; word-break: break-all; overflow-wrap: break-word; background-color: rgb(255, 255, 255); border: 0px; border-radius: 0px; vertical-align: baseline;&quot;&gt;&lt;pre style=&quot;box-sizing: border-box; overflow: auto; padding: 1px 0px; margin-top: 0px; margin-bottom: 0px; line-height: inherit; word-break: break-all; overflow-wrap: break-word; border: 0px; border-radius: 0px; vertical-align: baseline;&quot;&gt;部分&lt;/pre&gt;&lt;/pre&gt;" style="rounded=1;whiteSpace=wrap;html=1;" parent="1" vertex="1">
          <mxGeometry x="475.79999999999995" y="1981.5" width="76.2" height="27" as="geometry" />
        </mxCell>
        <mxCell id="ptX2DU8aKGZaoR_pnGZ3-32" value="&lt;pre style=&quot;text-align: left; box-sizing: border-box; overflow: auto; font-size: 14px; padding: 1px 0px; margin-top: 0px; margin-bottom: 0px; line-height: inherit; word-break: break-all; overflow-wrap: break-word; background-color: rgb(255, 255, 255); border: 0px; border-radius: 0px; vertical-align: baseline;&quot;&gt;&lt;pre style=&quot;box-sizing: border-box; overflow: auto; padding: 1px 0px; margin-top: 0px; margin-bottom: 0px; line-height: inherit; word-break: break-all; overflow-wrap: break-word; border: 0px; border-radius: 0px; vertical-align: baseline;&quot;&gt;部分 是&lt;/pre&gt;&lt;/pre&gt;" style="rounded=1;whiteSpace=wrap;html=1;" parent="1" vertex="1">
          <mxGeometry x="475.79999999999995" y="2018.5" width="76.2" height="27" as="geometry" />
        </mxCell>
        <mxCell id="ptX2DU8aKGZaoR_pnGZ3-33" value="&lt;pre style=&quot;text-align: left; box-sizing: border-box; overflow: auto; font-size: 14px; padding: 1px 0px; margin-top: 0px; margin-bottom: 0px; line-height: inherit; word-break: break-all; overflow-wrap: break-word; background-color: rgb(255, 255, 255); border: 0px; border-radius: 0px; vertical-align: baseline;&quot;&gt;&lt;pre style=&quot;box-sizing: border-box; overflow: auto; padding: 1px 0px; margin-top: 0px; margin-bottom: 0px; line-height: inherit; word-break: break-all; overflow-wrap: break-word; border: 0px; border-radius: 0px; vertical-align: baseline;&quot;&gt;部分 被&lt;/pre&gt;&lt;/pre&gt;" style="rounded=1;whiteSpace=wrap;html=1;" parent="1" vertex="1">
          <mxGeometry x="475.79999999999995" y="2054.5" width="76.2" height="27" as="geometry" />
        </mxCell>
        <mxCell id="ptX2DU8aKGZaoR_pnGZ3-34" value="&lt;pre style=&quot;text-align: left; box-sizing: border-box; overflow: auto; font-size: 14px; padding: 1px 0px; margin-top: 0px; margin-bottom: 0px; line-height: inherit; word-break: break-all; overflow-wrap: break-word; background-color: rgb(255, 255, 255); border: 0px; border-radius: 0px; vertical-align: baseline;&quot;&gt;&lt;pre style=&quot;box-sizing: border-box; overflow: auto; padding: 1px 0px; margin-top: 0px; margin-bottom: 0px; line-height: inherit; word-break: break-all; overflow-wrap: break-word; border: 0px; border-radius: 0px; vertical-align: baseline;&quot;&gt;部分 为&lt;/pre&gt;&lt;/pre&gt;" style="rounded=1;whiteSpace=wrap;html=1;" parent="1" vertex="1">
          <mxGeometry x="475.79999999999995" y="2091" width="76.2" height="27" as="geometry" />
        </mxCell>
        <mxCell id="ptX2DU8aKGZaoR_pnGZ3-35" value="&lt;pre style=&quot;text-align: left; box-sizing: border-box; overflow: auto; font-size: 14px; padding: 1px 0px; margin-top: 0px; margin-bottom: 0px; line-height: inherit; word-break: break-all; overflow-wrap: break-word; background-color: rgb(255, 255, 255); border: 0px; border-radius: 0px; vertical-align: baseline;&quot;&gt;&lt;pre style=&quot;box-sizing: border-box; overflow: auto; padding: 1px 0px; margin-top: 0px; margin-bottom: 0px; line-height: inherit; word-break: break-all; overflow-wrap: break-word; border: 0px; border-radius: 0px; vertical-align: baseline;&quot;&gt;经验&lt;/pre&gt;&lt;/pre&gt;" style="rounded=1;whiteSpace=wrap;html=1;" parent="1" vertex="1">
          <mxGeometry x="246" y="2091" width="79" height="27" as="geometry" />
        </mxCell>
        <mxCell id="ptX2DU8aKGZaoR_pnGZ3-36" value="&lt;pre style=&quot;text-align: left; box-sizing: border-box; overflow: auto; font-size: 14px; padding: 1px 0px; margin-top: 0px; margin-bottom: 0px; line-height: inherit; word-break: break-all; overflow-wrap: break-word; background-color: rgb(255, 255, 255); border: 0px; border-radius: 0px; vertical-align: baseline;&quot;&gt;&lt;pre style=&quot;box-sizing: border-box; overflow: auto; padding: 1px 0px; margin-top: 0px; margin-bottom: 0px; line-height: inherit; word-break: break-all; overflow-wrap: break-word; border: 0px; border-radius: 0px; vertical-align: baseline;&quot;&gt;残留&lt;/pre&gt;&lt;/pre&gt;" style="rounded=1;whiteSpace=wrap;html=1;" parent="1" vertex="1">
          <mxGeometry x="568" y="1981" width="76.2" height="27" as="geometry" />
        </mxCell>
        <mxCell id="ptX2DU8aKGZaoR_pnGZ3-37" value="&lt;pre style=&quot;text-align: left; box-sizing: border-box; overflow: auto; font-size: 14px; padding: 1px 0px; margin-top: 0px; margin-bottom: 0px; line-height: inherit; word-break: break-all; overflow-wrap: break-word; background-color: rgb(255, 255, 255); border: 0px; border-radius: 0px; vertical-align: baseline;&quot;&gt;&lt;pre style=&quot;box-sizing: border-box; overflow: auto; padding: 1px 0px; margin-top: 0px; margin-bottom: 0px; line-height: inherit; word-break: break-all; overflow-wrap: break-word; border: 0px; border-radius: 0px; vertical-align: baseline;&quot;&gt;保留&lt;/pre&gt;&lt;/pre&gt;" style="rounded=1;whiteSpace=wrap;html=1;" parent="1" vertex="1">
          <mxGeometry x="568" y="2018" width="76.2" height="27" as="geometry" />
        </mxCell>
        <mxCell id="ptX2DU8aKGZaoR_pnGZ3-38" value="&lt;pre style=&quot;text-align: left; box-sizing: border-box; overflow: auto; font-size: 14px; padding: 1px 0px; margin-top: 0px; margin-bottom: 0px; line-height: inherit; word-break: break-all; overflow-wrap: break-word; background-color: rgb(255, 255, 255); border: 0px; border-radius: 0px; vertical-align: baseline;&quot;&gt;&lt;pre style=&quot;box-sizing: border-box; overflow: auto; padding: 1px 0px; margin-top: 0px; margin-bottom: 0px; line-height: inherit; word-break: break-all; overflow-wrap: break-word; border: 0px; border-radius: 0px; vertical-align: baseline;&quot;&gt;留下&lt;/pre&gt;&lt;/pre&gt;" style="rounded=1;whiteSpace=wrap;html=1;" parent="1" vertex="1">
          <mxGeometry x="568" y="2054" width="76.2" height="27" as="geometry" />
        </mxCell>
        <mxCell id="ptX2DU8aKGZaoR_pnGZ3-39" value="&lt;pre style=&quot;text-align: left; box-sizing: border-box; overflow: auto; font-size: 14px; padding: 1px 0px; margin-top: 0px; margin-bottom: 0px; line-height: inherit; word-break: break-all; overflow-wrap: break-word; background-color: rgb(255, 255, 255); border: 0px; border-radius: 0px; vertical-align: baseline;&quot;&gt;&lt;pre style=&quot;box-sizing: border-box; overflow: auto; padding: 1px 0px; margin-top: 0px; margin-bottom: 0px; line-height: inherit; word-break: break-all; overflow-wrap: break-word; border: 0px; border-radius: 0px; vertical-align: baseline;&quot;&gt;存在&lt;/pre&gt;&lt;/pre&gt;" style="rounded=1;whiteSpace=wrap;html=1;" parent="1" vertex="1">
          <mxGeometry x="568" y="2090.5" width="76.2" height="27" as="geometry" />
        </mxCell>
        <mxCell id="ptX2DU8aKGZaoR_pnGZ3-40" value="" style="endArrow=none;dashed=1;html=1;strokeWidth=2;rounded=0;strokeColor=#FF0000;" parent="1" edge="1">
          <mxGeometry width="50" height="50" relative="1" as="geometry">
            <mxPoint x="331" y="2192" as="sourcePoint" />
            <mxPoint x="331" y="1975" as="targetPoint" />
          </mxGeometry>
        </mxCell>
        <mxCell id="ptX2DU8aKGZaoR_pnGZ3-41" value="" style="endArrow=none;dashed=1;html=1;strokeWidth=2;rounded=0;strokeColor=#FF0000;startArrow=none;" parent="1" edge="1">
          <mxGeometry width="50" height="50" relative="1" as="geometry">
            <mxPoint x="410" y="2189" as="sourcePoint" />
            <mxPoint x="409.54999999999995" y="1977" as="targetPoint" />
          </mxGeometry>
        </mxCell>
        <mxCell id="ptX2DU8aKGZaoR_pnGZ3-42" value="" style="endArrow=none;dashed=1;html=1;strokeWidth=2;rounded=0;strokeColor=#FF0000;" parent="1" edge="1">
          <mxGeometry width="50" height="50" relative="1" as="geometry">
            <mxPoint x="469" y="2189" as="sourcePoint" />
            <mxPoint x="469.40999999999997" y="1977" as="targetPoint" />
          </mxGeometry>
        </mxCell>
        <mxCell id="ptX2DU8aKGZaoR_pnGZ3-44" value="Src Phrase" style="text;html=1;align=center;verticalAlign=middle;resizable=0;points=[];autosize=1;strokeColor=none;fillColor=none;" parent="1" vertex="1">
          <mxGeometry x="148" y="2159" width="80" height="30" as="geometry" />
        </mxCell>
        <mxCell id="ptX2DU8aKGZaoR_pnGZ3-45" value="Tgt Phrase" style="text;html=1;align=center;verticalAlign=middle;resizable=0;points=[];autosize=1;strokeColor=none;fillColor=none;" parent="1" vertex="1">
          <mxGeometry x="147" y="2028" width="80" height="30" as="geometry" />
        </mxCell>
        <mxCell id="ptX2DU8aKGZaoR_pnGZ3-48" value="&lt;pre style=&quot;text-align: left; box-sizing: border-box; overflow: auto; font-size: 14px; padding: 1px 0px; margin-top: 0px; margin-bottom: 0px; line-height: inherit; word-break: break-all; overflow-wrap: break-word; border: 0px; border-radius: 0px; vertical-align: baseline;&quot;&gt;&lt;pre style=&quot;box-sizing: border-box; overflow: auto; padding: 1px 0px; margin-top: 0px; margin-bottom: 0px; line-height: inherit; word-break: break-all; overflow-wrap: break-word; border: 0px; border-radius: 0px; vertical-align: baseline;&quot;&gt;Encoder&lt;/pre&gt;&lt;/pre&gt;" style="rounded=1;whiteSpace=wrap;html=1;fillColor=#CCFFFF;fontColor=#000000;strokeColor=#0d0d0d;" parent="1" vertex="1">
          <mxGeometry x="242" y="1895" width="175" height="46" as="geometry" />
        </mxCell>
        <mxCell id="ptX2DU8aKGZaoR_pnGZ3-49" value="&lt;pre style=&quot;text-align: left; box-sizing: border-box; overflow: auto; font-size: 14px; padding: 1px 0px; margin-top: 0px; margin-bottom: 0px; line-height: inherit; word-break: break-all; overflow-wrap: break-word; border: 0px; border-radius: 0px; vertical-align: baseline;&quot;&gt;&lt;pre style=&quot;box-sizing: border-box; overflow: auto; padding: 1px 0px; margin-top: 0px; margin-bottom: 0px; line-height: inherit; word-break: break-all; overflow-wrap: break-word; border: 0px; border-radius: 0px; vertical-align: baseline;&quot;&gt;Decoder&lt;/pre&gt;&lt;/pre&gt;" style="rounded=1;whiteSpace=wrap;html=1;fillColor=#FFFF33;" parent="1" vertex="1">
          <mxGeometry x="472" y="1895" width="176.4" height="46" as="geometry" />
        </mxCell>
        <mxCell id="ptX2DU8aKGZaoR_pnGZ3-50" value="" style="endArrow=classic;html=1;rounded=0;strokeColor=#000000;exitX=1;exitY=0.5;exitDx=0;exitDy=0;" parent="1" source="ptX2DU8aKGZaoR_pnGZ3-48" edge="1">
          <mxGeometry width="50" height="50" relative="1" as="geometry">
            <mxPoint x="397" y="2033" as="sourcePoint" />
            <mxPoint x="472" y="1918" as="targetPoint" />
          </mxGeometry>
        </mxCell>
        <mxCell id="ptX2DU8aKGZaoR_pnGZ3-51" value="" style="endArrow=classic;html=1;rounded=0;strokeColor=#000000;" parent="1" edge="1">
          <mxGeometry width="50" height="50" relative="1" as="geometry">
            <mxPoint x="315" y="1961" as="sourcePoint" />
            <mxPoint x="315" y="1942" as="targetPoint" />
          </mxGeometry>
        </mxCell>
        <mxCell id="ptX2DU8aKGZaoR_pnGZ3-52" value="" style="endArrow=classic;html=1;rounded=0;strokeColor=#000000;" parent="1" edge="1">
          <mxGeometry width="50" height="50" relative="1" as="geometry">
            <mxPoint x="570" y="1961.25" as="sourcePoint" />
            <mxPoint x="570" y="1940" as="targetPoint" />
          </mxGeometry>
        </mxCell>
        <mxCell id="ptX2DU8aKGZaoR_pnGZ3-54" value="" style="endArrow=classic;html=1;rounded=0;strokeColor=#000000;" parent="1" edge="1">
          <mxGeometry width="50" height="50" relative="1" as="geometry">
            <mxPoint x="569" y="1895" as="sourcePoint" />
            <mxPoint x="569" y="1870" as="targetPoint" />
          </mxGeometry>
        </mxCell>
        <mxCell id="ptX2DU8aKGZaoR_pnGZ3-55" value="Output" style="text;html=1;align=center;verticalAlign=middle;resizable=0;points=[];autosize=1;strokeColor=none;fillColor=none;" parent="1" vertex="1">
          <mxGeometry x="539" y="1842" width="54" height="26" as="geometry" />
        </mxCell>
        <mxCell id="ptX2DU8aKGZaoR_pnGZ3-62" value="" style="endArrow=none;dashed=1;html=1;strokeWidth=2;rounded=0;strokeColor=#FF0000;" parent="1" edge="1">
          <mxGeometry width="50" height="50" relative="1" as="geometry">
            <mxPoint x="560" y="2190" as="sourcePoint" />
            <mxPoint x="560.6699999999998" y="1975" as="targetPoint" />
          </mxGeometry>
        </mxCell>
        <mxCell id="ptX2DU8aKGZaoR_pnGZ3-63" value="Japanese &lt;br&gt;Input" style="text;html=1;align=center;verticalAlign=middle;resizable=0;points=[];autosize=1;strokeColor=none;fillColor=none;" parent="1" vertex="1">
          <mxGeometry x="154" y="2235" width="70" height="41" as="geometry" />
        </mxCell>
        <mxCell id="ptX2DU8aKGZaoR_pnGZ3-66" value="&lt;pre style=&quot;text-align: left; box-sizing: border-box; overflow: auto; font-size: 14px; padding: 1px 0px; margin-top: 0px; margin-bottom: 0px; line-height: inherit; word-break: break-all; overflow-wrap: break-word; background-color: rgb(255, 255, 255); border: 0px; border-radius: 0px; vertical-align: baseline;&quot;&gt;&lt;pre style=&quot;box-sizing: border-box; overflow: auto; padding: 1px 0px; margin-top: 0px; margin-bottom: 0px; line-height: inherit; word-break: break-all; overflow-wrap: break-word; border: 0px; border-radius: 0px; vertical-align: baseline;&quot;&gt;経験&lt;/pre&gt;&lt;/pre&gt;" style="rounded=1;whiteSpace=wrap;html=1;" parent="1" vertex="1">
          <mxGeometry x="243" y="2242" width="47" height="27" as="geometry" />
        </mxCell>
        <mxCell id="ptX2DU8aKGZaoR_pnGZ3-67" value="&lt;pre style=&quot;text-align: left; box-sizing: border-box; overflow: auto; font-size: 14px; padding: 1px 0px; margin-top: 0px; margin-bottom: 0px; line-height: inherit; word-break: break-all; overflow-wrap: break-word; background-color: rgb(255, 255, 255); border: 0px; border-radius: 0px; vertical-align: baseline;&quot;&gt;&lt;pre style=&quot;box-sizing: border-box; overflow: auto; padding: 1px 0px; margin-top: 0px; margin-bottom: 0px; line-height: inherit; word-break: break-all; overflow-wrap: break-word; border: 0px; border-radius: 0px; vertical-align: baseline;&quot;&gt;と&lt;/pre&gt;&lt;/pre&gt;" style="rounded=1;whiteSpace=wrap;html=1;" parent="1" vertex="1">
          <mxGeometry x="297" y="2242" width="33.4" height="27" as="geometry" />
        </mxCell>
        <mxCell id="ptX2DU8aKGZaoR_pnGZ3-68" value="&lt;pre style=&quot;text-align: left; box-sizing: border-box; overflow: auto; font-size: 14px; padding: 1px 0px; margin-top: 0px; margin-bottom: 0px; line-height: inherit; word-break: break-all; overflow-wrap: break-word; background-color: rgb(255, 255, 255); border: 0px; border-radius: 0px; vertical-align: baseline;&quot;&gt;&lt;pre style=&quot;box-sizing: border-box; overflow: auto; padding: 1px 0px; margin-top: 0px; margin-bottom: 0px; line-height: inherit; word-break: break-all; overflow-wrap: break-word; border: 0px; border-radius: 0px; vertical-align: baseline;&quot;&gt;勘&lt;/pre&gt;&lt;/pre&gt;" style="rounded=1;whiteSpace=wrap;html=1;" parent="1" vertex="1">
          <mxGeometry x="335.6" y="2242" width="33.4" height="27" as="geometry" />
        </mxCell>
        <mxCell id="ptX2DU8aKGZaoR_pnGZ3-69" value="&lt;pre style=&quot;text-align: left; box-sizing: border-box; overflow: auto; font-size: 14px; padding: 1px 0px; margin-top: 0px; margin-bottom: 0px; line-height: inherit; word-break: break-all; overflow-wrap: break-word; background-color: rgb(255, 255, 255); border: 0px; border-radius: 0px; vertical-align: baseline;&quot;&gt;&lt;pre style=&quot;box-sizing: border-box; overflow: auto; padding: 1px 0px; margin-top: 0px; margin-bottom: 0px; line-height: inherit; word-break: break-all; overflow-wrap: break-word; border: 0px; border-radius: 0px; vertical-align: baseline;&quot;&gt;に&lt;/pre&gt;&lt;/pre&gt;" style="rounded=1;whiteSpace=wrap;html=1;" parent="1" vertex="1">
          <mxGeometry x="374.6" y="2242" width="33.4" height="27" as="geometry" />
        </mxCell>
        <mxCell id="ptX2DU8aKGZaoR_pnGZ3-70" value="&lt;pre style=&quot;text-align: left; box-sizing: border-box; overflow: auto; font-size: 14px; padding: 1px 0px; margin-top: 0px; margin-bottom: 0px; line-height: inherit; word-break: break-all; overflow-wrap: break-word; background-color: rgb(255, 255, 255); border: 0px; border-radius: 0px; vertical-align: baseline;&quot;&gt;&lt;pre style=&quot;box-sizing: border-box; overflow: auto; padding: 1px 0px; margin-top: 0px; margin-bottom: 0px; line-height: inherit; word-break: break-all; overflow-wrap: break-word; border: 0px; border-radius: 0px; vertical-align: baseline;&quot;&gt;頼る&lt;/pre&gt;&lt;/pre&gt;" style="rounded=1;whiteSpace=wrap;html=1;" parent="1" vertex="1">
          <mxGeometry x="414.79999999999995" y="2242" width="47" height="27" as="geometry" />
        </mxCell>
        <mxCell id="ptX2DU8aKGZaoR_pnGZ3-71" value="&lt;pre style=&quot;text-align: left; box-sizing: border-box; overflow: auto; font-size: 14px; padding: 1px 0px; margin-top: 0px; margin-bottom: 0px; line-height: inherit; word-break: break-all; overflow-wrap: break-word; background-color: rgb(255, 255, 255); border: 0px; border-radius: 0px; vertical-align: baseline;&quot;&gt;&lt;pre style=&quot;box-sizing: border-box; overflow: auto; padding: 1px 0px; margin-top: 0px; margin-bottom: 0px; line-height: inherit; word-break: break-all; overflow-wrap: break-word; border: 0px; border-radius: 0px; vertical-align: baseline;&quot;&gt;部分&lt;/pre&gt;&lt;/pre&gt;" style="rounded=1;whiteSpace=wrap;html=1;" parent="1" vertex="1">
          <mxGeometry x="469.4" y="2242" width="47" height="27" as="geometry" />
        </mxCell>
        <mxCell id="ptX2DU8aKGZaoR_pnGZ3-72" value="&lt;pre style=&quot;text-align: left; box-sizing: border-box; overflow: auto; font-size: 14px; padding: 1px 0px; margin-top: 0px; margin-bottom: 0px; line-height: inherit; word-break: break-all; overflow-wrap: break-word; background-color: rgb(255, 255, 255); border: 0px; border-radius: 0px; vertical-align: baseline;&quot;&gt;&lt;pre style=&quot;box-sizing: border-box; overflow: auto; padding: 1px 0px; margin-top: 0px; margin-bottom: 0px; line-height: inherit; word-break: break-all; overflow-wrap: break-word; border: 0px; border-radius: 0px; vertical-align: baseline;&quot;&gt;が&lt;/pre&gt;&lt;/pre&gt;" style="rounded=1;whiteSpace=wrap;html=1;" parent="1" vertex="1">
          <mxGeometry x="523.4" y="2242" width="33.4" height="27" as="geometry" />
        </mxCell>
        <mxCell id="ptX2DU8aKGZaoR_pnGZ3-73" value="&lt;pre style=&quot;text-align: left; box-sizing: border-box; overflow: auto; font-size: 14px; padding: 1px 0px; margin-top: 0px; margin-bottom: 0px; line-height: inherit; word-break: break-all; overflow-wrap: break-word; background-color: rgb(255, 255, 255); border: 0px; border-radius: 0px; vertical-align: baseline;&quot;&gt;&lt;pre style=&quot;box-sizing: border-box; overflow: auto; padding: 1px 0px; margin-top: 0px; margin-bottom: 0px; line-height: inherit; word-break: break-all; overflow-wrap: break-word; border: 0px; border-radius: 0px; vertical-align: baseline;&quot;&gt;残さ&lt;/pre&gt;&lt;/pre&gt;" style="rounded=1;whiteSpace=wrap;html=1;" parent="1" vertex="1">
          <mxGeometry x="565" y="2242" width="47" height="27" as="geometry" />
        </mxCell>
        <mxCell id="ptX2DU8aKGZaoR_pnGZ3-74" value="&lt;pre style=&quot;text-align: left; box-sizing: border-box; overflow: auto; font-size: 14px; padding: 1px 0px; margin-top: 0px; margin-bottom: 0px; line-height: inherit; word-break: break-all; overflow-wrap: break-word; background-color: rgb(255, 255, 255); border: 0px; border-radius: 0px; vertical-align: baseline;&quot;&gt;&lt;pre style=&quot;box-sizing: border-box; overflow: auto; padding: 1px 0px; margin-top: 0px; margin-bottom: 0px; line-height: inherit; word-break: break-all; overflow-wrap: break-word; border: 0px; border-radius: 0px; vertical-align: baseline;&quot;&gt;れ&lt;/pre&gt;&lt;/pre&gt;" style="rounded=1;whiteSpace=wrap;html=1;" parent="1" vertex="1">
          <mxGeometry x="618" y="2242" width="33.4" height="27" as="geometry" />
        </mxCell>
        <mxCell id="ptX2DU8aKGZaoR_pnGZ3-76" value="" style="rounded=1;whiteSpace=wrap;html=1;labelBackgroundColor=none;fillColor=none;strokeColor=#666666;gradientColor=none;arcSize=5;" parent="1" vertex="1">
          <mxGeometry x="235.09999999999997" y="2233" width="422.6" height="46.75" as="geometry" />
        </mxCell>
        <mxCell id="ptX2DU8aKGZaoR_pnGZ3-77" value="" style="endArrow=classic;html=1;rounded=0;strokeColor=#000000;" parent="1" edge="1">
          <mxGeometry width="50" height="50" relative="1" as="geometry">
            <mxPoint x="443.08000000000004" y="2232.25" as="sourcePoint" />
            <mxPoint x="443.08000000000004" y="2211" as="targetPoint" />
          </mxGeometry>
        </mxCell>
        <mxCell id="ptX2DU8aKGZaoR_pnGZ3-78" value="English&lt;br&gt;Meaning" style="text;html=1;align=center;verticalAlign=middle;resizable=0;points=[];autosize=1;strokeColor=none;fillColor=none;" parent="1" vertex="1">
          <mxGeometry x="159" y="2314.75" width="64" height="41" as="geometry" />
        </mxCell>
        <mxCell id="ptX2DU8aKGZaoR_pnGZ3-80" value="The part that relies on experience and intuition is still there" style="text;html=1;align=center;verticalAlign=middle;resizable=0;points=[];autosize=1;strokeColor=none;fillColor=none;" parent="1" vertex="1">
          <mxGeometry x="246" y="2309.25" width="328" height="26" as="geometry" />
        </mxCell>
        <mxCell id="GOcuKH5VwXnknST2ZLBd-1" value="&lt;span style=&quot;color: rgb(0, 0, 0); font-family: helvetica; font-size: 12px; font-style: normal; letter-spacing: normal; text-align: center; text-indent: 0px; text-transform: none; word-spacing: 0px; background-color: rgb(248, 249, 250); display: inline; float: none;&quot;&gt;&lt;b&gt;N×&lt;/b&gt;&lt;/span&gt;" style="text;whiteSpace=wrap;html=1;fontSize=4;" parent="1" vertex="1">
          <mxGeometry x="83" y="1452.5" width="21" height="19" as="geometry" />
        </mxCell>
        <mxCell id="GOcuKH5VwXnknST2ZLBd-2" value="&lt;span style=&quot;color: rgb(0, 0, 0); font-family: helvetica; font-size: 12px; font-style: normal; letter-spacing: normal; text-align: center; text-indent: 0px; text-transform: none; word-spacing: 0px; background-color: rgb(248, 249, 250); display: inline; float: none;&quot;&gt;&lt;b&gt;N×&lt;/b&gt;&lt;/span&gt;" style="text;whiteSpace=wrap;html=1;fontSize=4;" parent="1" vertex="1">
          <mxGeometry x="634" y="1371" width="21" height="19" as="geometry" />
        </mxCell>
        <mxCell id="77BAv4R_QHjsAZorNYYZ-1" value="&lt;span style=&quot;color: rgb(0, 0, 0); font-family: Helvetica; font-size: 12px; font-style: normal; font-variant-ligatures: normal; font-variant-caps: normal; font-weight: 400; letter-spacing: normal; orphans: 2; text-align: center; text-indent: 0px; text-transform: none; widows: 2; word-spacing: 0px; -webkit-text-stroke-width: 0px; background-color: rgb(251, 251, 251); text-decoration-thickness: initial; text-decoration-style: initial; text-decoration-color: initial; float: none; display: inline !important;&quot;&gt;Output Probabilities&lt;/span&gt;" style="text;whiteSpace=wrap;html=1;" parent="1" vertex="1">
          <mxGeometry x="529" y="1196" width="121" height="36" as="geometry" />
        </mxCell>
        <mxCell id="77BAv4R_QHjsAZorNYYZ-3" value="&lt;b&gt;CopyNet&lt;/b&gt;" style="text;html=1;align=center;verticalAlign=middle;resizable=0;points=[];autosize=1;strokeColor=none;fillColor=none;" parent="1" vertex="1">
          <mxGeometry x="283.6" y="1229.5" width="67" height="26" as="geometry" />
        </mxCell>
        <mxCell id="77BAv4R_QHjsAZorNYYZ-5" value="&lt;b&gt;Phrase Representation&lt;/b&gt;" style="text;html=1;align=center;verticalAlign=middle;resizable=0;points=[];autosize=1;strokeColor=none;fillColor=none;" parent="1" vertex="1">
          <mxGeometry x="288" y="1399" width="149" height="26" as="geometry" />
        </mxCell>
        <mxCell id="77BAv4R_QHjsAZorNYYZ-6" value="&lt;b&gt;Source&lt;br&gt;Phrase&lt;br&gt;Fusion&lt;br&gt;&lt;/b&gt;" style="text;html=1;align=center;verticalAlign=middle;resizable=0;points=[];autosize=1;strokeColor=none;fillColor=none;" parent="1" vertex="1">
          <mxGeometry x="235" y="1446.5" width="59" height="55" as="geometry" />
        </mxCell>
        <mxCell id="77BAv4R_QHjsAZorNYYZ-7" value="&lt;b&gt;Target&amp;nbsp;&amp;nbsp;&lt;br&gt;Phrase&lt;br&gt;Fusion&lt;br&gt;&lt;/b&gt;" style="text;html=1;align=center;verticalAlign=middle;resizable=0;points=[];autosize=1;strokeColor=none;fillColor=none;" parent="1" vertex="1">
          <mxGeometry x="624" y="1449" width="60" height="55" as="geometry" />
        </mxCell>
        <mxCell id="oxTGBEpy8pcz7sXoMvzD-1" value="" style="rounded=1;whiteSpace=wrap;html=1;labelBackgroundColor=none;arcSize=5;" parent="1" vertex="1">
          <mxGeometry x="347.7" y="3535" width="441" height="250" as="geometry" />
        </mxCell>
        <mxCell id="oxTGBEpy8pcz7sXoMvzD-2" value="" style="rounded=1;whiteSpace=wrap;html=1;labelBackgroundColor=none;fillColor=#dae8fc;strokeColor=#6c8ebf;arcSize=5;" parent="1" vertex="1">
          <mxGeometry x="227.1" y="3153.63" width="388.9" height="163.37" as="geometry" />
        </mxCell>
        <mxCell id="oxTGBEpy8pcz7sXoMvzD-3" value="" style="rounded=1;whiteSpace=wrap;html=1;labelBackgroundColor=none;fillColor=#E6E6E6;strokeColor=#666666;gradientColor=none;arcSize=5;" parent="1" vertex="1">
          <mxGeometry x="228.8" y="3330.13" width="389.2" height="46.75" as="geometry" />
        </mxCell>
        <mxCell id="oxTGBEpy8pcz7sXoMvzD-4" value="&lt;pre style=&quot;text-align: left; box-sizing: border-box; overflow: auto; font-size: 14px; padding: 1px 0px; margin-top: 0px; margin-bottom: 0px; line-height: inherit; word-break: break-all; overflow-wrap: break-word; background-color: rgb(255, 255, 255); border: 0px; border-radius: 0px; vertical-align: baseline;&quot;&gt;&lt;pre style=&quot;box-sizing: border-box; overflow: auto; padding: 1px 0px; margin-top: 0px; margin-bottom: 0px; line-height: inherit; word-break: break-all; overflow-wrap: break-word; border: 0px; border-radius: 0px; vertical-align: baseline;&quot;&gt;処理 用 部 の&lt;br&gt;&lt;/pre&gt;&lt;/pre&gt;" style="rounded=1;whiteSpace=wrap;html=1;" parent="1" vertex="1">
          <mxGeometry x="241" y="3341" width="123" height="25" as="geometry" />
        </mxCell>
        <mxCell id="oxTGBEpy8pcz7sXoMvzD-7" value="&lt;pre style=&quot;text-align: left; box-sizing: border-box; overflow: auto; font-size: 14px; padding: 1px 0px; margin-top: 0px; margin-bottom: 0px; line-height: inherit; word-break: break-all; overflow-wrap: break-word; background-color: rgb(255, 255, 255); border: 0px; border-radius: 0px; vertical-align: baseline;&quot;&gt;&lt;pre style=&quot;box-sizing: border-box; overflow: auto; padding: 1px 0px; margin-top: 0px; margin-bottom: 0px; line-height: inherit; word-break: break-all; overflow-wrap: break-word; border: 0px; border-radius: 0px; vertical-align: baseline;&quot;&gt;熱 伝導 を&lt;br&gt;&lt;/pre&gt;&lt;/pre&gt;" style="rounded=1;whiteSpace=wrap;html=1;" parent="1" vertex="1">
          <mxGeometry x="390.4" y="3341" width="103.6" height="27" as="geometry" />
        </mxCell>
        <mxCell id="oxTGBEpy8pcz7sXoMvzD-8" value="&lt;pre style=&quot;text-align: left; box-sizing: border-box; overflow: auto; font-size: 14px; padding: 1px 0px; margin-top: 0px; margin-bottom: 0px; line-height: inherit; word-break: break-all; overflow-wrap: break-word; background-color: rgb(255, 255, 255); border: 0px; border-radius: 0px; vertical-align: baseline;&quot;&gt;&lt;pre style=&quot;box-sizing: border-box; overflow: auto; padding: 1px 0px; margin-top: 0px; margin-bottom: 0px; line-height: inherit; word-break: break-all; overflow-wrap: break-word; border: 0px; border-radius: 0px; vertical-align: baseline;&quot;&gt;用い て&lt;br&gt;&lt;/pre&gt;&lt;/pre&gt;" style="rounded=1;whiteSpace=wrap;html=1;" parent="1" vertex="1">
          <mxGeometry x="524" y="3341" width="85" height="27" as="geometry" />
        </mxCell>
        <mxCell id="oxTGBEpy8pcz7sXoMvzD-9" value="&lt;pre style=&quot;text-align: left; box-sizing: border-box; overflow: auto; font-size: 14px; padding: 1px 0px; margin-top: 0px; margin-bottom: 0px; line-height: inherit; word-break: break-all; overflow-wrap: break-word; border: 0px; border-radius: 0px; vertical-align: baseline;&quot;&gt;&lt;pre style=&quot;box-sizing: border-box; overflow: auto; padding: 1px 0px; margin-top: 0px; margin-bottom: 0px; line-height: inherit; word-break: break-all; overflow-wrap: break-word; border: 0px; border-radius: 0px; vertical-align: baseline;&quot;&gt;&lt;pre style=&quot;box-sizing: border-box; overflow: auto; padding: 1px 0px; margin-top: 0px; margin-bottom: 0px; line-height: inherit; word-break: break-all; overflow-wrap: break-word; background-color: rgb(255, 255, 255); border: 0px; border-radius: 0px; vertical-align: baseline;&quot;&gt;处理 用&lt;/pre&gt;&lt;/pre&gt;&lt;/pre&gt;" style="rounded=1;whiteSpace=wrap;html=1;labelBackgroundColor=none;" parent="1" vertex="1">
          <mxGeometry x="242" y="3163" width="79" height="27" as="geometry" />
        </mxCell>
        <mxCell id="oxTGBEpy8pcz7sXoMvzD-10" value="&lt;pre style=&quot;text-align: left; box-sizing: border-box; overflow: auto; font-size: 14px; padding: 1px 0px; margin-top: 0px; margin-bottom: 0px; line-height: inherit; word-break: break-all; overflow-wrap: break-word; background-color: rgb(255, 255, 255); border: 0px; border-radius: 0px; vertical-align: baseline;&quot;&gt;&lt;pre style=&quot;box-sizing: border-box; overflow: auto; padding: 1px 0px; margin-top: 0px; margin-bottom: 0px; line-height: inherit; word-break: break-all; overflow-wrap: break-word; border: 0px; border-radius: 0px; vertical-align: baseline;&quot;&gt;&lt;pre style=&quot;box-sizing: border-box; overflow: auto; padding: 1px 0px; margin-top: 0px; margin-bottom: 0px; line-height: inherit; word-break: break-all; overflow-wrap: break-word; border: 0px; border-radius: 0px; vertical-align: baseline;&quot;&gt;处理 用 部&lt;/pre&gt;&lt;/pre&gt;&lt;/pre&gt;" style="rounded=1;whiteSpace=wrap;html=1;" parent="1" vertex="1">
          <mxGeometry x="242" y="3200" width="88" height="27" as="geometry" />
        </mxCell>
        <mxCell id="oxTGBEpy8pcz7sXoMvzD-11" value="&lt;pre style=&quot;text-align: left; box-sizing: border-box; overflow: auto; font-size: 14px; padding: 1px 0px; margin-top: 0px; margin-bottom: 0px; line-height: inherit; word-break: break-all; overflow-wrap: break-word; background-color: rgb(255, 255, 255); border: 0px; border-radius: 0px; vertical-align: baseline;&quot;&gt;&lt;pre style=&quot;box-sizing: border-box; overflow: auto; padding: 1px 0px; margin-top: 0px; margin-bottom: 0px; line-height: inherit; word-break: break-all; overflow-wrap: break-word; border: 0px; border-radius: 0px; vertical-align: baseline;&quot;&gt;处理 用 构件&lt;/pre&gt;&lt;/pre&gt;" style="rounded=1;whiteSpace=wrap;html=1;" parent="1" vertex="1">
          <mxGeometry x="242" y="3236" width="115" height="27" as="geometry" />
        </mxCell>
        <mxCell id="oxTGBEpy8pcz7sXoMvzD-14" value="&lt;pre style=&quot;text-align: left; box-sizing: border-box; overflow: auto; font-size: 14px; padding: 1px 0px; margin-top: 0px; margin-bottom: 0px; line-height: inherit; word-break: break-all; overflow-wrap: break-word; background-color: rgb(255, 255, 255); border: 0px; border-radius: 0px; vertical-align: baseline;&quot;&gt;&lt;pre style=&quot;box-sizing: border-box; overflow: auto; padding: 1px 0px; margin-top: 0px; margin-bottom: 0px; line-height: inherit; word-break: break-all; overflow-wrap: break-word; border: 0px; border-radius: 0px; vertical-align: baseline;&quot;&gt;&lt;pre style=&quot;box-sizing: border-box; overflow: auto; padding: 1px 0px; margin-top: 0px; margin-bottom: 0px; line-height: inherit; word-break: break-all; overflow-wrap: break-word; border: 0px; border-radius: 0px; vertical-align: baseline;&quot;&gt;热 导&lt;/pre&gt;&lt;/pre&gt;&lt;/pre&gt;" style="rounded=1;whiteSpace=wrap;html=1;" parent="1" vertex="1">
          <mxGeometry x="395" y="3163" width="53" height="27" as="geometry" />
        </mxCell>
        <mxCell id="oxTGBEpy8pcz7sXoMvzD-15" value="&lt;pre style=&quot;text-align: left; box-sizing: border-box; overflow: auto; font-size: 14px; padding: 1px 0px; margin-top: 0px; margin-bottom: 0px; line-height: inherit; word-break: break-all; overflow-wrap: break-word; background-color: rgb(255, 255, 255); border: 0px; border-radius: 0px; vertical-align: baseline;&quot;&gt;&lt;pre style=&quot;box-sizing: border-box; overflow: auto; padding: 1px 0px; margin-top: 0px; margin-bottom: 0px; line-height: inherit; word-break: break-all; overflow-wrap: break-word; border: 0px; border-radius: 0px; vertical-align: baseline;&quot;&gt;&lt;pre style=&quot;box-sizing: border-box; overflow: auto; padding: 1px 0px; margin-top: 0px; margin-bottom: 0px; line-height: inherit; word-break: break-all; overflow-wrap: break-word; border: 0px; border-radius: 0px; vertical-align: baseline;&quot;&gt;热传导&lt;/pre&gt;&lt;/pre&gt;&lt;/pre&gt;" style="rounded=1;whiteSpace=wrap;html=1;" parent="1" vertex="1">
          <mxGeometry x="396" y="3200" width="58" height="27" as="geometry" />
        </mxCell>
        <mxCell id="oxTGBEpy8pcz7sXoMvzD-16" value="&lt;pre style=&quot;text-align: left; box-sizing: border-box; overflow: auto; font-size: 14px; padding: 1px 0px; margin-top: 0px; margin-bottom: 0px; line-height: inherit; word-break: break-all; overflow-wrap: break-word; background-color: rgb(255, 255, 255); border: 0px; border-radius: 0px; vertical-align: baseline;&quot;&gt;&lt;pre style=&quot;box-sizing: border-box; overflow: auto; padding: 1px 0px; margin-top: 0px; margin-bottom: 0px; line-height: inherit; word-break: break-all; overflow-wrap: break-word; border: 0px; border-radius: 0px; vertical-align: baseline;&quot;&gt;&lt;pre style=&quot;box-sizing: border-box; overflow: auto; padding: 1px 0px; margin-top: 0px; margin-bottom: 0px; line-height: inherit; word-break: break-all; overflow-wrap: break-word; border: 0px; border-radius: 0px; vertical-align: baseline;&quot;&gt;由于 热传导&lt;/pre&gt;&lt;/pre&gt;&lt;/pre&gt;" style="rounded=1;whiteSpace=wrap;html=1;" parent="1" vertex="1">
          <mxGeometry x="395" y="3236" width="110" height="27" as="geometry" />
        </mxCell>
        <mxCell id="oxTGBEpy8pcz7sXoMvzD-21" value="&lt;pre style=&quot;text-align: left; box-sizing: border-box; overflow: auto; font-size: 14px; padding: 1px 0px; margin-top: 0px; margin-bottom: 0px; line-height: inherit; word-break: break-all; overflow-wrap: break-word; background-color: rgb(255, 255, 255); border: 0px; border-radius: 0px; vertical-align: baseline;&quot;&gt;&lt;pre style=&quot;box-sizing: border-box; overflow: auto; padding: 1px 0px; margin-top: 0px; margin-bottom: 0px; line-height: inherit; word-break: break-all; overflow-wrap: break-word; border: 0px; border-radius: 0px; vertical-align: baseline;&quot;&gt;&lt;pre style=&quot;box-sizing: border-box; overflow: auto; padding: 1px 0px; margin-top: 0px; margin-bottom: 0px; line-height: inherit; word-break: break-all; overflow-wrap: break-word; border: 0px; border-radius: 0px; vertical-align: baseline;&quot;&gt;处理 用&amp;nbsp;部件&lt;/pre&gt;&lt;/pre&gt;&lt;/pre&gt;" style="rounded=1;whiteSpace=wrap;html=1;" parent="1" vertex="1">
          <mxGeometry x="242" y="3273" width="116" height="27" as="geometry" />
        </mxCell>
        <mxCell id="oxTGBEpy8pcz7sXoMvzD-22" value="&lt;pre style=&quot;text-align: left; box-sizing: border-box; overflow: auto; font-size: 14px; padding: 1px 0px; margin-top: 0px; margin-bottom: 0px; line-height: inherit; word-break: break-all; overflow-wrap: break-word; background-color: rgb(255, 255, 255); border: 0px; border-radius: 0px; vertical-align: baseline;&quot;&gt;&lt;pre style=&quot;box-sizing: border-box; overflow: auto; padding: 1px 0px; margin-top: 0px; margin-bottom: 0px; line-height: inherit; word-break: break-all; overflow-wrap: break-word; border: 0px; border-radius: 0px; vertical-align: baseline;&quot;&gt;&lt;pre style=&quot;box-sizing: border-box; overflow: auto; padding: 1px 0px; margin-top: 0px; margin-bottom: 0px; line-height: inherit; word-break: break-all; overflow-wrap: break-word; border: 0px; border-radius: 0px; vertical-align: baseline;&quot;&gt;使用&lt;/pre&gt;&lt;/pre&gt;&lt;/pre&gt;" style="rounded=1;whiteSpace=wrap;html=1;" parent="1" vertex="1">
          <mxGeometry x="525" y="3163" width="76.2" height="27" as="geometry" />
        </mxCell>
        <mxCell id="oxTGBEpy8pcz7sXoMvzD-23" value="&lt;pre style=&quot;text-align: left; box-sizing: border-box; overflow: auto; font-size: 14px; padding: 1px 0px; margin-top: 0px; margin-bottom: 0px; line-height: inherit; word-break: break-all; overflow-wrap: break-word; background-color: rgb(255, 255, 255); border: 0px; border-radius: 0px; vertical-align: baseline;&quot;&gt;&lt;pre style=&quot;box-sizing: border-box; overflow: auto; padding: 1px 0px; margin-top: 0px; margin-bottom: 0px; line-height: inherit; word-break: break-all; overflow-wrap: break-word; border: 0px; border-radius: 0px; vertical-align: baseline;&quot;&gt;&lt;pre style=&quot;box-sizing: border-box; overflow: auto; padding: 1px 0px; margin-top: 0px; margin-bottom: 0px; line-height: inherit; word-break: break-all; overflow-wrap: break-word; border: 0px; border-radius: 0px; vertical-align: baseline;&quot;&gt;利用&lt;/pre&gt;&lt;/pre&gt;&lt;/pre&gt;" style="rounded=1;whiteSpace=wrap;html=1;" parent="1" vertex="1">
          <mxGeometry x="525" y="3200" width="76.2" height="27" as="geometry" />
        </mxCell>
        <mxCell id="oxTGBEpy8pcz7sXoMvzD-24" value="&lt;pre style=&quot;text-align: left; box-sizing: border-box; overflow: auto; font-size: 14px; padding: 1px 0px; margin-top: 0px; margin-bottom: 0px; line-height: inherit; word-break: break-all; overflow-wrap: break-word; background-color: rgb(255, 255, 255); border: 0px; border-radius: 0px; vertical-align: baseline;&quot;&gt;&lt;pre style=&quot;box-sizing: border-box; overflow: auto; padding: 1px 0px; margin-top: 0px; margin-bottom: 0px; line-height: inherit; word-break: break-all; overflow-wrap: break-word; border: 0px; border-radius: 0px; vertical-align: baseline;&quot;&gt;&lt;pre style=&quot;box-sizing: border-box; overflow: auto; padding: 1px 0px; margin-top: 0px; margin-bottom: 0px; line-height: inherit; word-break: break-all; overflow-wrap: break-word; border: 0px; border-radius: 0px; vertical-align: baseline;&quot;&gt;采用&lt;/pre&gt;&lt;/pre&gt;&lt;/pre&gt;" style="rounded=1;whiteSpace=wrap;html=1;" parent="1" vertex="1">
          <mxGeometry x="525" y="3236" width="76.2" height="27" as="geometry" />
        </mxCell>
        <mxCell id="oxTGBEpy8pcz7sXoMvzD-25" value="&lt;pre style=&quot;text-align: left; box-sizing: border-box; overflow: auto; font-size: 14px; padding: 1px 0px; margin-top: 0px; margin-bottom: 0px; line-height: inherit; word-break: break-all; overflow-wrap: break-word; background-color: rgb(255, 255, 255); border: 0px; border-radius: 0px; vertical-align: baseline;&quot;&gt;&lt;pre style=&quot;box-sizing: border-box; overflow: auto; padding: 1px 0px; margin-top: 0px; margin-bottom: 0px; line-height: inherit; word-break: break-all; overflow-wrap: break-word; border: 0px; border-radius: 0px; vertical-align: baseline;&quot;&gt;&lt;pre style=&quot;box-sizing: border-box; overflow: auto; padding: 1px 0px; margin-top: 0px; margin-bottom: 0px; line-height: inherit; word-break: break-all; overflow-wrap: break-word; border: 0px; border-radius: 0px; vertical-align: baseline;&quot;&gt;进行 使用&lt;/pre&gt;&lt;/pre&gt;&lt;/pre&gt;" style="rounded=1;whiteSpace=wrap;html=1;" parent="1" vertex="1">
          <mxGeometry x="525" y="3272.5" width="76.2" height="27" as="geometry" />
        </mxCell>
        <mxCell id="oxTGBEpy8pcz7sXoMvzD-28" value="" style="endArrow=none;dashed=1;html=1;strokeWidth=2;rounded=0;strokeColor=#FF0000;" parent="1" edge="1">
          <mxGeometry width="50" height="50" relative="1" as="geometry">
            <mxPoint x="375.5" y="3368" as="sourcePoint" />
            <mxPoint x="375.90999999999997" y="3156" as="targetPoint" />
          </mxGeometry>
        </mxCell>
        <mxCell id="oxTGBEpy8pcz7sXoMvzD-29" value="Src Phrase" style="text;html=1;align=center;verticalAlign=middle;resizable=0;points=[];autosize=1;strokeColor=none;fillColor=none;" parent="1" vertex="1">
          <mxGeometry x="138" y="3341" width="80" height="30" as="geometry" />
        </mxCell>
        <mxCell id="oxTGBEpy8pcz7sXoMvzD-30" value="Tgt Phrase" style="text;html=1;align=center;verticalAlign=middle;resizable=0;points=[];autosize=1;strokeColor=none;fillColor=none;" parent="1" vertex="1">
          <mxGeometry x="138" y="3210" width="80" height="30" as="geometry" />
        </mxCell>
        <mxCell id="oxTGBEpy8pcz7sXoMvzD-32" value="&lt;pre style=&quot;text-align: left; box-sizing: border-box; overflow: auto; font-size: 14px; padding: 1px 0px; margin-top: 0px; margin-bottom: 0px; line-height: inherit; word-break: break-all; overflow-wrap: break-word; border: 0px; border-radius: 0px; vertical-align: baseline;&quot;&gt;&lt;pre style=&quot;box-sizing: border-box; overflow: auto; padding: 1px 0px; margin-top: 0px; margin-bottom: 0px; line-height: inherit; word-break: break-all; overflow-wrap: break-word; border: 0px; border-radius: 0px; vertical-align: baseline;&quot;&gt;Decoder&lt;/pre&gt;&lt;/pre&gt;" style="rounded=1;whiteSpace=wrap;html=1;fillColor=#FFFF33;" parent="1" vertex="1">
          <mxGeometry x="445" y="3110" width="167" height="46" as="geometry" />
        </mxCell>
        <mxCell id="oxTGBEpy8pcz7sXoMvzD-36" value="" style="endArrow=classic;html=1;rounded=0;strokeColor=#000000;" parent="1" edge="1">
          <mxGeometry width="50" height="50" relative="1" as="geometry">
            <mxPoint x="545" y="3008" as="sourcePoint" />
            <mxPoint x="545" y="2983" as="targetPoint" />
          </mxGeometry>
        </mxCell>
        <mxCell id="oxTGBEpy8pcz7sXoMvzD-38" value="" style="endArrow=none;dashed=1;html=1;strokeWidth=2;rounded=0;strokeColor=#FF0000;" parent="1" edge="1">
          <mxGeometry width="50" height="50" relative="1" as="geometry">
            <mxPoint x="513" y="3369" as="sourcePoint" />
            <mxPoint x="513.6699999999998" y="3154" as="targetPoint" />
          </mxGeometry>
        </mxCell>
        <mxCell id="oxTGBEpy8pcz7sXoMvzD-39" value="Japanese &lt;br&gt;Input" style="text;html=1;align=center;verticalAlign=middle;resizable=0;points=[];autosize=1;strokeColor=none;fillColor=none;" parent="1" vertex="1">
          <mxGeometry x="144" y="3402" width="70" height="41" as="geometry" />
        </mxCell>
        <mxCell id="oxTGBEpy8pcz7sXoMvzD-40" value="&lt;pre style=&quot;text-align: left; box-sizing: border-box; overflow: auto; font-size: 14px; padding: 1px 0px; margin-top: 0px; margin-bottom: 0px; line-height: inherit; word-break: break-all; overflow-wrap: break-word; background-color: rgb(255, 255, 255); border: 0px; border-radius: 0px; vertical-align: baseline;&quot;&gt;&lt;pre style=&quot;box-sizing: border-box; overflow: auto; padding: 1px 0px; margin-top: 0px; margin-bottom: 0px; line-height: inherit; word-break: break-all; overflow-wrap: break-word; border: 0px; border-radius: 0px; vertical-align: baseline;&quot;&gt;処理&lt;br&gt;&lt;/pre&gt;&lt;/pre&gt;" style="rounded=1;whiteSpace=wrap;html=1;" parent="1" vertex="1">
          <mxGeometry x="234" y="3409" width="47" height="27" as="geometry" />
        </mxCell>
        <mxCell id="oxTGBEpy8pcz7sXoMvzD-41" value="&lt;pre style=&quot;text-align: left; box-sizing: border-box; overflow: auto; font-size: 14px; padding: 1px 0px; margin-top: 0px; margin-bottom: 0px; line-height: inherit; word-break: break-all; overflow-wrap: break-word; background-color: rgb(255, 255, 255); border: 0px; border-radius: 0px; vertical-align: baseline;&quot;&gt;&lt;pre style=&quot;box-sizing: border-box; overflow: auto; padding: 1px 0px; margin-top: 0px; margin-bottom: 0px; line-height: inherit; word-break: break-all; overflow-wrap: break-word; border: 0px; border-radius: 0px; vertical-align: baseline;&quot;&gt;用&lt;br&gt;&lt;/pre&gt;&lt;/pre&gt;" style="rounded=1;whiteSpace=wrap;html=1;" parent="1" vertex="1">
          <mxGeometry x="286" y="3409" width="33.4" height="27" as="geometry" />
        </mxCell>
        <mxCell id="oxTGBEpy8pcz7sXoMvzD-42" value="&lt;pre style=&quot;text-align: left; box-sizing: border-box; overflow: auto; font-size: 14px; padding: 1px 0px; margin-top: 0px; margin-bottom: 0px; line-height: inherit; word-break: break-all; overflow-wrap: break-word; background-color: rgb(255, 255, 255); border: 0px; border-radius: 0px; vertical-align: baseline;&quot;&gt;&lt;pre style=&quot;box-sizing: border-box; overflow: auto; padding: 1px 0px; margin-top: 0px; margin-bottom: 0px; line-height: inherit; word-break: break-all; overflow-wrap: break-word; border: 0px; border-radius: 0px; vertical-align: baseline;&quot;&gt;部&lt;br&gt;&lt;/pre&gt;&lt;/pre&gt;" style="rounded=1;whiteSpace=wrap;html=1;" parent="1" vertex="1">
          <mxGeometry x="324.6" y="3409" width="33.4" height="27" as="geometry" />
        </mxCell>
        <mxCell id="oxTGBEpy8pcz7sXoMvzD-43" value="&lt;pre style=&quot;text-align: left; box-sizing: border-box; overflow: auto; font-size: 14px; padding: 1px 0px; margin-top: 0px; margin-bottom: 0px; line-height: inherit; word-break: break-all; overflow-wrap: break-word; background-color: rgb(255, 255, 255); border: 0px; border-radius: 0px; vertical-align: baseline;&quot;&gt;&lt;pre style=&quot;box-sizing: border-box; overflow: auto; padding: 1px 0px; margin-top: 0px; margin-bottom: 0px; line-height: inherit; word-break: break-all; overflow-wrap: break-word; border: 0px; border-radius: 0px; vertical-align: baseline;&quot;&gt;の&lt;br&gt;&lt;/pre&gt;&lt;/pre&gt;" style="rounded=1;whiteSpace=wrap;html=1;" parent="1" vertex="1">
          <mxGeometry x="362.6" y="3409" width="33.4" height="27" as="geometry" />
        </mxCell>
        <mxCell id="oxTGBEpy8pcz7sXoMvzD-44" value="&lt;pre style=&quot;text-align: left; box-sizing: border-box; overflow: auto; font-size: 14px; padding: 1px 0px; margin-top: 0px; margin-bottom: 0px; line-height: inherit; word-break: break-all; overflow-wrap: break-word; background-color: rgb(255, 255, 255); border: 0px; border-radius: 0px; vertical-align: baseline;&quot;&gt;&lt;pre style=&quot;box-sizing: border-box; overflow: auto; padding: 1px 0px; margin-top: 0px; margin-bottom: 0px; line-height: inherit; word-break: break-all; overflow-wrap: break-word; border: 0px; border-radius: 0px; vertical-align: baseline;&quot;&gt;熱&lt;br&gt;&lt;/pre&gt;&lt;/pre&gt;" style="rounded=1;whiteSpace=wrap;html=1;" parent="1" vertex="1">
          <mxGeometry x="400.8" y="3409" width="34.2" height="27" as="geometry" />
        </mxCell>
        <mxCell id="oxTGBEpy8pcz7sXoMvzD-45" value="&lt;pre style=&quot;text-align: left; box-sizing: border-box; overflow: auto; font-size: 14px; padding: 1px 0px; margin-top: 0px; margin-bottom: 0px; line-height: inherit; word-break: break-all; overflow-wrap: break-word; background-color: rgb(255, 255, 255); border: 0px; border-radius: 0px; vertical-align: baseline;&quot;&gt;&lt;pre style=&quot;box-sizing: border-box; overflow: auto; padding: 1px 0px; margin-top: 0px; margin-bottom: 0px; line-height: inherit; word-break: break-all; overflow-wrap: break-word; border: 0px; border-radius: 0px; vertical-align: baseline;&quot;&gt;伝導&lt;br&gt;&lt;/pre&gt;&lt;/pre&gt;" style="rounded=1;whiteSpace=wrap;html=1;" parent="1" vertex="1">
          <mxGeometry x="439.4" y="3409" width="47" height="27" as="geometry" />
        </mxCell>
        <mxCell id="oxTGBEpy8pcz7sXoMvzD-46" value="&lt;pre style=&quot;text-align: left; box-sizing: border-box; overflow: auto; font-size: 14px; padding: 1px 0px; margin-top: 0px; margin-bottom: 0px; line-height: inherit; word-break: break-all; overflow-wrap: break-word; background-color: rgb(255, 255, 255); border: 0px; border-radius: 0px; vertical-align: baseline;&quot;&gt;&lt;pre style=&quot;box-sizing: border-box; overflow: auto; padding: 1px 0px; margin-top: 0px; margin-bottom: 0px; line-height: inherit; word-break: break-all; overflow-wrap: break-word; border: 0px; border-radius: 0px; vertical-align: baseline;&quot;&gt;を&lt;br&gt;&lt;/pre&gt;&lt;/pre&gt;" style="rounded=1;whiteSpace=wrap;html=1;" parent="1" vertex="1">
          <mxGeometry x="490.4" y="3409" width="33.4" height="27" as="geometry" />
        </mxCell>
        <mxCell id="oxTGBEpy8pcz7sXoMvzD-47" value="&lt;pre style=&quot;text-align: left; box-sizing: border-box; overflow: auto; font-size: 14px; padding: 1px 0px; margin-top: 0px; margin-bottom: 0px; line-height: inherit; word-break: break-all; overflow-wrap: break-word; background-color: rgb(255, 255, 255); border: 0px; border-radius: 0px; vertical-align: baseline;&quot;&gt;&lt;pre style=&quot;box-sizing: border-box; overflow: auto; padding: 1px 0px; margin-top: 0px; margin-bottom: 0px; line-height: inherit; word-break: break-all; overflow-wrap: break-word; border: 0px; border-radius: 0px; vertical-align: baseline;&quot;&gt;用い&lt;br&gt;&lt;/pre&gt;&lt;/pre&gt;" style="rounded=1;whiteSpace=wrap;html=1;" parent="1" vertex="1">
          <mxGeometry x="528" y="3409" width="47" height="27" as="geometry" />
        </mxCell>
        <mxCell id="oxTGBEpy8pcz7sXoMvzD-48" value="&lt;pre style=&quot;text-align: left; box-sizing: border-box; overflow: auto; font-size: 14px; padding: 1px 0px; margin-top: 0px; margin-bottom: 0px; line-height: inherit; word-break: break-all; overflow-wrap: break-word; background-color: rgb(255, 255, 255); border: 0px; border-radius: 0px; vertical-align: baseline;&quot;&gt;&lt;pre style=&quot;box-sizing: border-box; overflow: auto; padding: 1px 0px; margin-top: 0px; margin-bottom: 0px; line-height: inherit; word-break: break-all; overflow-wrap: break-word; border: 0px; border-radius: 0px; vertical-align: baseline;&quot;&gt;て&lt;br&gt;&lt;/pre&gt;&lt;/pre&gt;" style="rounded=1;whiteSpace=wrap;html=1;" parent="1" vertex="1">
          <mxGeometry x="580" y="3409" width="33.4" height="27" as="geometry" />
        </mxCell>
        <mxCell id="oxTGBEpy8pcz7sXoMvzD-50" value="" style="endArrow=classic;html=1;rounded=0;strokeColor=#000000;" parent="1" edge="1">
          <mxGeometry width="50" height="50" relative="1" as="geometry">
            <mxPoint x="423.08000000000004" y="3399.25" as="sourcePoint" />
            <mxPoint x="423.08000000000004" y="3378" as="targetPoint" />
          </mxGeometry>
        </mxCell>
        <mxCell id="WuOIvaeFX4KCdqBfwcaZ-1" value="" style="rounded=1;whiteSpace=wrap;html=1;fontSize=4;dashed=1;fillColor=#CCCCFF;strokeColor=#b85450;fillOpacity=100;strokeOpacity=100;" parent="1" vertex="1">
          <mxGeometry x="333.5" y="2855" width="129" height="107" as="geometry" />
        </mxCell>
        <mxCell id="WuOIvaeFX4KCdqBfwcaZ-2" value="" style="rounded=1;whiteSpace=wrap;html=1;fontSize=4;dashed=1;fillColor=none;" parent="1" vertex="1">
          <mxGeometry x="141.3" y="2840" width="125.2" height="176" as="geometry" />
        </mxCell>
        <mxCell id="WuOIvaeFX4KCdqBfwcaZ-4" value="" style="edgeStyle=orthogonalEdgeStyle;rounded=0;jumpSize=3;orthogonalLoop=1;jettySize=auto;html=1;fontSize=4;startArrow=none;startFill=0;endArrow=none;endFill=0;startSize=3;endSize=3;" parent="1" source="WuOIvaeFX4KCdqBfwcaZ-5" target="WuOIvaeFX4KCdqBfwcaZ-49" edge="1">
          <mxGeometry relative="1" as="geometry" />
        </mxCell>
        <mxCell id="WuOIvaeFX4KCdqBfwcaZ-5" value="Multi-Head &lt;br&gt;Attention" style="rounded=1;whiteSpace=wrap;html=1;fillColor=#FFFF99;" parent="1" vertex="1">
          <mxGeometry x="150.5" y="2949" width="110" height="50" as="geometry" />
        </mxCell>
        <mxCell id="WuOIvaeFX4KCdqBfwcaZ-6" style="edgeStyle=orthogonalEdgeStyle;rounded=0;orthogonalLoop=1;jettySize=auto;html=1;exitX=0.5;exitY=0;exitDx=0;exitDy=0;entryX=0.5;entryY=1;entryDx=0;entryDy=0;endSize=3;startSize=3;" parent="1" target="WuOIvaeFX4KCdqBfwcaZ-5" edge="1">
          <mxGeometry relative="1" as="geometry">
            <mxPoint x="205.5" y="3022" as="sourcePoint" />
          </mxGeometry>
        </mxCell>
        <mxCell id="WuOIvaeFX4KCdqBfwcaZ-7" value="Phrase&lt;br&gt;Matching" style="rounded=1;whiteSpace=wrap;html=1;fillColor=#EBF3FF;strokeColor=#36393d;" parent="1" vertex="1">
          <mxGeometry x="342.5" y="2969" width="107.38" height="41" as="geometry" />
        </mxCell>
        <mxCell id="WuOIvaeFX4KCdqBfwcaZ-8" value="" style="endArrow=classic;startArrow=classic;html=1;rounded=1;jumpSize=3;fontSize=5;endSize=3;startSize=3;" parent="1" edge="1">
          <mxGeometry width="50" height="50" relative="1" as="geometry">
            <mxPoint x="186.5" y="2999" as="sourcePoint" />
            <mxPoint x="226.5" y="2999" as="targetPoint" />
            <Array as="points">
              <mxPoint x="186.5" y="3009" />
              <mxPoint x="206.5" y="3009" />
              <mxPoint x="226.5" y="3009" />
            </Array>
          </mxGeometry>
        </mxCell>
        <mxCell id="WuOIvaeFX4KCdqBfwcaZ-10" value="" style="endArrow=classic;html=1;rounded=0;fontSize=4;startSize=3;endSize=3;jumpSize=3;entryX=0.5;entryY=1;entryDx=0;entryDy=0;" parent="1" target="WuOIvaeFX4KCdqBfwcaZ-28" edge="1">
          <mxGeometry width="50" height="50" relative="1" as="geometry">
            <mxPoint x="205.5" y="2885" as="sourcePoint" />
            <mxPoint x="205.5" y="2934" as="targetPoint" />
          </mxGeometry>
        </mxCell>
        <mxCell id="WuOIvaeFX4KCdqBfwcaZ-11" style="edgeStyle=orthogonalEdgeStyle;rounded=0;orthogonalLoop=1;jettySize=auto;html=1;endSize=3;startSize=3;exitX=0.5;exitY=0;exitDx=0;exitDy=0;" parent="1" source="WuOIvaeFX4KCdqBfwcaZ-57" edge="1">
          <mxGeometry relative="1" as="geometry">
            <mxPoint x="397.5" y="3019" as="sourcePoint" />
            <mxPoint x="397.5" y="3010" as="targetPoint" />
            <Array as="points" />
          </mxGeometry>
        </mxCell>
        <mxCell id="WuOIvaeFX4KCdqBfwcaZ-12" style="edgeStyle=orthogonalEdgeStyle;rounded=0;orthogonalLoop=1;jettySize=auto;html=1;exitX=0.5;exitY=0;exitDx=0;exitDy=0;entryX=0.5;entryY=1;entryDx=0;entryDy=0;endSize=3;startSize=3;" parent="1" edge="1">
          <mxGeometry relative="1" as="geometry">
            <mxPoint x="589.5" y="2781" as="sourcePoint" />
            <mxPoint x="589.5" y="2757.5" as="targetPoint" />
          </mxGeometry>
        </mxCell>
        <mxCell id="WuOIvaeFX4KCdqBfwcaZ-13" value="" style="rounded=1;whiteSpace=wrap;html=1;fontSize=4;dashed=1;fillColor=none;" parent="1" vertex="1">
          <mxGeometry x="527" y="2775" width="124.5" height="240" as="geometry" />
        </mxCell>
        <mxCell id="WuOIvaeFX4KCdqBfwcaZ-14" value="Src Phrase&lt;br&gt;Encoder" style="rounded=1;whiteSpace=wrap;html=1;" parent="1" vertex="1">
          <mxGeometry x="342.5" y="2915" width="110" height="38" as="geometry" />
        </mxCell>
        <mxCell id="WuOIvaeFX4KCdqBfwcaZ-15" value="" style="edgeStyle=orthogonalEdgeStyle;rounded=1;jumpSize=3;orthogonalLoop=1;jettySize=auto;html=1;fontSize=4;startArrow=none;startFill=0;endArrow=none;endFill=0;startSize=3;endSize=3;entryX=0.337;entryY=1.015;entryDx=0;entryDy=0;entryPerimeter=0;" parent="1" target="WuOIvaeFX4KCdqBfwcaZ-30" edge="1">
          <mxGeometry relative="1" as="geometry">
            <mxPoint x="453" y="2878.5333333333333" as="sourcePoint" />
            <mxPoint x="577.5" y="2942" as="targetPoint" />
            <Array as="points">
              <mxPoint x="497.5" y="2879" />
              <mxPoint x="497.5" y="2942" />
              <mxPoint x="571.5" y="2942" />
            </Array>
          </mxGeometry>
        </mxCell>
        <mxCell id="WuOIvaeFX4KCdqBfwcaZ-16" value="Tgt Phrase&lt;br&gt;Encoder" style="rounded=1;whiteSpace=wrap;html=1;" parent="1" vertex="1">
          <mxGeometry x="343" y="2861" width="110" height="39" as="geometry" />
        </mxCell>
        <mxCell id="WuOIvaeFX4KCdqBfwcaZ-26" style="edgeStyle=orthogonalEdgeStyle;rounded=0;orthogonalLoop=1;jettySize=auto;html=1;endSize=3;startSize=3;exitX=0.5;exitY=0;exitDx=0;exitDy=0;" parent="1" edge="1">
          <mxGeometry relative="1" as="geometry">
            <mxPoint x="397.5000000000002" y="2915" as="sourcePoint" />
            <mxPoint x="397.3800000000001" y="2900" as="targetPoint" />
          </mxGeometry>
        </mxCell>
        <mxCell id="WuOIvaeFX4KCdqBfwcaZ-27" style="edgeStyle=orthogonalEdgeStyle;rounded=0;orthogonalLoop=1;jettySize=auto;html=1;entryX=0.5;entryY=1;entryDx=0;entryDy=0;endSize=3;startSize=3;" parent="1" edge="1">
          <mxGeometry relative="1" as="geometry">
            <mxPoint x="396.5000000000002" y="2969" as="sourcePoint" />
            <mxPoint x="396.5000000000002" y="2953" as="targetPoint" />
          </mxGeometry>
        </mxCell>
        <mxCell id="WuOIvaeFX4KCdqBfwcaZ-28" value="&lt;span&gt;Feed Forward&lt;/span&gt;" style="rounded=1;whiteSpace=wrap;html=1;fillColor=#D5E8D4;strokeColor=#82b366;" parent="1" vertex="1">
          <mxGeometry x="150.5" y="2845.5" width="110" height="20" as="geometry" />
        </mxCell>
        <mxCell id="WuOIvaeFX4KCdqBfwcaZ-29" value="" style="edgeStyle=orthogonalEdgeStyle;rounded=0;jumpSize=3;orthogonalLoop=1;jettySize=auto;html=1;fontSize=4;startArrow=none;startFill=0;endArrow=none;endFill=0;startSize=3;endSize=3;" parent="1" source="WuOIvaeFX4KCdqBfwcaZ-30" target="WuOIvaeFX4KCdqBfwcaZ-44" edge="1">
          <mxGeometry relative="1" as="geometry" />
        </mxCell>
        <mxCell id="WuOIvaeFX4KCdqBfwcaZ-30" value="Multi-Head &lt;br&gt;Attention" style="rounded=1;whiteSpace=wrap;html=1;fillColor=#ffff88;strokeColor=#FF0000;dashed=1;strokeWidth=2;" parent="1" vertex="1">
          <mxGeometry x="534.5" y="2882" width="110" height="50" as="geometry" />
        </mxCell>
        <mxCell id="WuOIvaeFX4KCdqBfwcaZ-31" style="edgeStyle=orthogonalEdgeStyle;rounded=0;orthogonalLoop=1;jettySize=auto;html=1;exitX=0.5;exitY=0;exitDx=0;exitDy=0;entryX=0.5;entryY=1;entryDx=0;entryDy=0;endSize=3;startSize=3;" parent="1" target="WuOIvaeFX4KCdqBfwcaZ-30" edge="1">
          <mxGeometry relative="1" as="geometry">
            <mxPoint x="589.5" y="2949" as="sourcePoint" />
          </mxGeometry>
        </mxCell>
        <mxCell id="WuOIvaeFX4KCdqBfwcaZ-32" value="" style="endArrow=classic;startArrow=classic;html=1;rounded=1;jumpSize=3;fontSize=5;endSize=3;startSize=3;" parent="1" edge="1">
          <mxGeometry width="50" height="50" relative="1" as="geometry">
            <mxPoint x="551.4999999999998" y="2932" as="sourcePoint" />
            <mxPoint x="571.4999999999998" y="2932" as="targetPoint" />
            <Array as="points">
              <mxPoint x="551.5" y="2942" />
              <mxPoint x="571.5" y="2942" />
            </Array>
          </mxGeometry>
        </mxCell>
        <mxCell id="WuOIvaeFX4KCdqBfwcaZ-33" value="" style="endArrow=classic;html=1;rounded=0;fontSize=4;startSize=3;endSize=3;jumpSize=3;exitX=0.5;exitY=0;exitDx=0;exitDy=0;entryX=0.5;entryY=1;entryDx=0;entryDy=0;" parent="1" edge="1">
          <mxGeometry width="50" height="50" relative="1" as="geometry">
            <mxPoint x="589.5" y="2843" as="sourcePoint" />
            <mxPoint x="589.5" y="2828" as="targetPoint" />
          </mxGeometry>
        </mxCell>
        <mxCell id="WuOIvaeFX4KCdqBfwcaZ-34" value="&lt;span&gt;Feed Forward&lt;/span&gt;" style="rounded=1;whiteSpace=wrap;html=1;fillColor=#D5E8D4;" parent="1" vertex="1">
          <mxGeometry x="534.5" y="2781.5" width="110" height="20" as="geometry" />
        </mxCell>
        <mxCell id="WuOIvaeFX4KCdqBfwcaZ-35" value="Masked Multi-Head &lt;br&gt;Attention" style="rounded=1;whiteSpace=wrap;html=1;fillColor=#FFFF99;" parent="1" vertex="1">
          <mxGeometry x="534.5" y="2949" width="110" height="50" as="geometry" />
        </mxCell>
        <mxCell id="WuOIvaeFX4KCdqBfwcaZ-36" style="edgeStyle=orthogonalEdgeStyle;rounded=0;orthogonalLoop=1;jettySize=auto;html=1;exitX=0.5;exitY=0;exitDx=0;exitDy=0;entryX=0.5;entryY=1;entryDx=0;entryDy=0;endSize=3;startSize=3;" parent="1" target="WuOIvaeFX4KCdqBfwcaZ-35" edge="1">
          <mxGeometry relative="1" as="geometry">
            <mxPoint x="589.5" y="3022" as="sourcePoint" />
          </mxGeometry>
        </mxCell>
        <mxCell id="WuOIvaeFX4KCdqBfwcaZ-37" value="" style="endArrow=classic;startArrow=classic;html=1;rounded=1;jumpSize=3;fontSize=5;endSize=3;startSize=3;" parent="1" edge="1">
          <mxGeometry width="50" height="50" relative="1" as="geometry">
            <mxPoint x="570.5" y="2999" as="sourcePoint" />
            <mxPoint x="610.5" y="2999" as="targetPoint" />
            <Array as="points">
              <mxPoint x="570.5" y="3009" />
              <mxPoint x="590.5" y="3009" />
              <mxPoint x="610.5" y="3009" />
            </Array>
          </mxGeometry>
        </mxCell>
        <mxCell id="WuOIvaeFX4KCdqBfwcaZ-38" style="edgeStyle=orthogonalEdgeStyle;rounded=0;orthogonalLoop=1;jettySize=auto;html=1;entryX=0.5;entryY=1;entryDx=0;entryDy=0;endSize=3;startSize=3;" parent="1" edge="1">
          <mxGeometry relative="1" as="geometry">
            <mxPoint x="589.0999999999999" y="2815" as="sourcePoint" />
            <mxPoint x="589.0999999999999" y="2801" as="targetPoint" />
            <Array as="points">
              <mxPoint x="589.1" y="2815" />
            </Array>
          </mxGeometry>
        </mxCell>
        <mxCell id="WuOIvaeFX4KCdqBfwcaZ-44" value="Multi-Head &lt;br&gt;Attention" style="rounded=1;whiteSpace=wrap;html=1;fillColor=#FFFF99;" parent="1" vertex="1">
          <mxGeometry x="534.5" y="2814" width="110" height="50" as="geometry" />
        </mxCell>
        <mxCell id="WuOIvaeFX4KCdqBfwcaZ-45" value="" style="edgeStyle=orthogonalEdgeStyle;rounded=0;jumpSize=3;orthogonalLoop=1;jettySize=auto;html=1;fontSize=4;startArrow=none;startFill=0;endArrow=none;endFill=0;startSize=3;endSize=3;" parent="1" edge="1">
          <mxGeometry relative="1" as="geometry">
            <mxPoint x="398.5" y="2834" as="sourcePoint" />
            <mxPoint x="570.5" y="2874" as="targetPoint" />
            <Array as="points">
              <mxPoint x="525.5" y="2834" />
              <mxPoint x="525.5" y="2874" />
            </Array>
          </mxGeometry>
        </mxCell>
        <mxCell id="WuOIvaeFX4KCdqBfwcaZ-46" style="edgeStyle=orthogonalEdgeStyle;rounded=0;orthogonalLoop=1;jettySize=auto;html=1;endSize=3;startSize=3;entryX=0.5;entryY=1;entryDx=0;entryDy=0;" parent="1" target="WuOIvaeFX4KCdqBfwcaZ-44" edge="1">
          <mxGeometry relative="1" as="geometry">
            <mxPoint x="589.1199999999999" y="2882" as="sourcePoint" />
            <mxPoint x="589.5" y="2867" as="targetPoint" />
          </mxGeometry>
        </mxCell>
        <mxCell id="WuOIvaeFX4KCdqBfwcaZ-47" value="" style="endArrow=classic;startArrow=classic;html=1;rounded=1;jumpSize=3;fontSize=5;endSize=3;startSize=3;" parent="1" edge="1">
          <mxGeometry width="50" height="50" relative="1" as="geometry">
            <mxPoint x="551.4999999999998" y="2864" as="sourcePoint" />
            <mxPoint x="571.4999999999998" y="2864" as="targetPoint" />
            <Array as="points">
              <mxPoint x="551.5" y="2874" />
              <mxPoint x="571.5" y="2874" />
            </Array>
          </mxGeometry>
        </mxCell>
        <mxCell id="WuOIvaeFX4KCdqBfwcaZ-49" value="Multi-Head &lt;br&gt;Attention" style="rounded=1;whiteSpace=wrap;html=1;fillColor=#ffff88;strokeColor=#FF3333;strokeWidth=2;dashed=1;" parent="1" vertex="1">
          <mxGeometry x="150.5" y="2879" width="110" height="50" as="geometry" />
        </mxCell>
        <mxCell id="WuOIvaeFX4KCdqBfwcaZ-50" value="" style="endArrow=classic;startArrow=classic;html=1;rounded=1;jumpSize=3;fontSize=5;endSize=3;startSize=3;" parent="1" edge="1">
          <mxGeometry width="50" height="50" relative="1" as="geometry">
            <mxPoint x="217.5" y="2929" as="sourcePoint" />
            <mxPoint x="237.5" y="2929" as="targetPoint" />
            <Array as="points">
              <mxPoint x="217.5" y="2939" />
              <mxPoint x="237.5" y="2939" />
            </Array>
          </mxGeometry>
        </mxCell>
        <mxCell id="WuOIvaeFX4KCdqBfwcaZ-51" value="" style="endArrow=classic;html=1;rounded=0;fontSize=4;startSize=3;endSize=3;jumpSize=3;" parent="1" edge="1">
          <mxGeometry width="50" height="50" relative="1" as="geometry">
            <mxPoint x="205.5" y="2949" as="sourcePoint" />
            <mxPoint x="205.5" y="2929" as="targetPoint" />
          </mxGeometry>
        </mxCell>
        <mxCell id="WuOIvaeFX4KCdqBfwcaZ-52" value="" style="endArrow=none;html=1;rounded=0;fontSize=4;startSize=3;endSize=3;jumpSize=3;entryX=-0.006;entryY=0.569;entryDx=0;entryDy=0;entryPerimeter=0;" parent="1" edge="1">
          <mxGeometry width="50" height="50" relative="1" as="geometry">
            <mxPoint x="232.5" y="2939" as="sourcePoint" />
            <mxPoint x="341.84" y="2938.8979999999997" as="targetPoint" />
          </mxGeometry>
        </mxCell>
        <mxCell id="WuOIvaeFX4KCdqBfwcaZ-53" value="" style="edgeStyle=orthogonalEdgeStyle;rounded=0;jumpSize=3;orthogonalLoop=1;jettySize=auto;html=1;fontSize=4;startArrow=none;startFill=0;endArrow=none;endFill=0;startSize=3;endSize=3;" parent="1" edge="1">
          <mxGeometry relative="1" as="geometry">
            <mxPoint x="207.5" y="2845" as="sourcePoint" />
            <mxPoint x="398.5" y="2834" as="targetPoint" />
            <Array as="points">
              <mxPoint x="207.5" y="2834" />
            </Array>
          </mxGeometry>
        </mxCell>
        <mxCell id="WuOIvaeFX4KCdqBfwcaZ-54" value="&lt;span style=&quot;color: rgb(0, 0, 0); font-family: helvetica; font-size: 12px; font-style: normal; letter-spacing: normal; text-align: center; text-indent: 0px; text-transform: none; word-spacing: 0px; background-color: rgb(248, 249, 250); display: inline; float: none;&quot;&gt;&lt;b&gt;Encoder&lt;/b&gt;&lt;/span&gt;" style="text;whiteSpace=wrap;html=1;fontSize=4;" parent="1" vertex="1">
          <mxGeometry x="131.5047619047618" y="2814.000476190476" width="65" height="19" as="geometry" />
        </mxCell>
        <mxCell id="WuOIvaeFX4KCdqBfwcaZ-55" value="&lt;span style=&quot;color: rgb(0, 0, 0); font-family: helvetica; font-size: 12px; font-style: normal; letter-spacing: normal; text-align: center; text-indent: 0px; text-transform: none; word-spacing: 0px; background-color: rgb(248, 249, 250); display: inline; float: none;&quot;&gt;&lt;b&gt;Decoder&lt;/b&gt;&lt;/span&gt;" style="text;whiteSpace=wrap;html=1;fontSize=4;" parent="1" vertex="1">
          <mxGeometry x="635.5047619047618" y="2754.000476190476" width="65" height="19" as="geometry" />
        </mxCell>
        <mxCell id="WuOIvaeFX4KCdqBfwcaZ-56" value="Input Embed" style="rounded=1;whiteSpace=wrap;html=1;fillColor=#FFB366;" parent="1" vertex="1">
          <mxGeometry x="150.5" y="3022" width="110" height="20" as="geometry" />
        </mxCell>
        <mxCell id="WuOIvaeFX4KCdqBfwcaZ-57" value="Phrase Partition" style="rounded=1;whiteSpace=wrap;html=1;fillColor=#EBF3FF;" parent="1" vertex="1">
          <mxGeometry x="342.5" y="3021" width="110" height="20" as="geometry" />
        </mxCell>
        <mxCell id="WuOIvaeFX4KCdqBfwcaZ-58" value="Output Embed" style="rounded=1;whiteSpace=wrap;html=1;fillColor=#FFB366;" parent="1" vertex="1">
          <mxGeometry x="534.5" y="3022" width="110" height="20" as="geometry" />
        </mxCell>
        <mxCell id="WuOIvaeFX4KCdqBfwcaZ-59" value="" style="endArrow=classic;html=1;rounded=1;fontSize=4;startSize=3;endSize=3;jumpSize=3;" parent="1" target="WuOIvaeFX4KCdqBfwcaZ-57" edge="1">
          <mxGeometry width="50" height="50" relative="1" as="geometry">
            <mxPoint x="204.5" y="3055" as="sourcePoint" />
            <mxPoint x="342.5" y="3030" as="targetPoint" />
            <Array as="points">
              <mxPoint x="397.5" y="3055" />
            </Array>
          </mxGeometry>
        </mxCell>
        <mxCell id="WuOIvaeFX4KCdqBfwcaZ-60" style="edgeStyle=orthogonalEdgeStyle;rounded=0;orthogonalLoop=1;jettySize=auto;html=1;entryX=0.5;entryY=1;entryDx=0;entryDy=0;endSize=3;startSize=3;exitX=0.5;exitY=0;exitDx=0;exitDy=0;" parent="1" edge="1">
          <mxGeometry relative="1" as="geometry">
            <mxPoint x="205" y="3063.5" as="sourcePoint" />
            <mxPoint x="205.00000000000023" y="3042" as="targetPoint" />
            <Array as="points" />
          </mxGeometry>
        </mxCell>
        <mxCell id="WuOIvaeFX4KCdqBfwcaZ-61" style="edgeStyle=orthogonalEdgeStyle;rounded=0;orthogonalLoop=1;jettySize=auto;html=1;entryX=0.5;entryY=1;entryDx=0;entryDy=0;endSize=3;startSize=3;exitX=0.5;exitY=0;exitDx=0;exitDy=0;" parent="1" edge="1">
          <mxGeometry relative="1" as="geometry">
            <mxPoint x="589" y="3063.5" as="sourcePoint" />
            <mxPoint x="589.0000000000002" y="3042" as="targetPoint" />
            <Array as="points" />
          </mxGeometry>
        </mxCell>
        <mxCell id="WuOIvaeFX4KCdqBfwcaZ-62" value="&lt;span style=&quot;color: rgb(0, 0, 0); font-family: Helvetica; font-size: 12px; font-style: normal; font-variant-ligatures: normal; font-variant-caps: normal; font-weight: 400; letter-spacing: normal; orphans: 2; text-align: center; text-indent: 0px; text-transform: none; widows: 2; word-spacing: 0px; -webkit-text-stroke-width: 0px; background-color: rgb(248, 249, 250); text-decoration-thickness: initial; text-decoration-style: initial; text-decoration-color: initial; float: none; display: inline !important;&quot;&gt;Source Tokens&lt;/span&gt;" style="text;whiteSpace=wrap;html=1;" parent="1" vertex="1">
          <mxGeometry x="161.5" y="3061" width="89.6" height="27" as="geometry" />
        </mxCell>
        <mxCell id="WuOIvaeFX4KCdqBfwcaZ-63" value="&lt;span style=&quot;color: rgb(0, 0, 0); font-family: Helvetica; font-size: 12px; font-style: normal; font-variant-ligatures: normal; font-variant-caps: normal; font-weight: 400; letter-spacing: normal; orphans: 2; text-align: center; text-indent: 0px; text-transform: none; widows: 2; word-spacing: 0px; -webkit-text-stroke-width: 0px; background-color: rgb(248, 249, 250); text-decoration-thickness: initial; text-decoration-style: initial; text-decoration-color: initial; float: none; display: inline !important;&quot;&gt;Target Tokens&lt;br&gt;(Shifted Right)&lt;br&gt;&lt;/span&gt;" style="text;whiteSpace=wrap;html=1;" parent="1" vertex="1">
          <mxGeometry x="552.9" y="3051" width="89.6" height="27" as="geometry" />
        </mxCell>
        <mxCell id="WuOIvaeFX4KCdqBfwcaZ-64" value="&lt;span style=&quot;color: rgb(0, 0, 0); font-family: helvetica; font-size: 12px; font-style: normal; letter-spacing: normal; text-align: center; text-indent: 0px; text-transform: none; word-spacing: 0px; background-color: rgb(248, 249, 250); display: inline; float: none;&quot;&gt;&lt;b&gt;N×&lt;/b&gt;&lt;/span&gt;" style="text;whiteSpace=wrap;html=1;fontSize=4;" parent="1" vertex="1">
          <mxGeometry x="110.5" y="2885.5" width="21" height="19" as="geometry" />
        </mxCell>
        <mxCell id="WuOIvaeFX4KCdqBfwcaZ-65" value="&lt;span style=&quot;color: rgb(0, 0, 0); font-family: helvetica; font-size: 12px; font-style: normal; letter-spacing: normal; text-align: center; text-indent: 0px; text-transform: none; word-spacing: 0px; background-color: rgb(248, 249, 250); display: inline; float: none;&quot;&gt;&lt;b&gt;N×&lt;/b&gt;&lt;/span&gt;" style="text;whiteSpace=wrap;html=1;fontSize=4;" parent="1" vertex="1">
          <mxGeometry x="661.5" y="2804" width="21" height="19" as="geometry" />
        </mxCell>
        <mxCell id="WuOIvaeFX4KCdqBfwcaZ-66" value="&lt;span style=&quot;color: rgb(0, 0, 0); font-family: Helvetica; font-size: 12px; font-style: normal; font-variant-ligatures: normal; font-variant-caps: normal; font-weight: 400; letter-spacing: normal; orphans: 2; text-align: center; text-indent: 0px; text-transform: none; widows: 2; word-spacing: 0px; -webkit-text-stroke-width: 0px; background-color: rgb(251, 251, 251); text-decoration-thickness: initial; text-decoration-style: initial; text-decoration-color: initial; float: none; display: inline !important;&quot;&gt;Output words&lt;/span&gt;" style="text;whiteSpace=wrap;html=1;" parent="1" vertex="1">
          <mxGeometry x="560" y="2737" width="121" height="36" as="geometry" />
        </mxCell>
        <mxCell id="WuOIvaeFX4KCdqBfwcaZ-68" value="&lt;b&gt;Phrase Representation&lt;/b&gt;" style="text;html=1;align=center;verticalAlign=middle;resizable=0;points=[];autosize=1;strokeColor=none;fillColor=none;" parent="1" vertex="1">
          <mxGeometry x="315.5" y="2832" width="149" height="26" as="geometry" />
        </mxCell>
        <mxCell id="WuOIvaeFX4KCdqBfwcaZ-69" value="&lt;b&gt;Source&lt;br&gt;Phrase&lt;br&gt;Fusion&lt;br&gt;&lt;/b&gt;" style="text;html=1;align=center;verticalAlign=middle;resizable=0;points=[];autosize=1;strokeColor=none;fillColor=none;" parent="1" vertex="1">
          <mxGeometry x="265.6" y="2877" width="59" height="55" as="geometry" />
        </mxCell>
        <mxCell id="WuOIvaeFX4KCdqBfwcaZ-70" value="&lt;b&gt;Target&amp;nbsp;&amp;nbsp;&lt;br&gt;Phrase&lt;br&gt;Fusion&lt;br&gt;&lt;/b&gt;" style="text;html=1;align=center;verticalAlign=middle;resizable=0;points=[];autosize=1;strokeColor=none;fillColor=none;" parent="1" vertex="1">
          <mxGeometry x="651.5" y="2882" width="60" height="55" as="geometry" />
        </mxCell>
        <mxCell id="oxTGBEpy8pcz7sXoMvzD-31" value="&lt;pre style=&quot;text-align: left; box-sizing: border-box; overflow: auto; font-size: 14px; padding: 1px 0px; margin-top: 0px; margin-bottom: 0px; line-height: inherit; word-break: break-all; overflow-wrap: break-word; border: 0px; border-radius: 0px; vertical-align: baseline;&quot;&gt;&lt;pre style=&quot;box-sizing: border-box; overflow: auto; padding: 1px 0px; margin-top: 0px; margin-bottom: 0px; line-height: inherit; word-break: break-all; overflow-wrap: break-word; border: 0px; border-radius: 0px; vertical-align: baseline;&quot;&gt;Encoder&lt;/pre&gt;&lt;/pre&gt;" style="rounded=1;whiteSpace=wrap;html=1;fillColor=#CCFFFF;fontColor=#000000;strokeColor=#0d0d0d;" parent="1" vertex="1">
          <mxGeometry x="228" y="3107.63" width="171" height="46" as="geometry" />
        </mxCell>
      </root>
    </mxGraphModel>
  </diagram>
</mxfile>
